<svg xmlns:xlink="http://www.w3.org/1999/xlink" xmlns="http://www.w3.org/2000/svg" data-v-6ca697d7="" width="128" height="128" style="display: block; color: rgb(0, 0, 0);"><defs><symbol id="httpsc0piktochartcomv2externalassetsiconscoutb10ca0a78f70707b07a880ba4e7d836a73e810e1svg-original" viewBox="0 0 128 128" preserveAspectRatio="none"><path xmlns="http://www.w3.org/2000/svg" fill="#F2F2F2" d="M64.7 5.2c-8.3 0-15 6.7-15 15v63c0 6.5 4.2 12.1 10 14.1v22.9c0 2.8 2.2 5 5 5s5-2.2 5-5V97.3c5.8-2.1 10-7.6 10-14.1v-63c0-8.3-6.7-15-15-15z"></path><path xmlns="http://www.w3.org/2000/svg" fill="#FFFFFF" d="M68 94.1c-.6 0-1.2-.4-1.4-1-.3-.8.1-1.6.9-1.9 3.4-1.2 5.7-4.4 5.7-8v-63c0-4.7-3.8-8.5-8.5-8.5-.8 0-1.5-.7-1.5-1.5s.7-1.5 1.5-1.5c6.3 0 11.5 5.2 11.5 11.5v63c0 4.9-3.1 9.2-7.7 10.8-.2 0-.3.1-.5.1z" opacity=".5"></path><path xmlns="http://www.w3.org/2000/svg" d="M60.7 97.3c-5.8-2.1-6-7.6-6-14.1v-63c0-7.4 5.4-13.6 12.5-14.8-.8-.1-1.6-.2-2.5-.2-8.3 0-15 6.7-15 15v63c0 6.5 4.2 12.1 10 14.1h1z" opacity=".1"></path><path xmlns="http://www.w3.org/2000/svg" fill="#D8D8D8" d="M69.7 105.2v15c0 2.8-2.2 5-5 5s-5-2.2-5-5v-15h10z"></path><path xmlns="http://www.w3.org/2000/svg" fill="#4A374F" d="M64.7 89.7c.8 0 1.5-.7 1.5-1.5v-33c0-.8-.7-1.5-1.5-1.5s-1.5.7-1.5 1.5v33c0 .8.6 1.5 1.5 1.5z"></path><path xmlns="http://www.w3.org/2000/svg" fill="#4A374F" d="M64.7 3.7c-9.1 0-16.5 7.4-16.5 16.5v63c0 6.6 4 12.6 10 15.2v21.8c0 3.6 2.9 6.5 6.5 6.5s6.5-2.9 6.5-6.5V98.3c6-2.6 10-8.5 10-15.2v-63c0-9-7.4-16.4-16.5-16.4zm0 120c-1.9 0-3.5-1.6-3.5-3.5v-13.5h7v13.5c0 1.9-1.6 3.5-3.5 3.5zm13.5-40.5c0 5.7-3.6 10.8-9 12.7-.6.2-1 .8-1 1.4v6.4h-7v-6.4c0-.6-.4-1.2-1-1.4-5.4-1.9-9-7-9-12.7V77h4.2c.8 0 1.5-.7 1.5-1.5s-.7-1.5-1.6-1.5h-4.2v-7h1.2c.8 0 1.5-.7 1.5-1.5s-.6-1.5-1.5-1.5h-1.2v-7h4.2c.8 0 1.5-.7 1.5-1.5s-.6-1.5-1.5-1.5h-4.2v-7h1.2c.8 0 1.5-.7 1.5-1.5s-.6-1.5-1.5-1.5h-1.2v-7h4.2c.8 0 1.5-.7 1.5-1.5s-.6-1.5-1.5-1.5h-4.2v-7h1.2c.8 0 1.5-.7 1.5-1.5s-.6-1.5-1.5-1.5h-1.2v-3.8c0-7.4 6.1-13.5 13.5-13.5s13.5 6.1 13.5 13.5v63z"></path></symbol></defs><use data-v-6ca697d7="" xlink:href="#httpsc0piktochartcomv2externalassetsiconscoutb10ca0a78f70707b07a880ba4e7d836a73e810e1svg-original" href="#httpsc0piktochartcomv2externalassetsiconscoutb10ca0a78f70707b07a880ba4e7d836a73e810e1svg-original"></use></svg>