<svg xmlns:xlink="http://www.w3.org/1999/xlink" xmlns="http://www.w3.org/2000/svg" data-v-6ca697d7="" width="45" height="45" style="display: block; color: rgb(0, 0, 0);"><defs><symbol id="httpsc0piktochartcomv2externalassetsiconscout2193a67009e2f537fcf473905c579c62552f392bsvg-original" viewBox="0.00020635128021240234 -0.001008749008178711 512.0010375976562 512.0010375976562" preserveAspectRatio="none"><path xmlns="http://www.w3.org/2000/svg" fill="#00B1FF" d="M463.274 482.747v21.88H49.734v-21.88c0-29.36 20.82-54.59 49.65-60.17l90.62-17.54 28.71-5.56 74.62-.19 29.71 5.75 90.59 17.54c28.82 5.58 49.64 30.81 49.64 60.17z"></path><path xmlns="http://www.w3.org/2000/svg" fill="#008CFF" d="M463.274 482.747v21.88h-38.44v-11.88c0-29.36-11.04-50.33-38.41-60.17-23.26-8.36-93.09-33.29-93.09-33.29l29.71 5.75 90.59 17.54c28.82 5.58 49.64 30.81 49.64 60.17z"></path><path xmlns="http://www.w3.org/2000/svg" fill="#E4F4FF" d="M323.044 405.037v.77c-3.28 33.86-31.82 60.33-66.54 60.33-34.61 0-63.08-26.3-66.5-60.01v-1.09l28.71-5.56 74.62-.19z"></path><path xmlns="http://www.w3.org/2000/svg" fill="#FFEAC5" d="M288.184 381.627c.67 5.97 2.39 11.83 5.15 17.31 0 10.3-4.17 19.63-10.93 26.38-6.75 6.75-16.08 10.93-26.38 10.93s-19.63-4.18-26.38-10.93-10.93-16.08-10.93-26.38a50.725 50.725 0 0 0 5.21-17.84 51.008 51.008 0 0 0-2.89-22.81l-2.32-6.3h74.62l-2.32 6.3a50.916 50.916 0 0 0-2.83 23.34z"></path><path xmlns="http://www.w3.org/2000/svg" fill="#FFC69F" d="M291.014 358.287a50.916 50.916 0 0 0-2.83 23.34 66.674 66.674 0 0 1-31.65 7.92 66.652 66.652 0 0 1-32.61-8.45 51.008 51.008 0 0 0-2.89-22.81l-2.32-6.3h74.62z"></path><path xmlns="http://www.w3.org/2000/svg" fill="#4B6675" d="M391.746 106.3v81.56h-270.92V106.3c0-54.63 44.29-98.93 98.93-98.93h73.06c54.64 0 98.93 44.3 98.93 98.93z"></path><path xmlns="http://www.w3.org/2000/svg" fill="#294A59" d="M391.746 106.3v81.56h-23V106.3c0-54.63-44.29-98.93-98.93-98.93h23c54.64 0 98.93 44.3 98.93 98.93z"></path><path xmlns="http://www.w3.org/2000/svg" fill="#FFE527" d="m464.146 62.716 24.13 8.51-67.52 56.39 14.71-51.74-18.92-7.4 40.58-61.1 25.68 9.06 21.69 7.65z"></path><path xmlns="http://www.w3.org/2000/svg" fill="#FFBD29" d="m504.496 24.086-40.35 38.63-17.42-6.14 36.08-40.14z"></path><path xmlns="http://www.w3.org/2000/svg" fill="#FFE527" d="m47.857 62.713-24.13 8.51 67.52 56.39-14.71-51.74 18.92-7.4-40.58-61.1-25.68 9.06-21.69 7.65z"></path><path xmlns="http://www.w3.org/2000/svg" fill="#FFBD29" d="m7.507 24.083 40.35 38.63 17.42-6.139-36.08-40.141z"></path><path xmlns="http://www.w3.org/2000/svg" d="M149.173 236.972c-17.808 0-32.306-14.321-32.524-32.127-.222-18.119 14.404-32.926 32.524-32.926zm214.223.036c17.808 0 32.306-14.321 32.524-32.127.222-18.119-14.404-32.926-32.524-32.926z" fill="#FFC69F"></path><path xmlns="http://www.w3.org/2000/svg" fill="#FFEAC5" d="M362.466 258.69c0 25.33-21.53 55.59-64.01 89.96a66.573 66.573 0 0 1-42.16 14.92 66.68 66.68 0 0 1-42.21-14.95c-42.45-34.35-63.98-64.61-63.98-89.93 0-2.69.11-5.38.33-7.96 1.42-14.47 1.41-68.07-.01-106.61a17.52 17.52 0 0 1 5.01-12.99c9.89 8.68 21.01 15.39 32.8 20.08 37.34 14.85 81.41 9.4 114.54-17.97l.53-.09a79.322 79.322 0 0 1-24.97 39.32 78.273 78.273 0 0 1-15.79 10.46c-.03.01-.05.02-.05.02 12.74 3.56 26.55 3.95 40.3.5 26.92-6.76 47.1-26.61 55.45-51.06 2.57 3.17 4.07 7.26 3.9 11.75-.35 9.61-.62 20.17-.8 30.82-.54 31.99-.28 64.86.79 75.7.23 2.65.33 5.34.33 8.03z"></path><path xmlns="http://www.w3.org/2000/svg" d="M303.306 133.15a79.322 79.322 0 0 1-24.97 39.32c-4.89 1.37-10.04 2.49-15.37 3.32-37.57 5.81-70.58-5.16-74.73-24.58 37.34 14.85 81.41 9.4 114.54-17.97zm58.84 10.99c-.35 9.61-.62 20.17-.8 30.82-12.28 24.39-90.78 33.784-105.06 11.905 12.74 3.56 32.76.035 46.51-3.415 26.92-6.76 47.1-26.61 55.45-51.06 2.57 3.17 4.07 7.26 3.9 11.75z" fill="#FFC69F"></path><path xmlns="http://www.w3.org/2000/svg" d="m415.05 415.129-116.335-22.507c-4.195-10.078-4.464-21.495-.667-31.793l1.283-3.48a73.51 73.51 0 0 0 3.846-2.92c44.316-35.84 66.787-68.052 66.787-95.742 0-2.974-.12-5.887-.365-8.753-.149-1.518-.282-3.489-.398-5.845 19.097-2.812 33.975-19.27 34.219-39.091.08-6.467-1.365-12.71-4.171-18.327v-80.293C399.248 47.721 351.504 0 292.817 0h-38.615c-4.142 0-7.5 3.356-7.5 7.496s3.358 7.496 7.5 7.496h38.615c50.415 0 91.431 40.995 91.431 91.384v63.961a39.548 39.548 0 0 0-15.202-5.445c.159-7.066.357-13.963.596-20.425a25.116 25.116 0 0 0-5.561-16.73 7.501 7.501 0 0 0-12.931 2.289c-7.86 23.009-26.62 40.275-50.184 46.187a71.594 71.594 0 0 1-17.936 2.149 86.56 86.56 0 0 0 27.506-43.18 7.497 7.497 0 0 0-8.608-9.346l-.532.099a7.497 7.497 0 0 0-3.403 1.59 106.298 106.298 0 0 1-69.63 24.29c-25.089-.484-49.233-9.811-67.983-26.262a7.502 7.502 0 0 0-10.315.397c-4.858 4.975-7.393 11.547-7.137 18.505.239 6.455.437 13.343.596 20.401a39.552 39.552 0 0 0-15.201 5.444v-63.924c0-50.39 41.016-91.384 91.43-91.384A7.497 7.497 0 1 0 219.754 0c-58.686 0-106.43 47.721-106.43 106.377v80.251c-2.807 5.618-4.254 11.864-4.174 18.334.243 19.823 15.125 36.282 34.224 39.092-.119 2.43-.255 4.461-.408 6.021a98.94 98.94 0 0 0-.358 8.609c0 27.688 22.461 59.891 66.744 95.7a73.355 73.355 0 0 0 3.167 2.436l1.478 4.008c3.823 10.366 3.525 21.867-.751 31.995L97.95 415.13c-32.284 6.245-55.716 34.634-55.716 67.501v21.873a7.498 7.498 0 0 0 7.5 7.496h27.771c4.142 0 7.5-3.356 7.5-7.496s-3.358-7.496-7.5-7.496H57.234V482.63c0-25.7 18.322-47.898 43.566-52.781l82.783-16.015c6.822 34.489 37.012 59.694 72.916 59.694 18.596 0 36.394-6.897 50.117-19.42 11.777-10.748 19.71-24.844 22.792-40.277l82.79 16.017c25.244 4.884 43.566 27.082 43.566 52.781v14.378H112.408c-4.142 0-7.5 3.356-7.5 7.496s3.358 7.496 7.5 7.496h350.857c4.143 0 7.5-3.356 7.5-7.496V482.63c.001-32.867-23.431-61.255-55.715-67.501zM381.2 186.928c4.738 4.795 7.303 11.147 7.221 17.886-.145 11.791-8.574 21.679-19.676 24.126-.237-13.533-.229-31.151.024-48.873 4.684 1.018 8.978 3.367 12.431 6.861zm-257.051 17.851c-.083-6.739 2.481-13.091 7.22-17.886 3.454-3.494 7.749-5.844 12.434-6.862.253 17.706.262 35.316.024 48.875-11.103-2.446-19.534-12.335-19.678-24.127zm33.459 53.906c0-2.57.101-5.026.293-7.223 1.463-14.908 1.472-68.185.018-107.558-.013-.355-.008-.708.014-1.057 20.171 15.026 44.734 23.469 70.141 23.959a121.238 121.238 0 0 0 57.498-13.278c-6.732 9.572-15.774 17.442-26.426 22.751a7.496 7.496 0 0 0 1.33 13.929c14.344 4.003 29.605 4.193 44.142.548 20.43-5.125 37.876-17.302 49.624-34.033-1.024 37.314-.881 81.343.42 94.581.2 2.349.302 4.834.302 7.384 0 22.619-21.17 51.695-61.236 84.098-10.51 8.541-23.749 13.241-37.324 13.24h-.233a59.37 59.37 0 0 1-37.367-13.282c-40.035-32.375-61.196-61.442-61.196-84.059zm98.533 112.332h.292a74.213 74.213 0 0 0 24.648-4.228c-1.778 11.377-.178 23.152 4.708 33.697-.848 15.676-13.875 28.171-29.767 28.171s-28.919-12.495-29.766-28.171c4.915-10.609 6.505-22.462 4.676-33.902a74.163 74.163 0 0 0 25.209 4.433zm.359 87.518c-28.632 0-52.71-20.073-58.188-47.551l13.901-2.689c4.346 20.182 22.338 35.354 43.809 35.354 21.535 0 39.57-15.262 43.848-35.533l14.82 2.867c-5.469 27.496-29.508 47.552-58.19 47.552zM21.229 64.247a7.493 7.493 0 0 0-2.313 12.824l67.524 56.362a7.497 7.497 0 0 0 8.893.532 7.494 7.494 0 0 0 3.128-8.338l-12.854-45.16 12.581-4.921a7.49 7.49 0 0 0 3.514-11.128L61.125 3.349A7.505 7.505 0 0 0 52.383.427L5.006 17.126a7.496 7.496 0 0 0-2.692 12.485l31.547 30.184zm.268-37.037 30.365-10.702 32.202 48.463-10.267 4.016a7.495 7.495 0 0 0-4.481 9.032l8.059 28.313-38.729-32.326 11.707-4.126a7.494 7.494 0 0 0 2.691-12.485zm53.396 173.947a7.5 7.5 0 0 0 6.814-4.357 7.495 7.495 0 0 0-3.667-9.948l-24.279-11.201 10.437-7.126a7.497 7.497 0 0 0-1.088-12.996l-36.286-16.74c-3.762-1.735-8.217-.094-9.953 3.665s-.094 8.213 3.667 9.948l24.279 11.201-10.437 7.126a7.497 7.497 0 0 0 1.088 12.996l36.286 16.74a7.49 7.49 0 0 0 3.139.692zM511.832 22.616a7.498 7.498 0 0 0-4.838-5.49L459.617.427a7.503 7.503 0 0 0-8.742 2.922l-40.578 61.069a7.494 7.494 0 0 0 3.515 11.128l12.581 4.921-12.854 45.16a7.496 7.496 0 0 0 7.213 9.548 7.497 7.497 0 0 0 4.809-1.742l67.524-56.362a7.494 7.494 0 0 0-2.314-12.824l-12.632-4.452 31.547-30.184a7.495 7.495 0 0 0 2.146-6.995zm-52.876 34.779a7.498 7.498 0 0 0-2.146 6.995 7.498 7.498 0 0 0 4.838 5.49l11.706 4.126-38.729 32.327 8.059-28.313a7.495 7.495 0 0 0-4.48-9.032l-10.268-4.016 32.202-48.463 30.364 10.702zm26.22 82.02-36.286 16.74a7.496 7.496 0 0 0-1.088 12.996l10.436 7.126-24.278 11.2a7.495 7.495 0 0 0-3.667 9.948 7.5 7.5 0 0 0 9.952 3.665l36.287-16.739a7.496 7.496 0 0 0 1.088-12.996l-10.437-7.126 24.278-11.201a7.494 7.494 0 0 0 3.667-9.948 7.499 7.499 0 0 0-9.952-3.665z"></path><path xmlns="http://www.w3.org/2000/svg" d="M212.411 43.334a7.498 7.498 0 0 0-7.5 7.496c0 4.068-3.311 7.377-7.381 7.377-4.142 0-7.5 3.356-7.5 7.496s3.358 7.496 7.5 7.496c12.341 0 22.381-10.035 22.381-22.37a7.498 7.498 0 0 0-7.5-7.495zm45 29.866c4.143 0 7.5-3.356 7.5-7.496s-3.357-7.496-7.5-7.496c-4.07 0-7.381-3.309-7.381-7.377 0-4.14-3.358-7.496-7.5-7.496s-7.5 3.356-7.5 7.496c0 12.334 10.04 22.369 22.381 22.369zM197.53 87.592c-4.142 0-7.5 3.356-7.5 7.496s3.358 7.496 7.5 7.496c4.07 0 7.381 3.309 7.381 7.377 0 4.14 3.358 7.496 7.5 7.496s7.5-3.356 7.5-7.496c0-12.334-10.04-22.369-22.381-22.369zm45 29.866c4.142 0 7.5-3.356 7.5-7.496 0-4.068 3.311-7.377 7.381-7.377 4.143 0 7.5-3.356 7.5-7.496s-3.357-7.496-7.5-7.496c-12.341 0-22.381 10.035-22.381 22.37a7.498 7.498 0 0 0 7.5 7.495z"></path></symbol></defs><use data-v-6ca697d7="" xlink:href="#httpsc0piktochartcomv2externalassetsiconscout2193a67009e2f537fcf473905c579c62552f392bsvg-original" href="#httpsc0piktochartcomv2externalassetsiconscout2193a67009e2f537fcf473905c579c62552f392bsvg-original"></use></svg>