<svg xmlns:xlink="http://www.w3.org/1999/xlink" xmlns="http://www.w3.org/2000/svg" data-v-6ca697d7="" width="55" height="55" style="display: block; color: rgb(0, 0, 0);"><defs><symbol id="httpsc0piktochartcomv2externalassetsiconscout0b452aea882799f5b7372c2a068dc5093c59e7bcsvg-original" viewBox="0 0 55 55" preserveAspectRatio="none"><path xmlns="http://www.w3.org/2000/svg" fill="#F2B883" d="M50.5283775,17.7760315c-4.2463074-6.1837978-17.5517426,1.9273624-21.8741875,5.2792187l1.2865372,3.7202282 c5.8619156-3.039526,12.6573715-7.073452,14.0600853-4.7760735c0.96241,1.5762634-2.9676552,6.8998413-6.9945793,9.3188496 l6.2295074,5.2831707C43.2357407,36.6014252,54.8736877,24.1039734,50.5283775,17.7760315z"></path><path xmlns="http://www.w3.org/2000/svg" fill="#F2B883" d="M28.6541901,23.0552502c0,0-9.9127216,1.4984665-7.7220936,5.3915081 s7.2579346-0.6760311,7.2579346-0.6760311c-1.8880444,3.6467209,0.176506,6.5165386,3.8151798-2.7540703L28.6541901,23.0552502z"></path><path xmlns="http://www.w3.org/2000/svg" fill="#FFCC99" d="M5.373 42.288H12.832V51.5H5.373z"></path><path xmlns="http://www.w3.org/2000/svg" fill="#929398" d="M11.3745117,51.4999924h27.5325928v-8.4815445l7.1374512-8.5681152l-4.6323853-7.4904194 l-3.480957,1.6323242c-3.1539917,1.4790039-6.59375,2.2487793-10.0772705,2.255188l-8.8757324,0.0163574 c-7.8510132,0.0145264-14.473877,5.8488178-15.4782104,13.6353779v1.892395l8.3739014-0.0219116L11.3745117,51.4999924z"></path><path xmlns="http://www.w3.org/2000/svg" fill="#FFCC99" d="M17.1319561,25.0920734l1.5709476,6.706871c0.5884914,2.5124493,3.0967369,4.1005611,5.6091862,3.5120716 s4.0545158-3.125309,3.4660244-5.6377563l-1.5709476-6.706871L17.1319561,25.0920734z"></path><path xmlns="http://www.w3.org/2000/svg" fill="#F2B883" d="M17.1279583,25.0786114l1.5723095,6.7126808c0.0439091,0.1874542,0.0878162,0.3749104,0.16926,0.5535717 c0.4939461,0.0822868,0.970253,0.0892677,1.4753571,0.050148c2.9267063-0.1712532,5.4030151-2.0963421,6.9387112-4.8294067 l-1.0804272-4.6126785L17.1279583,25.0786114z"></path><path xmlns="http://www.w3.org/2000/svg" fill="#FFCC99" d="M8.9851389,14.7234068c0,0,1.5674133,6.4913912,2.517561,9.8181963 c0.7495279,2.6243629,2.4089365,7.4947853,9.0526724,6.101984c6.643734-1.3928032,8.6284084-6.9163322,7.9063873-10.1832047 c-1.0632057-4.8105993-1.9808407-5.3086939-4.159584-10.0870123C16.0871449,0.1940345,14.1773243,15.5570478,8.9851389,14.7234068 z"></path><path xmlns="http://www.w3.org/2000/svg" fill="#424242" d="M28.3014145,17.7221184C26.8134766,7.8595123,24.1712284,1.2145153,17.833704,4.8701997 C14.3166122,2.7513311,8.859581,2.1826758,6.9003735,9.9822006c-0.8343515,3.3215179-0.0867939,9.4657192-2.5898108,10.8717461 c5.8994994,1.9977436,10.093462-2.1043568,13.7271347-8.2098961c0.3522491-0.5918722,1.1300068-0.6645327,1.6428871-0.2048092 c1.0146313,0.9094744,2.2291527,1.1045303,3.6009827,0.7371798c0.4366989-0.1169395,0.8952808,0.1052113,1.1335831,0.4893894 l2.6899014,4.3365316L28.3014145,17.7221184z"></path><path xmlns="http://www.w3.org/2000/svg" fill="#FFCC99" d="M26.3105984,17.8987122c0.2618027-0.5713005,0.1345291-1.2335625,0.1221066-1.8618698 c-0.0124226-0.6283064,0.1783543-1.3654594,0.7637367-1.5940409c0.459547-0.1794453,1.0000305,0.0475416,1.3224087,0.4209805 c0.3223782,0.3734379,0.4706306,0.8634129,0.5885849,1.3424425c0.2121048,0.8614006,0.3530331,1.7700787,0.1386795,2.6309223 c-0.2143536,0.8608418-0.8564816,1.6642475-1.7265854,1.8372173L26.3105984,17.8987122z"></path><path xmlns="http://www.w3.org/2000/svg" fill="#F2B883" d="M27.7527504,15.9917469c0.1632309,0.1475315,0.2782993,0.347662,0.2537251,0.5884838 c-0.0250969,0.2459717-0.2170792,0.3624611-0.2944565,0.5702209c-0.1553802,0.4172421,0.1403828,0.8738136,0.4512157,1.0999298 c0.1086445,0.0790329,0.3400917,0.2408619,0.441824,0.1255684c0.1038742-0.1177254-0.005312-0.416214-0.0678806-0.5487347 c-0.165987-0.3515625-0.224123-0.5960751-0.219244-0.9791069c0.0024948-0.1958313-0.0032654-0.3958054-0.050518-0.5902443 c-0.0472412-0.194397-0.1403522-0.3847713-0.279438-0.5042639c-0.2471066-0.2122974-0.6036797-0.2059288-0.8294716-0.0422068 C27.3330746,15.7298689,27.5723324,15.8286791,27.7527504,15.9917469z"></path><path xmlns="http://www.w3.org/2000/svg" fill="#424242" d="M16.882534 19.0439377c.418169-.5218163 1.0093899-.8889389 1.6814194-1.0641441.3400345-.0588741.6990643-.0772572 1.0364742.0131207.3390388.0837269.6391735.2676201.877327.4998703-.6411133-.1838169-1.2353764-.2575397-1.8232555-.0995483C18.0570602 18.5015678 17.5044899 18.8041763 16.882534 19.0439377zM17.4805489 20.5044422c-.0264492-.6119747.5534954-1.0887928 1.1127548-1.2355194.5801735-.1016769 1.1759205-.0245972 1.6190891.3598442-.5621815.1354675-1.0330696.1226692-1.4682922.2625046C18.2922916 19.9712048 17.9396515 20.1569767 17.4805489 20.5044422zM11.2523651 21.4981308c.4181681-.5218143 1.0093889-.888937 1.6814194-1.0641422.3400345-.058876.6990633-.0772572 1.0364733.0131207.3390398.0837269.6391745.2676201.877327.4998703-.6411133-.1838169-1.2353764-.2575397-1.8232546-.0995483C12.4268904 20.955761 11.87432 21.2583714 11.2523651 21.4981308zM11.850379 22.9586372c-.0264492-.6119747.5534964-1.0887947 1.1127548-1.2355213.5801735-.101675 1.1759214-.0245953 1.6190901.3598442-.5621824.1354694-1.0330706.1226711-1.4682941.2625065C12.6621208 22.4253998 12.3094816 22.6111698 11.850379 22.9586372z"></path><path xmlns="http://www.w3.org/2000/svg" fill="#F2B883" d="M16.0658607 24.9442196c.9864197-.3404865 1.6388454-.6670628 2.5135212-1.2368832C18.3838634 24.7780113 17.0329132 25.4402981 16.0658607 24.9442196zM21.1812153 26.5367947c-.9091759.221529-1.5796108.5298424-2.3315964.876091-.7535725.3165321-1.5014095.6927567-2.4505558.82304.434166-.9013977 1.1175957-1.4987831 1.9352245-1.8908291C19.1428776 25.9947071 20.2337933 25.864563 21.1812153 26.5367947z"></path><path xmlns="http://www.w3.org/2000/svg" fill="#FF6666" d="M32.147 10.948L32.979 15.491 30.381 9.914 33.366 9.553 32.561 5.282 35.009 10.571zM36.405 13.077L35.091 16.207 35.734 11.731 37.716 12.709 38.937 9.757 38.318 13.996z"></path></symbol></defs><use data-v-6ca697d7="" xlink:href="#httpsc0piktochartcomv2externalassetsiconscout0b452aea882799f5b7372c2a068dc5093c59e7bcsvg-original" href="#httpsc0piktochartcomv2externalassetsiconscout0b452aea882799f5b7372c2a068dc5093c59e7bcsvg-original"></use></svg>