<svg xmlns:xlink="http://www.w3.org/1999/xlink" xmlns="http://www.w3.org/2000/svg" data-v-6ca697d7="" width="128" height="128" style="display: block; color: rgb(0, 0, 0);"><defs><symbol id="httpsc0piktochartcomv2externalassetsiconscout741067678a293a54de65d3d0b0e2bf1ac3cab5e0svg-original" viewBox="0 0 128 128" preserveAspectRatio="none"><path xmlns="http://www.w3.org/2000/svg" fill="#2D4356" d="M103.37 28.26C95.76 16.06 85.08 10 75.72 10A18.869 18.869 0 0 0 64 13.89 18.869 18.869 0 0 0 52.28 10c-9.36 0-20.04 6.06-27.65 18.26A165.704 165.704 0 0 1 0 58.81C10.9 98.27 37.45 118 64 118s53.1-19.73 64-59.19a165.704 165.704 0 0 1-24.63-30.55Zm-75.35 2.12C34.33 20.28 43.62 14 52.28 14a14.98 14.98 0 0 1 9.27 3.05 3.993 3.993 0 0 0 4.9 0A14.98 14.98 0 0 1 75.72 14c8.66 0 17.95 6.28 24.26 16.38a173.408 173.408 0 0 0 21.33 27.4 4.17 4.17 0 0 0-1.39-.43c-3.04-.36-8.13-2.47-15.09-10.43C91.97 32.21 78.24 24.75 64 24.75s-27.97 7.46-40.83 22.17c-6.96 7.96-12.05 10.07-15.09 10.43a4.17 4.17 0 0 0-1.39.43 173.408 173.408 0 0 0 21.33-27.4Zm70.44 44.89-.23.08a7.671 7.671 0 0 0-3.46 1.67c-.15-.15-.31-.3-.48-.44a6.744 6.744 0 0 0-5.49-1.37l-2.29.44a12.016 12.016 0 0 0-6.3 3.28 6.479 6.479 0 0 0-5.42-2.82h-6.53a6.624 6.624 0 0 0-4.35 1.6 6.604 6.604 0 0 0-4.35-1.6h-6.52a6.44 6.44 0 0 0-5.34 2.7 12.116 12.116 0 0 0-6.2-3.16l-2.31-.44a6.722 6.722 0 0 0-5.48 1.37c-.17.14-.33.29-.48.44a7.671 7.671 0 0 0-3.46-1.67l-.22-.07a7.067 7.067 0 0 0-6.31 1c-.07.05-.13.12-.2.17l-.36-.33C28.61 66.91 43.96 61 64 61s35.39 5.91 41.32 15.12l-.36.33c-.07-.05-.13-.12-.2-.17a7.09 7.09 0 0 0-6.3-1.01Zm3.32 3.91c-1.7 1.41-3.5 2.84-5.41 4.25v-1.39a3.08 3.08 0 0 1 2.72-2.79 1.903 1.903 0 0 0 .23-.05l.34-.11a3.092 3.092 0 0 1 .95-.15 3.058 3.058 0 0 1 1.17.24Zm-9.41 1.7v5.39c-2.13 1.45-4.37 2.87-6.71 4.22a43.31 43.31 0 0 1-4.52 2.26v-6.68c0-3.1 2.57-5.83 6.11-6.49l2.3-.44a3.07 3.07 0 0 1 .53-.05 2.61 2.61 0 0 1 1.66.57 1.585 1.585 0 0 1 .63 1.22Zm-15.23 1.08v12.28a43.915 43.915 0 0 1-11.23 1.98V81.96a2.18 2.18 0 0 1 2.35-1.85h6.53a2.18 2.18 0 0 1 2.35 1.85Zm-15.23 0v14.25a43.055 43.055 0 0 1-11.05-1.97l-.18-12.28a1.546 1.546 0 0 1 .08-.47 2.346 2.346 0 0 1 2.28-1.38h6.52a2.173 2.173 0 0 1 2.35 1.85Zm-15.23 2.78v7.93a44 44 0 0 1-4.34-2.18c-2.34-1.35-4.58-2.77-6.71-4.22v-5.39a1.585 1.585 0 0 1 .63-1.22 2.68 2.68 0 0 1 2.18-.52l2.32.44a7.99 7.99 0 0 1 4.6 2.58 6.113 6.113 0 0 1 1.32 2.58Zm-15.05-2.7v1.39q-2.865-2.13-5.42-4.26a3.202 3.202 0 0 1 2.14-.08l.33.11a1.903 1.903 0 0 0 .23.05 3.08 3.08 0 0 1 2.72 2.79ZM64 57c-21.01 0-37.3 6.37-44.28 16.41A111.374 111.374 0 0 1 8.56 61.32a18.347 18.347 0 0 0 7.2-2.64A41.78 41.78 0 0 0 25 50.86a7.19 7.19 0 0 0 4.54.09l.23-.08a7.671 7.671 0 0 0 3.46-1.67c.15.15.31.3.48.44a6.744 6.744 0 0 0 5.49 1.37l2.29-.44a12.016 12.016 0 0 0 6.3-3.28 6.479 6.479 0 0 0 5.42 2.82h6.53a6.624 6.624 0 0 0 4.35-1.6 6.604 6.604 0 0 0 4.35 1.6h6.52a6.44 6.44 0 0 0 5.34-2.7 12.116 12.116 0 0 0 6.2 3.16l2.31.44a6.686 6.686 0 0 0 5.48-1.37c.17-.14.33-.29.48-.44a7.671 7.671 0 0 0 3.46 1.67l.22.08a7.22 7.22 0 0 0 4.55-.09c6.81 7.4 12.34 9.97 16.44 10.46 0 0-1 1.32-2.9 3.5-1.9 2.17-4.68 5.2-8.26 8.59C101.3 63.37 85.01 57 64 57Zm-35.61-9.88a83.57 83.57 0 0 1 3.24-3.27v.33a3.08 3.08 0 0 1-2.72 2.79 1.903 1.903 0 0 0-.23.05Zm7.24-1.78v-5.08a56.606 56.606 0 0 1 11.23-7.36v7.25c0 3.1-2.57 5.83-6.11 6.49l-2.3.44a2.323 2.323 0 0 1-.53.05 2.61 2.61 0 0 1-1.66-.57 1.585 1.585 0 0 1-.63-1.22Zm15.23-1.08V31.2a37.83 37.83 0 0 1 11.23-2.39v15.45a2.18 2.18 0 0 1-2.35 1.85h-6.53a2.18 2.18 0 0 1-2.35-1.85Zm26.46-2.3v2.3a1.546 1.546 0 0 1-.08.47 2.346 2.346 0 0 1-2.28 1.38h-6.52a2.173 2.173 0 0 1-2.35-1.85V28.82a38.271 38.271 0 0 1 11.05 2.38v8.95a9.107 9.107 0 0 0 .18 1.81Zm4-.48v-8.49a56.905 56.905 0 0 1 11.05 7.27v5.08a1.585 1.585 0 0 1-.63 1.22 2.654 2.654 0 0 1-2.18.52l-2.32-.44a7.99 7.99 0 0 1-4.6-2.58 6.056 6.056 0 0 1-1.32-2.58Zm15.05 2.7v-.33a83.57 83.57 0 0 1 3.24 3.27l-.29-.1a1.903 1.903 0 0 0-.23-.05 3.08 3.08 0 0 1-2.72-2.79Zm2.87 56.01C88.87 109.22 76.69 114 64 114s-24.87-4.78-35.24-13.81c-9.9-8.63-17.72-20.89-22.83-35.73a129.885 129.885 0 0 0 34.4 29.5 47.485 47.485 0 0 0 47.34 0 130.237 130.237 0 0 0 34.4-29.5c-5.11 14.84-12.93 27.1-22.83 35.73Z"></path><path xmlns="http://www.w3.org/2000/svg" fill="#FFFFFF" d="M31.63 43.85v.33a3.08 3.08 0 0 1-2.72 2.79 1.903 1.903 0 0 0-.23.05l-.29.1a83.57 83.57 0 0 1 3.24-3.27zM46.86 32.9v7.25c0 3.1-2.57 5.83-6.11 6.49l-2.3.44a2.323 2.323 0 0 1-.53.05 2.61 2.61 0 0 1-1.66-.57 1.585 1.585 0 0 1-.63-1.22v-5.08a56.606 56.606 0 0 1 11.23-7.36zm15.23-4.09v15.45a2.18 2.18 0 0 1-2.35 1.85h-6.53a2.18 2.18 0 0 1-2.35-1.85V31.2a37.83 37.83 0 0 1 11.23-2.39zm15.23 13.15v2.3a1.546 1.546 0 0 1-.08.47 2.346 2.346 0 0 1-2.28 1.38h-6.52a2.173 2.173 0 0 1-2.35-1.85V28.82a38.271 38.271 0 0 1 11.05 2.38v8.95a9.107 9.107 0 0 0 .18 1.81zm15.05-1.7v5.08a1.585 1.585 0 0 1-.63 1.22 2.654 2.654 0 0 1-2.18.52l-2.32-.44a7.99 7.99 0 0 1-4.6-2.58 6.056 6.056 0 0 1-1.32-2.58v-8.49a56.905 56.905 0 0 1 11.05 7.27zm7.24 6.86-.29-.1a1.903 1.903 0 0 0-.23-.05 3.08 3.08 0 0 1-2.72-2.79v-.33a83.57 83.57 0 0 1 3.24 3.27zm2.17 32.06c-1.7 1.41-3.5 2.84-5.41 4.25v-1.39a3.08 3.08 0 0 1 2.72-2.79 1.903 1.903 0 0 0 .23-.05l.34-.11a3.092 3.092 0 0 1 .95-.15 3.058 3.058 0 0 1 1.17.24zm-9.41 1.7v5.39c-2.13 1.45-4.37 2.87-6.71 4.22a43.31 43.31 0 0 1-4.52 2.26v-6.68c0-3.1 2.57-5.83 6.11-6.49l2.3-.44a3.07 3.07 0 0 1 .53-.05 2.61 2.61 0 0 1 1.66.57 1.585 1.585 0 0 1 .63 1.22zm-15.23 1.08v12.28a43.915 43.915 0 0 1-11.23 1.98V81.96a2.18 2.18 0 0 1 2.35-1.85h6.53a2.18 2.18 0 0 1 2.35 1.85zm-15.23 0v14.25a43.055 43.055 0 0 1-11.05-1.97l-.18-12.28a1.546 1.546 0 0 1 .08-.47 2.346 2.346 0 0 1 2.28-1.38h6.52a2.173 2.173 0 0 1 2.35 1.85zm-15.23 2.78v7.93a44 44 0 0 1-4.34-2.18c-2.34-1.35-4.58-2.77-6.71-4.22v-5.39a1.585 1.585 0 0 1 .63-1.22 2.68 2.68 0 0 1 2.18-.52l2.32.44a7.99 7.99 0 0 1 4.6 2.58 6.113 6.113 0 0 1 1.32 2.58zm-15.05-2.7v1.39q-2.865-2.13-5.42-4.26a3.202 3.202 0 0 1 2.14-.08l.33.11a1.903 1.903 0 0 0 .23.05 3.08 3.08 0 0 1 2.72 2.79z"></path><path xmlns="http://www.w3.org/2000/svg" fill="#E1EBF4" d="M119.44 61.32s-1 1.32-2.9 3.5c-1.9 2.17-4.68 5.2-8.26 8.59C101.3 63.37 85.01 57 64 57s-37.3 6.37-44.28 16.41A111.374 111.374 0 0 1 8.56 61.32a18.347 18.347 0 0 0 7.2-2.64A41.78 41.78 0 0 0 25 50.86a7.19 7.19 0 0 0 4.54.09l.23-.08a7.671 7.671 0 0 0 3.46-1.67c.15.15.31.3.48.44a6.744 6.744 0 0 0 5.49 1.37l2.29-.44a12.016 12.016 0 0 0 6.3-3.28 6.479 6.479 0 0 0 5.42 2.82h6.53a6.624 6.624 0 0 0 4.35-1.6 6.604 6.604 0 0 0 4.35 1.6h6.52a6.44 6.44 0 0 0 5.34-2.7 12.116 12.116 0 0 0 6.2 3.16l2.31.44a6.686 6.686 0 0 0 5.48-1.37c.17-.14.33-.29.48-.44a7.671 7.671 0 0 0 3.46 1.67l.22.08a7.22 7.22 0 0 0 4.55-.09c6.81 7.4 12.34 9.97 16.44 10.46Z"></path><path xmlns="http://www.w3.org/2000/svg" fill="#FEACA4" d="m105.32 76.12-.36.33c-.07-.05-.13-.12-.2-.17a7.09 7.09 0 0 0-6.3-1.01l-.23.08a7.671 7.671 0 0 0-3.46 1.67c-.15-.15-.31-.3-.48-.44a6.744 6.744 0 0 0-5.49-1.37l-2.29.44a12.016 12.016 0 0 0-6.3 3.28 6.479 6.479 0 0 0-5.42-2.82h-6.53a6.624 6.624 0 0 0-4.35 1.6 6.604 6.604 0 0 0-4.35-1.6h-6.52a6.44 6.44 0 0 0-5.34 2.7 12.116 12.116 0 0 0-6.2-3.16l-2.31-.44a6.722 6.722 0 0 0-5.48 1.37c-.17.14-.33.29-.48.44a7.671 7.671 0 0 0-3.46-1.67l-.22-.07a7.067 7.067 0 0 0-6.31 1c-.07.05-.13.12-.2.17l-.36-.33C28.61 66.91 43.96 61 64 61s35.39 5.91 41.32 15.12Z"></path><path xmlns="http://www.w3.org/2000/svg" fill="#FC785E" d="M121.31 57.78a4.17 4.17 0 0 0-1.39-.43c-3.04-.36-8.13-2.47-15.09-10.43C91.97 32.21 78.24 24.75 64 24.75s-27.97 7.46-40.83 22.17c-6.96 7.96-12.05 10.07-15.09 10.43a4.17 4.17 0 0 0-1.39.43 173.408 173.408 0 0 0 21.33-27.4C34.33 20.28 43.62 14 52.28 14a14.98 14.98 0 0 1 9.27 3.05 3.993 3.993 0 0 0 4.9 0A14.98 14.98 0 0 1 75.72 14c8.66 0 17.95 6.28 24.26 16.38a173.408 173.408 0 0 0 21.33 27.4zm.76 6.68c-5.11 14.84-12.93 27.1-22.83 35.73C88.87 109.22 76.69 114 64 114s-24.87-4.78-35.24-13.81c-9.9-8.63-17.72-20.89-22.83-35.73a129.885 129.885 0 0 0 34.4 29.5 47.485 47.485 0 0 0 47.34 0 130.237 130.237 0 0 0 34.4-29.5z"></path><path xmlns="http://www.w3.org/2000/svg" fill="#676868" d="M77.32 42.26v2a1.546 1.546 0 0 1-.08.47 2.346 2.346 0 0 1-2.28 1.38h-6.52a2.173 2.173 0 0 1-2.35-1.85v-2a2.173 2.173 0 0 0 2.35 1.85h6.52a2.346 2.346 0 0 0 2.28-1.38 1.546 1.546 0 0 0 .08-.47Z" opacity=".2"></path><path xmlns="http://www.w3.org/2000/svg" fill="#F9DBD7" d="M121.31 57.78a4.17 4.17 0 0 0-1.39-.43 9.553 9.553 0 0 1-1.06-.19 173.586 173.586 0 0 1-18.88-24.78C93.67 22.28 84.38 16 75.72 16a14.98 14.98 0 0 0-9.27 3.05 3.993 3.993 0 0 1-4.9 0A14.98 14.98 0 0 0 52.28 16c-8.66 0-17.95 6.28-24.26 16.38A173.586 173.586 0 0 1 9.14 57.16a9.553 9.553 0 0 1-1.06.19 4.17 4.17 0 0 0-1.39.43 173.408 173.408 0 0 0 21.33-27.4C34.33 20.28 43.62 14 52.28 14a14.98 14.98 0 0 1 9.27 3.05 3.993 3.993 0 0 0 4.9 0A14.98 14.98 0 0 1 75.72 14c8.66 0 17.95 6.28 24.26 16.38a173.408 173.408 0 0 0 21.33 27.4Z" opacity=".3"></path><path xmlns="http://www.w3.org/2000/svg" fill="#676868" d="M92.37 43.34v2a1.585 1.585 0 0 1-.63 1.22 2.654 2.654 0 0 1-2.18.52l-2.32-.44a7.99 7.99 0 0 1-4.6-2.58 6.056 6.056 0 0 1-1.32-2.58v-2a6.056 6.056 0 0 0 1.32 2.58 7.99 7.99 0 0 0 4.6 2.58l2.32.44a2.654 2.654 0 0 0 2.18-.52 1.585 1.585 0 0 0 .63-1.22zm-30.28-1.08v2a2.18 2.18 0 0 1-2.35 1.85h-6.53a2.18 2.18 0 0 1-2.35-1.85v-2a2.18 2.18 0 0 0 2.35 1.85h6.53a2.18 2.18 0 0 0 2.35-1.85zm-15.23-4.11v2c0 3.1-2.57 5.83-6.11 6.49l-2.3.44a2.323 2.323 0 0 1-.53.05 2.61 2.61 0 0 1-1.66-.57 1.585 1.585 0 0 1-.63-1.22v-2a1.585 1.585 0 0 0 .63 1.22 2.61 2.61 0 0 0 1.66.57 2.323 2.323 0 0 0 .53-.05l2.3-.44c3.54-.66 6.11-3.39 6.11-6.49z" opacity=".2"></path><path xmlns="http://www.w3.org/2000/svg" fill="#FFDEDC" d="m105.32 76.12-.36.33c-.07-.05-.13-.12-.2-.17a6.956 6.956 0 0 0-1.51-.83C96.26 67.78 82.03 63 64 63c-18.02 0-32.25 4.78-39.24 12.44a6.661 6.661 0 0 0-1.52.84c-.07.05-.13.12-.2.17l-.36-.33C28.61 66.91 43.96 61 64 61s35.39 5.91 41.32 15.12Z" opacity=".5"></path><path xmlns="http://www.w3.org/2000/svg" fill="#676868" d="M101.78 79.18c-1.7 1.41-3.5 2.84-5.41 4.25v-1.39a2.265 2.265 0 0 1 .11-.69c.96-.71 1.88-1.42 2.78-2.14a.127.127 0 0 0 .06-.01l.34-.11a3.092 3.092 0 0 1 .95-.15 3.058 3.058 0 0 1 1.17.24zm-9.41 5.09v2c-2.13 1.45-4.37 2.87-6.71 4.22a43.31 43.31 0 0 1-4.52 2.26v-2a43.31 43.31 0 0 0 4.52-2.26c2.34-1.35 4.58-2.77 6.71-4.22zm-15.23 7.97v2a43.915 43.915 0 0 1-11.23 1.98v-2a43.915 43.915 0 0 0 11.23-1.98zm-45.51-10.2v1.39q-2.865-2.13-5.42-4.26a3.202 3.202 0 0 1 2.14-.08l.33.11c.02 0 .03.01.05.01.9.71 1.83 1.43 2.79 2.13a2.33 2.33 0 0 1 .11.7zm15.05 8.63v2a44 44 0 0 1-4.34-2.18c-2.34-1.35-4.58-2.77-6.71-4.22v-2c2.13 1.45 4.37 2.87 6.71 4.22a44 44 0 0 0 4.34 2.18zm15.23 3.54v2a43.055 43.055 0 0 1-11.05-1.97l-.03-2.01.03.01a43.055 43.055 0 0 0 11.05 1.97z" opacity=".2"></path><path xmlns="http://www.w3.org/2000/svg" fill="#A54B3F" d="M122.07 64.46c-5.11 14.84-12.93 27.1-22.83 35.73C88.87 109.22 76.69 114 64 114s-24.87-4.78-35.24-13.81c-9.9-8.63-17.72-20.89-22.83-35.73.32.4.76.95 1.33 1.63 5.09 13.21 12.42 24.18 21.5 32.1C39.13 107.22 51.31 112 64 112s24.87-4.78 35.24-13.81c9.09-7.92 16.42-18.9 21.51-32.13.57-.67 1.01-1.21 1.32-1.6Z" opacity=".5"></path></symbol></defs><use data-v-6ca697d7="" xlink:href="#httpsc0piktochartcomv2externalassetsiconscout741067678a293a54de65d3d0b0e2bf1ac3cab5e0svg-original" href="#httpsc0piktochartcomv2externalassetsiconscout741067678a293a54de65d3d0b0e2bf1ac3cab5e0svg-original"></use></svg>