<svg xmlns:xlink="http://www.w3.org/1999/xlink" xmlns="http://www.w3.org/2000/svg" data-v-6ca697d7="" width="53" height="53" style="display: block; color: rgb(0, 0, 0);"><defs><symbol id="httpsc0piktochartcomv2externalassetsiconscoutc30638551cf0811cc63eaeacaa7758c99dd0d5c3svg-original" viewBox="0 0 53 53" preserveAspectRatio="none"><path xmlns="http://www.w3.org/2000/svg" fill="#FFCCCC" d="M43.904 39.495a76.29 76.29 0 0 1-.556 9.267c-.123.998-.986 1.738-1.992 1.738H29.6a2.004 2.004 0 0 1-1.974-1.657l-1.12-6.37-1.13 6.373a2.004 2.004 0 0 1-1.973 1.654H11.636c-1.008 0-1.872-.743-1.992-1.744a77.904 77.904 0 0 1-.548-9.26c0-6.854.883-13.273 2.425-18.769 1.12-3.967 1.16-8.145.053-12.112a55.347 55.347 0 0 1-.799-3.152A2.434 2.434 0 0 1 13.144 2.5h26.7a2.433 2.433 0 0 1 2.368 2.965 60.859 60.859 0 0 1-.786 3.124c-1.107 3.967-1.068 8.145.053 12.112 1.542 5.509 2.425 11.927 2.425 18.794z"></path><path xmlns="http://www.w3.org/2000/svg" fill="#F2BBBB" d="M33.914 32.26c.328-1.753 1.013-3.32 1.782-4.844.806-1.504 1.698-2.963 2.95-4.235-.325 1.755-1.01 3.322-1.782 4.844-.808 1.503-1.7 2.962-2.95 4.235zm-14.828 0c-1.25-1.273-2.142-2.732-2.95-4.235-.772-1.522-1.457-3.09-1.782-4.844 1.252 1.272 2.144 2.73 2.95 4.235.769 1.524 1.454 3.09 1.782 4.844z"></path><path xmlns="http://www.w3.org/2000/svg" fill="#FF6666" d="M43.904 39.495a76.29 76.29 0 0 1-.556 9.267c-.123.998-.986 1.738-1.992 1.738H29.6a2.004 2.004 0 0 1-1.974-1.657l-1.12-6.37-1.13 6.373a2.004 2.004 0 0 1-1.973 1.654H11.636c-1.008 0-1.872-.743-1.992-1.744a77.904 77.904 0 0 1-.548-9.26c0-4.113.33-8.054.91-11.744h32.988c.58 3.69.91 7.631.91 11.743z"></path><path xmlns="http://www.w3.org/2000/svg" fill="#D3DCFD" d="M43.377 30.528c-.112-.941-.24-1.869-.385-2.78H10.01a71.434 71.434 0 0 0-.386 2.78h33.754z"></path><path xmlns="http://www.w3.org/2000/svg" fill="#F2BBBB" d="M17.368 5.175c.506.57.971 1.149 1.407 1.732.445.57.87 1.17 1.332 1.625.25.253.35.305.693.369.315.072.672.086 1.028.125.717.045 1.458.102 2.214.191a8.137 8.137 0 0 1-2.195.58c-.382.053-.766.06-1.183.03a2.095 2.095 0 0 1-.684-.176 2.656 2.656 0 0 1-.564-.413c-.573-.602-.963-1.247-1.296-1.928a9.168 9.168 0 0 1-.752-2.135zm0 4.824c.506.57.971 1.149 1.407 1.732.445.57.87 1.17 1.332 1.626.25.253.35.305.693.368.315.072.672.086 1.028.125.717.045 1.458.102 2.214.192a8.137 8.137 0 0 1-2.195.58c-.382.052-.766.059-1.183.03a2.095 2.095 0 0 1-.684-.177 2.656 2.656 0 0 1-.564-.412c-.573-.602-.963-1.248-1.296-1.93A9.168 9.168 0 0 1 17.368 10zm0 4.824c.506.57.971 1.15 1.407 1.732.445.571.87 1.17 1.332 1.626.25.253.35.305.693.368.315.072.672.087 1.028.125.717.045 1.458.102 2.214.192a8.137 8.137 0 0 1-2.195.58c-.382.052-.766.06-1.183.03a2.095 2.095 0 0 1-.684-.176 2.656 2.656 0 0 1-.564-.413c-.573-.602-.963-1.248-1.296-1.929a9.167 9.167 0 0 1-.752-2.135zm18.264-9.648a9.167 9.167 0 0 1-.752 2.135c-.333.681-.723 1.326-1.296 1.928-.156.145-.334.29-.564.413-.255.11-.48.16-.684.176-.417.03-.801.023-1.183-.03a8.137 8.137 0 0 1-2.195-.58c.756-.09 1.497-.146 2.214-.191.356-.039.713-.053 1.028-.125.344-.064.444-.116.693-.369.461-.456.887-1.054 1.332-1.625.436-.583.901-1.162 1.407-1.732zm0 4.824a9.167 9.167 0 0 1-.752 2.135c-.333.681-.723 1.327-1.296 1.929-.156.144-.334.29-.564.412-.255.11-.48.161-.684.176-.417.03-.801.023-1.183-.03a8.137 8.137 0 0 1-2.195-.58c.756-.089 1.497-.146 2.214-.191.356-.039.713-.053 1.028-.125.344-.063.444-.115.693-.368.461-.456.887-1.055 1.332-1.626.436-.583.901-1.162 1.407-1.732zm0 4.824a9.167 9.167 0 0 1-.752 2.135c-.333.681-.723 1.327-1.296 1.929-.156.144-.334.29-.564.413-.255.11-.48.16-.684.175-.417.03-.801.023-1.183-.03a8.137 8.137 0 0 1-2.195-.58c.756-.089 1.497-.146 2.214-.19.356-.04.713-.054 1.028-.126.344-.063.444-.115.693-.368.461-.456.887-1.055 1.332-1.626.436-.583.901-1.161 1.407-1.732zm-8.084 8.738c0 .58-.475 1.054-1.055 1.054s-1.04-.474-1.04-1.054.46-1.054 1.04-1.054 1.055.474 1.055 1.054zM26.69 5.175c.389 2.24.478 4.481.494 6.722-.014 2.24-.103 4.481-.494 6.722-.39-2.24-.48-4.482-.494-6.722.016-2.24.106-4.482.494-6.722z"></path></symbol></defs><use data-v-6ca697d7="" xlink:href="#httpsc0piktochartcomv2externalassetsiconscoutc30638551cf0811cc63eaeacaa7758c99dd0d5c3svg-original" href="#httpsc0piktochartcomv2externalassetsiconscoutc30638551cf0811cc63eaeacaa7758c99dd0d5c3svg-original"></use></svg>