<svg xmlns:xlink="http://www.w3.org/1999/xlink" xmlns="http://www.w3.org/2000/svg" data-v-6ca697d7="" width="64" height="64" style="display: block; color: rgb(0, 0, 0);"><defs><symbol id="httpsc0piktochartcomv2externalassetsiconscoutc22eca779470b5639174051c99a9cff9d0329de1svg-original" viewBox="0 0 64 64" preserveAspectRatio="none"><path xmlns="http://www.w3.org/2000/svg" fill="#FFD5C0" d="M15 33.001L13 63.001 5 63.001 3.23 36.431 3 33.001 15 33.001z"></path><path xmlns="http://www.w3.org/2000/svg" fill="#F2C8B6" d="M15 33.001L13 63.001 9.15 63.001 9.06 38.431 9.05 36.431 3.23 36.431 3 33.001 15 33.001z"></path><path xmlns="http://www.w3.org/2000/svg" fill="#FC8E52" d="M42.99,7.321l-.03.2A9.329,9.329,0,0,1,41.5,11.1a11.27,11.27,0,0,1-8.71,4.87l-.12.01c-.29.02-.64.02-.67.02V13c3.99,0,7.43-2.56,8.04-6Z"></path><path xmlns="http://www.w3.org/2000/svg" fill="#FAB06B" d="M63,35H56.6V63H32V16c.03,0,.38,0,.67-.02l.12-.01A11.27,11.27,0,0,0,41.5,11.1a9.329,9.329,0,0,0,1.46-3.58l.03-.2,9.39,1.02a12.229,12.229,0,0,1,4.84,1.87C62.4,13.651,62.93,34.021,63,35Z"></path><path xmlns="http://www.w3.org/2000/svg" fill="#FEDC96" d="M21.67,9.571l-7.05.77a12.229,12.229,0,0,0-4.84,1.87C5.48,15.071,4.38,29.591,4.1,35H1c.07-.98.6-21.35,5.78-24.79a12.229,12.229,0,0,1,4.84-1.87l9.39-1.02.03.2a9.033,9.033,0,0,0,.38,1.42c.03.1.07.19.11.29A3.454,3.454,0,0,0,21.67,9.571Z"></path><path xmlns="http://www.w3.org/2000/svg" fill="#FEBD73" d="M32,16V63H12.16l-.1-26-.01-2H4.1c.28-5.41,1.38-19.93,5.68-22.79a12.229,12.229,0,0,1,4.84-1.87l7.05-.77a9.867,9.867,0,0,0,.89,1.62,11.294,11.294,0,0,0,8.65,4.78l.08.01C31.59,16,31.97,16,32,16Z"></path><path xmlns="http://www.w3.org/2000/svg" fill="#FFD5C0" d="M32,4.491V13c-.022,0-.365,0-.571-.02h-.023c-.091-.02-.206-.03-.3-.05a1.013,1.013,0,0,1-.229-.04,6.382,6.382,0,0,1-4.182-2.38c-.149-.17-.275-.36-.412-.53a9.552,9.552,0,0,1-.743-1.25c-.08-.16-.148-.33-.217-.48.114-.47.263-1.03.4-1.65.217-.92.446-1.99.64-3.06a11.7,11.7,0,0,0,2.846.8,11.589,11.589,0,0,0,1.863.15Z"></path><path xmlns="http://www.w3.org/2000/svg" fill="#FFD5C0" d="M32,1v3.49h-.93a11.663,11.663,0,0,1-1.86-.15,11.586,11.586,0,0,1-2.84-.8h-.01c.14-.79.28-1.63.4-2.54Z"></path><path xmlns="http://www.w3.org/2000/svg" fill="#FFE0D2" d="M26.366,3.541c-.194,1.07-.423,2.14-.64,3.06-.137.62-.286,1.18-.4,1.65-.057-.14-.114-.27-.16-.39-.08-.22-.16-.43-.217-.62-.08-.26-.149-.49-.206-.71-.011-.08-.034-.17-.045-.24-.058-.25-.1-.44-.126-.59.046-.36.1-.73.16-1.09l.24-1.74c.023.01.034.02.057.03A10.037,10.037,0,0,0,26.366,3.541Z"></path><path xmlns="http://www.w3.org/2000/svg" fill="#F4CFC3" d="M26.76,1c-.12.91-.26,1.75-.4,2.54a9.558,9.558,0,0,1-1.33-.64l-.06-.03c.09-.63.17-1.25.25-1.87Z"></path><path xmlns="http://www.w3.org/2000/svg" fill="#F2C8B6" d="M32,1v3.49h-.93a11.663,11.663,0,0,1-1.86-.15,11.586,11.586,0,0,1-2.84-.8h-.01c.14-.79.28-1.63.4-2.54Z"></path><path xmlns="http://www.w3.org/2000/svg" fill="#F9CEBB" d="M38.675,8.251c-.069.15-.137.32-.217.48a9.664,9.664,0,0,1-.743,1.25c-.137.17-.263.36-.412.53a6.381,6.381,0,0,1-4.183,2.38,1.014,1.014,0,0,1-.228.04c-.092.02-.206.03-.3.05h-.023c-.206.02-.549.02-.572.02V4.491h.926a11.589,11.589,0,0,0,1.863-.15,11.7,11.7,0,0,0,2.846-.8c.194,1.07.423,2.14.64,3.06C38.412,7.221,38.56,7.781,38.675,8.251Z"></path><path xmlns="http://www.w3.org/2000/svg" fill="#FFD5C0" d="M37.64,3.541h-.01a11.71,11.71,0,0,1-2.84.8,11.663,11.663,0,0,1-1.86.15H32V1h5.24C37.36,1.911,37.5,2.751,37.64,3.541Z"></path><path xmlns="http://www.w3.org/2000/svg" fill="#F2C8B6" d="M39.429,5.7c-.023.15-.069.34-.126.59-.011.07-.034.16-.045.24-.058.22-.126.45-.206.71-.057.19-.137.4-.217.62-.046.12-.1.25-.16.39-.115-.47-.263-1.03-.4-1.65-.217-.92-.446-1.99-.64-3.06A9.9,9.9,0,0,0,38.96,2.9c.023,0,.046-.02.069-.03.08.6.171,1.2.251,1.8C39.338,5.011,39.383,5.361,39.429,5.7Z"></path><path xmlns="http://www.w3.org/2000/svg" fill="#FFD5C0" d="M32,4.491V13c-.022,0-.365,0-.571-.02h-.023c-.091-.02-.206-.03-.3-.05a1.013,1.013,0,0,1-.229-.04,6.382,6.382,0,0,1-4.182-2.38c-.149-.17-.275-.36-.412-.53a9.552,9.552,0,0,1-.743-1.25c-.08-.16-.148-.33-.217-.48.114-.47.263-1.03.4-1.65.217-.92.446-1.99.64-3.06a11.7,11.7,0,0,0,2.846.8,11.589,11.589,0,0,0,1.863.15Z"></path><path xmlns="http://www.w3.org/2000/svg" fill="#FFE0D2" d="M26.366,3.541c-.194,1.07-.423,2.14-.64,3.06-.137.62-.286,1.18-.4,1.65-.057-.14-.114-.27-.16-.39-.08-.22-.16-.43-.217-.62-.08-.26-.149-.49-.206-.71-.011-.08-.034-.17-.045-.24-.058-.25-.1-.44-.126-.59.046-.36.1-.73.16-1.09l.24-1.74c.023.01.034.02.057.03A10.037,10.037,0,0,0,26.366,3.541Z"></path><path xmlns="http://www.w3.org/2000/svg" fill="#F9CEBB" d="M38.675,8.251c-.069.15-.137.32-.217.48a9.664,9.664,0,0,1-.743,1.25c-.137.17-.263.36-.412.53a6.381,6.381,0,0,1-4.183,2.38,1.014,1.014,0,0,1-.228.04c-.092.02-.206.03-.3.05h-.023c-.206.02-.549.02-.572.02V4.491h.926a11.589,11.589,0,0,0,1.863-.15,11.7,11.7,0,0,0,2.846-.8c.194,1.07.423,2.14.64,3.06C38.412,7.221,38.56,7.781,38.675,8.251Z"></path><path xmlns="http://www.w3.org/2000/svg" fill="#F2C8B6" d="M39.429,5.7c-.023.15-.069.34-.126.59-.011.07-.034.16-.045.24-.058.22-.126.45-.206.71-.057.19-.137.4-.217.62-.046.12-.1.25-.16.39-.115-.47-.263-1.03-.4-1.65-.217-.92-.446-1.99-.64-3.06A9.9,9.9,0,0,0,38.96,2.9c.023,0,.046-.02.069-.03.08.6.171,1.2.251,1.8C39.338,5.011,39.383,5.361,39.429,5.7Z"></path><path xmlns="http://www.w3.org/2000/svg" fill="#E5B6A8" d="M39.03,2.871a11.787,11.787,0,0,1-1.39.67c-.14-.79-.28-1.63-.4-2.54h1.54C38.86,1.621,38.94,2.241,39.03,2.871Z"></path><path xmlns="http://www.w3.org/2000/svg" fill="#EABDAD" d="M37.64,3.541h-.01a11.71,11.71,0,0,1-2.84.8,11.663,11.663,0,0,1-1.86.15H32V1h5.24C37.36,1.911,37.5,2.751,37.64,3.541Z"></path><path xmlns="http://www.w3.org/2000/svg" fill="#F9CEBB" d="M38.458 8.731a9.664 9.664 0 0 1-.743 1.25c-.137.17-.263.36-.412.53a6.381 6.381 0 0 1-4.183 2.38 1.014 1.014 0 0 1-.228.04c-.092.02-.206.03-.3.05A8.3 8.3 0 0 0 39 9.445l-.326-1.194C38.606 8.4 38.538 8.571 38.458 8.731zM39.28 4.671c.058.34.1.69.149 1.03-.023.15-.069.34-.126.59-.011.07-.034.16-.045.24-.058.22-.126.45-.206.71-.057.19-.137.4-.217.62-.046.12-.1.25-.16.39L39 9.445A6.42 6.42 0 0 0 40 7 15.694 15.694 0 0 1 39.28 4.671z"></path><path xmlns="http://www.w3.org/2000/svg" fill="#FFE0D2" d="M25.166,7.861c-.08-.22-.16-.43-.217-.62-.08-.26-.149-.49-.206-.71-.011-.08-.034-.17-.045-.24-.058-.25-.1-.44-.126-.59.046-.36.1-.73.16-1.09A15.716,15.716,0,0,1,24,7a6.46,6.46,0,0,0,1.047,2.508l.279-1.258C25.269,8.111,25.212,7.981,25.166,7.861Z"></path><path xmlns="http://www.w3.org/2000/svg" fill="#FFD5C0" d="M30.88,12.891a6.382,6.382,0,0,1-4.182-2.38c-.149-.17-.275-.36-.412-.53a9.552,9.552,0,0,1-.743-1.25c-.08-.16-.148-.33-.217-.48l-.279,1.258a8.317,8.317,0,0,0,6.359,3.472c-.091-.02-.206-.03-.3-.05A1.013,1.013,0,0,1,30.88,12.891Z"></path><path xmlns="http://www.w3.org/2000/svg" fill="#E77973" d="M25 46a1 1 0 0 1-.833-.446l-3.08-4.621a1.176 1.176 0 0 0-1.343-.461l-3.422 1.141a3.151 3.151 0 0 1-2.761-.37L8.446 37.833a1 1 0 1 1 1.109-1.664l5.117 3.411a1.162 1.162 0 0 0 1.019.136l3.421-1.14a3.176 3.176 0 0 1 3.64 1.249l3.08 4.621A1 1 0 0 1 25 46zM35 40a1 1 0 0 1-.831-1.555l2.532-3.8a3.17 3.17 0 0 1 4.879-.483 1.177 1.177 0 0 0 1.014.328 1.158 1.158 0 0 0 .859-.632l1.654-3.308a1 1 0 0 1 1.789.895l-1.654 3.308a3.171 3.171 0 0 1-5.077.823 1.169 1.169 0 0 0-1.8.178l-2.532 3.8A1 1 0 0 1 35 40zM9 60a1 1 0 0 1-.448-1.895l6.6-3.3a3.165 3.165 0 0 1 3.659.594l1.023 1.024a1.171 1.171 0 0 0 1.8-.179l2.531-3.8a1 1 0 0 1 1.664 1.109l-2.531 3.8a3.169 3.169 0 0 1-4.879.484L17.4 56.813a1.163 1.163 0 0 0-1.35-.219l-6.6 3.3A1.011 1.011 0 0 1 9 60zM15.157 50.666a3.168 3.168 0 0 1-1.759-.532l-4.952-3.3a1 1 0 1 1 1.109-1.664l4.952 3.3a1.166 1.166 0 0 0 1.172.073l2.157-1.078a3.185 3.185 0 0 1 2.184-.241l3.223.807a1 1 0 1 1-.485 1.939l-3.221-.8a1.18 1.18 0 0 0-.806.089l-2.158 1.078A3.167 3.167 0 0 1 15.157 50.666z"></path><path xmlns="http://www.w3.org/2000/svg" fill="#F9BA85" d="M24.82,9.231l-.81.09-2.34.25c-.05-.11-.1-.23-.14-.34a2.488,2.488,0,0,1-.11-.29,9.033,9.033,0,0,1-.38-1.42l-.03-.2L23.96,7A6.128,6.128,0,0,0,24.82,9.231Z"></path><path xmlns="http://www.w3.org/2000/svg" fill="#FC8E52" d="M42.33,9.571l7.05.77a12.229,12.229,0,0,1,4.84,1.87c4.3,2.86,5.4,17.38,5.68,22.79H63c-.07-.98-.6-21.35-5.78-24.79a12.229,12.229,0,0,0-4.84-1.87l-9.39-1.02-.03.2a9.033,9.033,0,0,1-.38,1.42c-.03.1-.07.19-.11.29A3.454,3.454,0,0,1,42.33,9.571Z"></path><path xmlns="http://www.w3.org/2000/svg" fill="#ED753A" d="M39.18,9.231l.81.09,2.34.25c.05-.11.1-.23.14-.34a2.488,2.488,0,0,0,.11-.29,9.033,9.033,0,0,0,.38-1.42l.03-.2L40.04,7A6.128,6.128,0,0,1,39.18,9.231Z"></path><path xmlns="http://www.w3.org/2000/svg" fill="#FAB06B" d="M32,13v3c-.03,0-.41,0-.71-.02l-.08-.01a11.294,11.294,0,0,1-8.65-4.78c-.1-.14-.19-.29-.28-.44s-.17-.29-.25-.44a5.6,5.6,0,0,1-.36-.74l2.34-.25.81-.09a7.786,7.786,0,0,0,3.87,3.15A9.06,9.06,0,0,0,32,13Z"></path><path xmlns="http://www.w3.org/2000/svg" fill="#F9CEBB" d="M63,35V59a4,4,0,0,1-4,4H57l-13.15-5.03-1.05.27a10.117,10.117,0,0,1-5.94-.31l-6.71-2.48a1.611,1.611,0,0,1-.95-2.11l.08-.19a1.555,1.555,0,0,1,.68-.79,1.524,1.524,0,0,1,1.15-.17h.01a.292.292,0,0,1,.09.02l5.52,1.64-8.6-2.61a1.6,1.6,0,0,1-.94-.78,1.618,1.618,0,0,1-.11-1.26l.02-.05a1.583,1.583,0,0,1,.81-.94,1.54,1.54,0,0,1,1.12-.1.915.915,0,0,1-.17-.09l-.02-.01a1.482,1.482,0,0,1-.69-.77,1.567,1.567,0,0,1-.05-1.13l.02-.07a1.631,1.631,0,0,1,1.51-1.1,1.523,1.523,0,0,1,.42.06c.05.01.1.03.15.04a1.539,1.539,0,0,1-.95-.77,1.592,1.592,0,0,1,1.85-2.31l.41.13,5.07,1.58.21.07,1.09.33.11-.42v-.01l.35-1.42a1.584,1.584,0,0,1,2.09-1.12l4.65,1.77a4.073,4.073,0,0,1,2.43,2.55L48.93,49l.62.2L55,51l-3-1-.16-.8L49,35Z"></path><path xmlns="http://www.w3.org/2000/svg" fill="#F2C8B6" d="M63,35V59a4,4,0,0,1-4,4H57l-13.15-5.03-1.05.27a10.117,10.117,0,0,1-5.94-.31l-6.71-2.48a1.589,1.589,0,0,1-1.04-1.27l4.75,1.75a10.117,10.117,0,0,0,5.94.31l1.05-.27L54,61h2a4,4,0,0,0,4-4V35Z"></path><path xmlns="http://www.w3.org/2000/svg" fill="#EABDAD" d="M55.46,51.191a.489.489,0,0,1-.46.31.464.464,0,0,1-.19-.04l-5-2a.445.445,0,0,1-.26-.26L55,51l-3-1-.16-.8,3.35,1.34A.493.493,0,0,1,55.46,51.191Z"></path><path xmlns="http://www.w3.org/2000/svg" fill="none" d="M36.58 43.671L36.79 43.741 43 46.001"></path><path xmlns="http://www.w3.org/2000/svg" fill="#EABDAD" d="M43.47,46.171a.5.5,0,0,1-.64.3l-11-4a.5.5,0,0,1-.32-.38l5.07,1.58.21.07,1.09.33.11-.42,5.18,1.88A.5.5,0,0,1,43.47,46.171Z"></path><path xmlns="http://www.w3.org/2000/svg" fill="none" d="M41 49.001L29.63 44.941"></path><path xmlns="http://www.w3.org/2000/svg" fill="#EABDAD" d="M41.47,49.171a.5.5,0,0,1-.47.33.508.508,0,0,1-.17-.03l-12.02-4.29a1.483,1.483,0,0,1,.82-.24,1.523,1.523,0,0,1,.42.06c.05.01.1.03.15.04a1.539,1.539,0,0,1-.95-.77l11.92,4.26A.5.5,0,0,1,41.47,49.171Z"></path><path xmlns="http://www.w3.org/2000/svg" fill="none" d="M40 52.001L28.86 48.021 28.84 48.011"></path><path xmlns="http://www.w3.org/2000/svg" fill="#EABDAD" d="M40.47,52.171a.5.5,0,0,1-.47.33.508.508,0,0,1-.17-.03l-11.92-4.26a1.542,1.542,0,0,1,1.14-.09c.03.01.07.02.1.03a1.076,1.076,0,0,1-.29-.13l-.02-.01a1.482,1.482,0,0,1-.69-.77l12.02,4.29A.5.5,0,0,1,40.47,52.171Z"></path><path xmlns="http://www.w3.org/2000/svg" fill="none" d="M37 54.001L31.12 52.191 31.11 52.191"></path><path xmlns="http://www.w3.org/2000/svg" fill="#EABDAD" d="M37.48,54.151a.514.514,0,0,1-.48.35.772.772,0,0,1-.15-.02l-6.89-2.12a1.55,1.55,0,0,1,1.16-.17.292.292,0,0,1,.09.02l5.52,1.64-8.6-2.61a1.6,1.6,0,0,1-.94-.78l9.96,3.06A.506.506,0,0,1,37.48,54.151Z"></path><path xmlns="http://www.w3.org/2000/svg" fill="#FFE0D2" d="M41.3 42.124l-.578 1.363-1.793-.371a1.445 1.445 0 0 1 .73-1.545zM32.075 42.915L31.5 44.278 29.7 43.907a1.448 1.448 0 0 1 .729-1.545zM31.036 46.105l-.578 1.363L28.665 47.1a1.448 1.448 0 0 1 .73-1.546zM30.146 49.245l-.578 1.363-1.793-.371a1.446 1.446 0 0 1 .729-1.545zM32.124 53.35l-.578 1.362-1.793-.371a1.447 1.447 0 0 1 .73-1.545z"></path><path xmlns="http://www.w3.org/2000/svg" fill="#383844" d="M40 8a1 1 0 0 1-.986-.84l-.97-6A1 1 0 1 1 40.018.841l.97 6a1 1 0 0 1-.828 1.147A.978.978 0 0 1 40 8zM5 64a1 1 0 0 1-1-.929l-1.714-24a1 1 0 0 1 1.995-.142L6 62.93A1 1 0 0 1 5.072 64zM13 64l-.067 0A1 1 0 0 1 12 62.935l2-30A1 1 0 1 1 16 33.067l-2 30A1 1 0 0 1 13 64z"></path><path xmlns="http://www.w3.org/2000/svg" fill="#383844" d="M25 46a1 1 0 0 1-.833-.445l-3.081-4.621a1.172 1.172 0 0 0-1.342-.462l-3.422 1.14a3.181 3.181 0 0 1-2.76-.369L8.446 37.833a1 1 0 1 1 1.109-1.664l5.117 3.411a1.187 1.187 0 0 0 1.018.137l3.422-1.141a3.18 3.18 0 0 1 3.64 1.249l3.081 4.621A1 1 0 0 1 25 46zM35 40a1 1 0 0 1-.832-1.555l2.532-3.8a3.17 3.17 0 0 1 4.879-.483 1.17 1.17 0 0 0 1.873-.3l1.654-3.308a1 1 0 0 1 1.789.895l-1.654 3.308a3.169 3.169 0 0 1-5.076.823 1.17 1.17 0 0 0-1.8.179l-2.531 3.8A1 1 0 0 1 35 40zM9 60a1 1 0 0 1-.448-1.895l6.6-3.3a3.169 3.169 0 0 1 3.659.593l1.023 1.023a1.169 1.169 0 0 0 1.8-.178l2.532-3.8a1 1 0 0 1 1.665 1.11l-2.533 3.8a3.171 3.171 0 0 1-4.879.482L17.4 56.813a1.168 1.168 0 0 0-1.35-.218l-6.6 3.3A1.01 1.01 0 0 1 9 60zM15.158 50.666a3.18 3.18 0 0 1-1.761-.532l-4.951-3.3a1 1 0 1 1 1.109-1.664l4.952 3.3a1.166 1.166 0 0 0 1.172.073l2.156-1.078a3.173 3.173 0 0 1 2.187-.239l3.221.8a1 1 0 1 1-.485 1.94l-3.222-.806a1.165 1.165 0 0 0-.806.089l-2.156 1.078A3.157 3.157 0 0 1 15.158 50.666z"></path><path xmlns="http://www.w3.org/2000/svg" fill="#383844" d="M63 36H51a3 3 0 0 1-3-3V25a1 1 0 0 1 2 0v8a1 1 0 0 0 1 1H61.954c-.6-12.585-2.564-21.149-5.287-22.96a11.142 11.142 0 0 0-4.442-1.709L40.687 8.081a9.333 9.333 0 0 1-17.646-.8 1 1 0 0 1-.027-.441l.98-6a1 1 0 1 1 1.973.323l-.942 5.769a7.334 7.334 0 0 0 14.016-.21 1 1 0 0 1 1.067-.715L52.491 7.351a13.167 13.167 0 0 1 5.283 2.024c4.353 2.9 5.777 15.278 6.2 25.156l.019.4A1 1 0 0 1 63 36zM13 36H1a1 1 0 0 1-1-1.067l.018-.4C.45 24.653 1.874 12.27 6.227 9.375a13.136 13.136 0 0 1 5.232-2.018l8.433-.919a1 1 0 1 1 .217 1.988l-8.383.913a11.082 11.082 0 0 0-4.392 1.7C4.611 12.852 2.644 21.416 2.047 34H13a1 1 0 0 0 1-1V25a1 1 0 0 1 2 0v8A3 3 0 0 1 13 36zM36.733 54.854a1.016 1.016 0 0 1-.291-.043L27.84 52.2A2.573 2.573 0 0 1 26.3 50.911a2.634 2.634 0 0 1 3.051-3.744l8.695 2.642a1 1 0 0 1-.583 1.914l-8.694-2.642a.578.578 0 0 0-.718.386.647.647 0 0 0 .024.522.587.587 0 0 0 .35.294l8.6 2.613a1 1 0 0 1-.29 1.958z"></path><path xmlns="http://www.w3.org/2000/svg" fill="#383844" d="M37.75,51.766a1.016,1.016,0,0,1-.291-.043l-8.6-2.614a2.572,2.572,0,0,1-1.544-1.286,2.656,2.656,0,0,1,3.011-3.787l8.8,2.483a1,1,0,1,1-.543,1.925l-8.8-2.482a.579.579,0,0,0-.708.388.671.671,0,0,0,.015.551.584.584,0,0,0,.35.294l8.6,2.614a1,1,0,0,1-.29,1.957Z"></path><path xmlns="http://www.w3.org/2000/svg" fill="#383844" d="M38.852,48.479a.985.985,0,0,1-.272-.037L29.933,46a2.565,2.565,0,0,1-1.581-1.278,2.633,2.633,0,0,1-.176-2.05,2.594,2.594,0,0,1,3.218-1.668L43.13,44.663a1,1,0,1,1-.594,1.91L30.8,42.917a.575.575,0,0,0-.722.384.613.613,0,0,0,.041.485.586.586,0,0,0,.359.292l8.647,2.439a1,1,0,0,1-.271,1.962Z"></path><path xmlns="http://www.w3.org/2000/svg" fill="#383844" d="M55,52a1,1,0,0,1-.312-.05l-6.067-2A1,1,0,0,1,48,49.37l-1.42-3.578A3.121,3.121,0,0,0,44.729,43.8l-4.652-1.766a.566.566,0,0,0-.466.028.6.6,0,0,0-.3.392l-.455,1.855a1,1,0,1,1-1.942-.477l.455-1.856A2.6,2.6,0,0,1,38.681,40.3a2.562,2.562,0,0,1,2.106-.127l4.651,1.766a5.069,5.069,0,0,1,3.025,3.175L49.69,48.2l5.623,1.854A1,1,0,0,1,55,52Z"></path><path xmlns="http://www.w3.org/2000/svg" fill="#383844" d="M59,64H57a.991.991,0,0,1-.357-.066L43.789,59.019l-.744.188a11,11,0,0,1-6.527-.343L29.8,56.393a2.615,2.615,0,0,1-1.53-3.415l.077-.2A2.583,2.583,0,0,1,31.5,51.251L37.018,52.9a1,1,0,0,1-.57,1.916l-5.523-1.644a.586.586,0,0,0-.717.35l-.076.194a.615.615,0,0,0,.36.8l6.716,2.471a9.022,9.022,0,0,0,5.347.281L43.605,57a1,1,0,0,1,.6.036L57.185,62H59a3,3,0,0,0,3-3V39a1,1,0,0,1,2,0V59A5.006,5.006,0,0,1,59,64Z"></path><path xmlns="http://www.w3.org/2000/svg" fill="#383844" d="M51,46a1,1,0,0,1-.986-.836l-2-12a1,1,0,0,1,1.973-.329l2,12a1,1,0,0,1-.822,1.15A.935.935,0,0,1,51,46Z"></path></symbol></defs><use data-v-6ca697d7="" xlink:href="#httpsc0piktochartcomv2externalassetsiconscoutc22eca779470b5639174051c99a9cff9d0329de1svg-original" href="#httpsc0piktochartcomv2externalassetsiconscoutc22eca779470b5639174051c99a9cff9d0329de1svg-original"></use></svg>