<svg xmlns:xlink="http://www.w3.org/1999/xlink" xmlns="http://www.w3.org/2000/svg" data-v-6ca697d7="" width="44" height="44" style="display: block; color: rgb(0, 0, 0);"><defs><symbol id="httpsc0piktochartcomv2externalassetsiconscoutb9ad931fb3c323a4fde65565c9058c08bf638984svg-original" viewBox="0 -22 496 496" preserveAspectRatio="none"><path xmlns="http://www.w3.org/2000/svg" fill="#FFD7D2" d="M467.8,35.04C448.33,13.49,420.44,0,389.46,0h-38h-59.12c-28.78,0-56.79,9.53-79.81,27.15 c-0.92,0.7-1.84,1.41-2.76,2.11c-55.5,42.49-111,84.97-166.5,127.44C28.85,167.74,14.42,178.78,0,189.82v253.1h119.57 c41.42-58.81,82.84-117.63,124.27-176.44c22.05-31.31,44.1-62.63,66.16-93.94l46.5,35.22h39.86l43.88-6.19 c1.8,5.25,3.6,10.5,5.4,15.75c3.64,10.6,13.45,17.7,24.45,17.7c7.15,0,13.63-2.96,18.32-7.74c4.69-4.79,7.59-11.4,7.59-18.7v-99.85 C496,80.29,485.31,54.41,467.8,35.04z"></path><path xmlns="http://www.w3.org/2000/svg" fill="#FEC4B9" d="M349.86,189.82c0,6.88,2.51,13.16,6.64,17.94c-4.87,5.63-11.99,9.18-19.93,9.18 c-7.33,0-13.98-3.04-18.79-7.94c-4.8-4.91-7.78-11.69-7.78-19.18v-17.28v-0.01c1.49-2.11,2.98-4.23,4.47-6.34 c4.09-5.81,8.87-11.05,14.17-15.72c7.68,1.44,14.81,2.27,21.22,2.73V189.82z"></path><path xmlns="http://www.w3.org/2000/svg" fill="#F7B6AD" d="M389.71,189.82c0,6.88,2.51,13.16,6.65,17.94c-4.87,5.63-11.99,9.18-19.93,9.18 c-7.34,0-13.98-3.04-18.79-7.94c-0.39-0.4-0.77-0.81-1.14-1.24c-4.13-4.78-6.64-11.06-6.64-17.94V153.2 c4.88,0.34,9.32,0.47,13.28,0.47c9.59,0,18.49-0.74,26.57-1.9v0.01V189.82z"></path><path xmlns="http://www.w3.org/2000/svg" fill="#FEC4B9" d="M428.52,167.4c3.91,11.39,7.82,22.78,11.72,34.17c-4.29,9.09-13.4,15.37-23.95,15.37 c-7.34,0-13.99-3.04-18.79-7.94c-0.39-0.4-0.77-0.81-1.14-1.24c-4.14-4.78-6.65-11.06-6.65-17.94v-38.04v-0.01 c3.29-0.46,6.44-1,9.44-1.59C411.78,147.71,424.28,155.01,428.52,167.4z"></path><path xmlns="http://www.w3.org/2000/svg" fill="#E15C63" d="M467.8 35.04c.27 7.6-3.22 14.92-9.36 19.39-3.91 2.85-8.55 4.28-13.2 4.23-5.97-.06-11.73 2.04-16.19 6.1-6.85 6.25-16.33 8.97-25.46 6.84-9.65-2.26-17.28-9.58-20.52-18.89-2.17-6.24-6.79-11.26-12.87-13.57-8.28-3.14-15.01-9.57-18.28-17.94-3.13-8.03-2.2-15.6-.46-21.2h38C420.44 0 448.33 13.49 467.8 35.04zM292.29 81.35c7.33 0 13.28 6.07 13.28 13.56 0 7.49-5.95 13.56-13.28 13.56-7.34 0-13.29-6.07-13.29-13.56C279 87.42 284.95 81.35 292.29 81.35zM248 162.71c4.89 0 8.86 4.04 8.86 9.04 0 4.99-3.97 9.03-8.86 9.03s-8.86-4.04-8.86-9.03C239.14 166.75 243.11 162.71 248 162.71z"></path><path xmlns="http://www.w3.org/2000/svg" fill="#D14B62" d="M230.29,58.76c0.86,10.5-2.96,20.63-9.94,27.9c-5.96,6.2-8.8,14.76-8.54,23.44 c0.15,4.95-0.69,10.66-3.67,16.45c-3.93,7.64-9.86,12.08-15.13,14.64c-6.6,3.21-11.53,9.11-13.53,16.28 c-2.51,8.97-8.01,20.59-20.05,27.83c-14.69,8.84-33.76,7.96-48.97-1.98c-5.9-3.86-13.11-4.89-19.97-3.44 c-14.19,3.01-27.95,0.33-37.35-8.13c-5.16-4.65-8.13-10.24-9.87-15.05c55.5-42.47,111-84.95,166.5-127.44 C221.22,34.54,229.22,45.78,230.29,58.76z"></path><path xmlns="http://www.w3.org/2000/svg" fill="#E15C63" d="M243.84 266.48c-41.43 58.81-82.85 117.63-124.27 176.44-14.43-2.5-26.37-12.95-31-27.11-2.7-8.27-2.66-17.05-.16-25.08 3.21-10.31 2.71-21.38-1.73-31.21-6.82-15.12-6.41-32.97 1.89-47.67 8.78-15.53 24.93-24.95 42.1-25.71 11.51-.51 22.26-5.9 29.27-15.24 9.53-12.7 23.73-21.02 39.35-22.32C221.04 246.76 236.74 259.29 243.84 266.48zM172.71 85.87c4.9 0 8.86 4.05 8.86 9.04 0 4.99-3.96 9.04-8.86 9.04-4.89 0-8.85-4.05-8.85-9.04C163.86 89.92 167.82 85.87 172.71 85.87z"></path><ellipse xmlns="http://www.w3.org/2000/svg" cx="150.57" cy="158.19" fill="#E15C63" rx="8.86" ry="9.04"></ellipse><path xmlns="http://www.w3.org/2000/svg" fill="#E15C63" d="M137.29 117.51c4.89 0 8.85 4.05 8.85 9.04 0 4.99-3.96 9.04-8.85 9.04-4.9 0-8.86-4.05-8.86-9.04C128.43 121.56 132.39 117.51 137.29 117.51zM101.86 135.59c4.89 0 8.85 4.05 8.85 9.04 0 4.99-3.96 9.04-8.85 9.04S93 149.62 93 144.63C93 139.64 96.97 135.59 101.86 135.59z"></path><path xmlns="http://www.w3.org/2000/svg" fill="#FEC4B9" d="M359.201,95.46c-2.191-0.267-4.19,1.286-4.461,3.479c-1.128,9.126-3.944,17.758-8.369,25.656 c-1.905,3.399-4.116,6.655-6.572,9.675c-1.394,1.714-1.134,4.233,0.58,5.627c0.741,0.604,1.634,0.896,2.521,0.896 c1.162,0,2.314-0.504,3.105-1.477c2.744-3.374,5.215-7.012,7.344-10.812c4.936-8.808,8.074-18.425,9.33-28.584 C362.951,97.728,361.394,95.73,359.201,95.46z"></path><path xmlns="http://www.w3.org/2000/svg" fill="#E15C63" d="M257.952 85.066c.485.193.984.284 1.477.284 1.591 0 3.095-.955 3.718-2.523 3.194-8.035 9.529-14.505 17.381-17.751 2.042-.844 3.013-3.183 2.169-5.224-.842-2.043-3.184-3.015-5.224-2.169-9.841 4.066-17.772 12.154-21.76 22.188C254.896 81.925 255.899 84.251 257.952 85.066zM304.043 65.076c7.853 3.246 14.187 9.716 17.379 17.75.624 1.569 2.128 2.524 3.719 2.524.491 0 .991-.091 1.476-.283 2.054-.816 3.057-3.142 2.241-5.194-3.987-10.035-11.918-18.123-21.76-22.189-2.039-.846-4.381.127-5.224 2.169C301.03 61.894 302.001 64.232 304.043 65.076zM277.472 132.137c.5.207 1.018.305 1.526.305 1.571 0 3.062-.931 3.698-2.473.845-2.042-.127-4.381-2.168-5.225-7.854-3.247-14.188-9.717-17.382-17.752-.815-2.053-3.137-3.058-5.194-2.239-2.053.815-3.056 3.141-2.239 5.194C259.7 119.98 267.631 128.068 277.472 132.137zM305.572 132.441c.509 0 1.026-.098 1.526-.305 9.842-4.068 17.772-12.156 21.759-22.19.815-2.053-.188-4.378-2.241-5.194-2.052-.814-4.379.188-5.194 2.241-3.191 8.034-9.526 14.504-17.38 17.751-2.041.844-3.013 3.183-2.168 5.225C302.511 131.511 304.001 132.441 305.572 132.441z"></path><path xmlns="http://www.w3.org/2000/svg" fill="#FFC05A" d="M264.806 431.162c-4.848-6.729-10.426-8.719-15.347-10.475-3.965-1.414-7.389-2.635-10.335-6.353-2.958-3.729-3.418-7.42-3.95-11.692-.656-5.258-1.398-11.217-6.826-17.438-3.695-4.248-8.569-7.442-14.487-9.494-2.094-.726-4.367.382-5.09 2.469-.724 2.088.382 4.366 2.469 5.09 4.581 1.588 8.307 4.006 11.076 7.19 3.823 4.383 4.331 8.456 4.92 13.173.595 4.774 1.27 10.188 5.62 15.672 4.368 5.513 9.44 7.322 13.916 8.918 4.374 1.561 8.151 2.908 11.541 7.613 2.482 3.45 4.031 7.698 4.604 12.626.237 2.037 1.966 3.538 3.969 3.538.154 0 .31-.009.467-.026 2.194-.255 3.767-2.241 3.512-4.436C270.132 441.242 268.094 435.732 264.806 431.162zM312.431 390.697c-6.05-5.65-11.907-6.496-17.076-7.241-4.152-.6-7.738-1.117-11.324-4.164-3.604-3.063-4.757-6.587-6.091-10.669-1.646-5.031-3.512-10.734-10.036-15.771-4.455-3.438-9.855-5.604-16.05-6.437-2.181-.293-4.203 1.241-4.497 3.431-.295 2.189 1.241 4.203 3.431 4.497 4.785.644 8.899 2.273 12.229 4.842 4.574 3.531 5.847 7.421 7.319 11.925 1.495 4.571 3.19 9.753 8.516 14.277 5.342 4.54 10.665 5.309 15.361 5.986 4.584.661 8.543 1.232 12.762 5.173 3.079 2.869 5.406 6.721 6.916 11.45.543 1.7 2.115 2.784 3.81 2.784.403 0 .813-.062 1.218-.19 2.104-.672 3.266-2.923 2.594-5.027C319.579 399.512 316.522 394.509 312.431 390.697zM331.814 318.122c-7.763-2.77-13.477-1.189-18.52.208-4.043 1.12-7.531 2.088-11.993.732-4.469-1.357-6.882-4.125-9.677-7.329-3.464-3.973-7.391-8.476-15.354-10.491-5.431-1.374-11.237-1.194-17.255.533-2.123.61-3.35 2.826-2.74 4.949.609 2.122 2.824 3.348 4.949 2.74 4.64-1.333 9.042-1.488 13.084-.467 5.539 1.401 8.203 4.456 11.287 7.993 3.148 3.61 6.717 7.701 13.382 9.726 6.681 2.028 11.871.592 16.452-.677 4.462-1.237 8.316-2.302 13.697-.383 3.925 1.398 7.538 3.996 10.74 7.72.791.921 1.91 1.393 3.035 1.393.923 0 1.851-.318 2.605-.967 1.676-1.44 1.866-3.966.426-5.641C341.813 323.37 337.063 319.992 331.814 318.122z"></path></symbol></defs><use data-v-6ca697d7="" xlink:href="#httpsc0piktochartcomv2externalassetsiconscoutb9ad931fb3c323a4fde65565c9058c08bf638984svg-original" href="#httpsc0piktochartcomv2externalassetsiconscoutb9ad931fb3c323a4fde65565c9058c08bf638984svg-original"></use></svg>