<svg xmlns:xlink="http://www.w3.org/1999/xlink" xmlns="http://www.w3.org/2000/svg" data-v-6ca697d7="" width="128" height="128" style="display: block; color: rgb(0, 0, 0);"><defs><symbol id="httpsc0piktochartcomv2externalassetsiconscoute87e2f2dcee00daca2df7fcd79d4f9fb0e899342svg-original" viewBox="0 0 128 128" preserveAspectRatio="none"><circle xmlns="http://www.w3.org/2000/svg" cx="104" cy="60.4" r="5" fill="#F2F2F2"></circle><path xmlns="http://www.w3.org/2000/svg" fill="#FFFFFF" d="m115.7 92.7-24.9 8.6c.8-1.2 1.2-2.7 1.1-4.2-.3-3.5-3.4-6.1-6.9-6.1H67.2c-6.9-10-25.7-10-25.7-10h-15v30.4l35.3 11.2s10.6 3.2 18.4 0c6.5-2.7 32.6-16.6 40.9-21.1 1.6-.8 3.8-3.3 2.6-6.2-1-2.4-3-4-8-2.6z"></path><path xmlns="http://www.w3.org/2000/svg" fill="#F2F2F2" d="M67.2 91.1h17.9c3.5 0 6.6 2.6 6.9 6.1.1 1.6-.3 3-1.1 4.2l24.9-8.6c4.7-1.3 6.7 0 7.8 2.2v-.5c0-6.9-5.6-12.5-12.5-12.5-.7 0-1.3.1-2 .2.3-.8.5-1.7.5-2.7 0-4.1-3.4-7.5-7.5-7.5-2.3 0-4.3 1-5.7 2.6-3.6-3.7-8.7-6.1-14.3-6.1-7.3 0-13.6 3.9-17.1 9.7-1.8-1.7-4.2-2.7-6.9-2.7-4.2 0-7.8 2.6-9.3 6.3 6 .9 14.3 3.3 18.4 9.3z"></path><path xmlns="http://www.w3.org/2000/svg" d="M85.3 99.4H64.2c-2.8 0-5 2.2-5 5h26c3.7 0 6.6-3 6.6-6.6 0-.5-.1-3.1-.2-3.6-.5 2.9-3.1 5.2-6.3 5.2zm-52.8 13.1V81h-6v30.4l6 1.9v-.8z" opacity=".1"></path><path xmlns="http://www.w3.org/2000/svg" fill="#CCCCCC" d="M26.5 112.5V80.2c0-2.2-1.7-3.9-3.9-3.9H5c-.4 0-.7.1-1 .2v.5c0 14.5 4.2 28 11.4 39.4h7.2c2.1 0 3.9-1.8 3.9-3.9z"></path><circle xmlns="http://www.w3.org/2000/svg" cx="87" cy="78.4" r="5" fill="#FFFFFF"></circle><circle xmlns="http://www.w3.org/2000/svg" cx="103.5" cy="77.9" r="2.5" fill="#FFFFFF"></circle><path xmlns="http://www.w3.org/2000/svg" fill="#F2F2F2" d="M86.4 30.6c-4.2 4.2-10.9 4.2-15.1 0-4.2-4.2-3.1-10.2 0-15.1C76 8.2 78.9 3.8 78.9 3.8s3.2 5.1 7.5 11.8c3.8 5.9 4.2 10.9 0 15z"></path><path xmlns="http://www.w3.org/2000/svg" fill="#4A374F" d="M104 53.9c-3.6 0-6.5 2.9-6.5 6.5s2.9 6.5 6.5 6.5 6.5-2.9 6.5-6.5-2.9-6.5-6.5-6.5zm0 10c-1.9 0-3.5-1.6-3.5-3.5s1.6-3.5 3.5-3.5 3.5 1.6 3.5 3.5-1.6 3.5-3.5 3.5zm21 30.8v-.3c0-7.7-6.3-14-14-14h-.1c0-.3.1-.7.1-1 0-5-4-9-9-9-2.1 0-4.1.7-5.6 2-2.4-2.2-5.3-3.8-8.4-4.7h-.1c-.6-.2-1.2-.3-1.8-.4h-.2c-.5-.1-1-.2-1.5-.2h-.5c-.6 0-1.2-.1-1.8-.1-.5 0-1 0-1.5.1h-.3c-.4 0-.9.1-1.3.1h-.1c-5 .7-9.5 3.1-12.8 6.8-.3.3-.5.6-.7.9-.3.3-.5.7-.8 1-1.9-1.3-4.2-2-6.5-2-4.3 0-8.2 2.4-10.2 6.2-3.5-.5-6-.5-6.3-.5H27.9c-.3-2.7-2.6-4.8-5.4-4.8H5c-.6 0-1.2.1-1.7.4-.5.3-.8.8-.8 1.3v.5c0 14.2 4 28.1 11.6 40.2.3.4.8.7 1.3.7h7.2c2.7 0 4.9-1.9 5.3-4.5L61.4 124c.2.1 5 1.5 10.6 1.5 3.4 0 6.3-.5 8.8-1.5 6.6-2.7 33.1-16.9 41-21.1 2.1-1.1 4.8-4.3 3.3-8.1l-.1-.1zM25 81v31.5c0 1.3-1.1 2.4-2.4 2.4h-6.4c-6.9-11.2-10.6-24-10.7-37.1h17.1c1.3 0 2.4 1.1 2.4 2.4v.8zm33-4.1c1.8 0 3.5.6 4.9 1.6-.1.2-.3.5-.4.7-.4.7 0 1.6.7 2 .2.1.4.1.6.1.6 0 1.1-.3 1.4-.9.2-.5.5-1 .8-1.5l.1-.1c.8-1.4 1.8-2.6 2.9-3.7 3.1-3 7.1-4.9 11.5-5.2H81.9c.6 0 1.1 0 1.7.1h.4c.6.1 1.1.1 1.7.2.6.1 1.1.3 1.7.4h.1c2.9.9 5.6 2.5 7.7 4.8l.1.1c.9 1 1.8 2 2.5 3.2.4.7 1.4.9 2.1.5.7-.4.9-1.4.5-2.1-.6-1-1.2-1.9-1.9-2.7 1-.8 2.3-1.2 3.5-1.2 3.3 0 6 2.7 6 6 0 .7-.1 1.4-.4 2.1-.2.5-.1 1.1.2 1.5s.9.6 1.4.5c.7-.1 1.2-.2 1.8-.2 4.9 0 9.1 3.3 10.5 7.7-.1 0-.3-.1-.4-.1h-.1c-.6-.2-1.3-.2-2-.2h-.9c-.2 0-.5.1-.7.1h-.2c-.2 0-.5.1-.7.1h-.2c-.3.1-.7.2-1 .3l-21.9 7.6v-2.1c0-.2-.1-.5-.1-.7v-.2c-.8-3.6-4.2-6.4-8.2-6.4H67.9c-.2-.3-.5-.6-.8-.9l-.2-.2c-.2-.2-.4-.5-.6-.7-.1-.1-.2-.1-.2-.2-.2-.2-.4-.4-.7-.6l-.2-.2c-.2-.2-.5-.4-.7-.6-.1 0-.1-.1-.2-.1-.3-.2-.6-.4-.8-.6l-.1-.1c-.3-.2-.6-.4-1-.6-3.6-2.1-7.7-3.4-11.3-4.1 1.4-2 4-3.4 6.9-3.4zm62.4 23.3c-7.9 4.3-34.3 18.4-40.8 21-2.1.9-4.7 1.3-7.6 1.3-5.1 0-9.7-1.3-9.7-1.3L28 110.3V82.5h13.5c.1 0 9.4.1 16.9 3.5h.1c.3.1.6.3.9.5.9.4 1.7.9 2.5 1.5.1.1.2.2.3.2.2.1.3.3.5.4.1.1.3.2.4.4.1.1.3.2.4.4.2.1.3.3.5.4l.4.4c.2.2.3.4.5.5l.3.3c.2.3.5.6.7.9.3.4.7.7 1.2.7H85c2.8 0 5.1 2 5.3 4.6v.7c0 .2 0 .4-.1.6 0 .1 0 .2-.1.3 0 .2-.1.4-.2.6 0 .1-.1.2-.1.3-.8 1.8-2.6 3.1-4.7 3.1h-26c-.8 0-1.5.7-1.5 1.5s.7 1.5 1.5 1.5h26c2.6 0 5-1.3 6.5-3.2l24.4-8.5c1.1-.3 2.1-.5 2.9-.5h.5c.1 0 .2 0 .3.1h.2c.1 0 .2.1.3.1h.1c.1 0 .2.1.3.1 0 0 .1 0 .1.1.1.1.2.1.2.2l.1.1.2.2.1.1c.1.1.1.2.2.2 0 .1.1.1.1.2s.1.2.1.3c.1.1.1.3.2.4 1.2 2.2-.5 4-1.5 4.5zm-41.5-98c-.5 0-1 .3-1.3.7l-7.5 11.8c-4 6.3-3.9 12.8.2 16.9 2.3 2.3 5.4 3.6 8.6 3.6s6.3-1.3 8.6-3.6c4.5-4.5 4.6-10.2.2-17C83.3 8.1 80.2 3 80.1 3c-.3-.5-.7-.7-1.2-.8zm6.4 27.4c-1.7 1.7-4 2.7-6.5 2.7s-4.7-1-6.5-2.7c-4.7-4.7-1-11.3.2-13.2l6.3-9.8c1.3 2.1 3.6 5.6 6.3 9.8 4.7 7.3 2.4 11 .2 13.2z"></path></symbol></defs><use data-v-6ca697d7="" xlink:href="#httpsc0piktochartcomv2externalassetsiconscoute87e2f2dcee00daca2df7fcd79d4f9fb0e899342svg-original" href="#httpsc0piktochartcomv2externalassetsiconscoute87e2f2dcee00daca2df7fcd79d4f9fb0e899342svg-original"></use></svg>