<svg xmlns:xlink="http://www.w3.org/1999/xlink" xmlns="http://www.w3.org/2000/svg" data-v-6ca697d7="" width="58" height="58" style="display: block; color: rgb(0, 0, 0);"><defs><symbol id="httpsc0piktochartcomv2externalassetsiconscout107404d6a47876e19888b090e383915dc0b9c492svg-original" viewBox="0 -0.0005035400390625 504.00201416015625 504.00201416015625" preserveAspectRatio="none"><path xmlns="http://www.w3.org/2000/svg" fill="#FEC4B9" d="M211.421 4c0 9.43 0 18.87 0 28.3h81.16c0-9.43 0-18.87 0-28.3H211.421zM468.111 287.1c-2.78-8.35-4.81-16.94-6.05-25.65l-10.79-75.48c-8.66-60.62-54.06-109.48-113.88-122.57-8.87-1.94-17.74-3.88-26.61-5.82h-117.56c-8.87 1.94-17.74 3.88-26.61 5.82-59.82 13.09-105.22 61.95-113.88 122.57l-10.79 75.48c-1.24 8.71-3.27 17.3-6.05 25.65-10.63 31.88-21.26 63.77-31.89 95.66V500h45.09c24.27-60.01 48.54-120.02 72.81-180.03 4.29 60.01 8.58 120.02 12.86 180.03h234.48c4.28-60.01 8.57-120.02 12.86-180.03 24.27 60.01 48.54 120.02 72.81 180.03h45.09V382.76C489.371 350.87 478.741 318.98 468.111 287.1z"></path><path xmlns="http://www.w3.org/2000/svg" fill="#E15C63" d="M252.001 360.22c34.86 0 63.13 28.26 63.13 63.13 0 34.86-28.27 63.12-63.13 63.12s-63.13-28.26-63.13-63.12C188.871 388.48 217.141 360.22 252.001 360.22zM310.781 57.58c2.81 7.14 4.35 14.93 4.35 23.07 0 34.87-28.27 63.13-63.13 63.13s-63.13-28.26-63.13-63.13c0-8.14 1.54-15.93 4.35-23.07 3.89-9.89 10.2-18.56 18.2-25.28 10.98-9.21 25.13-14.77 40.58-14.77s29.6 5.56 40.58 14.77C300.581 39.02 306.891 47.69 310.781 57.58z"></path><path xmlns="http://www.w3.org/2000/svg" fill="#F7B6AD" d="M112.221 184.36c3.23 45.21 6.45 90.41 9.68 135.61-24.27 60.01-48.54 120.02-72.81 180.03C58.901 444 112.221 184.36 112.221 184.36zM454.911 500c-24.27-60.01-48.54-120.02-72.81-180.03 3.23-45.2 6.45-90.4 9.68-135.61C391.781 184.36 435.991 431.88 454.911 500z"></path><path xmlns="http://www.w3.org/2000/svg" fill="#3A322B" d="M2.736,386.559c0.419,0.14,0.846,0.206,1.266,0.206c1.674,0,3.235-1.06,3.794-2.736l31.89-95.668 c2.852-8.557,4.944-17.42,6.219-26.345l10.782-75.475c8.379-58.654,52.897-106.569,110.778-119.23l19.787-4.328 c-1.54,5.635-2.378,11.557-2.378,17.674c0,37.014,30.113,67.127,67.127,67.127s67.127-30.113,67.127-67.127 c0-6.117-0.838-12.039-2.378-17.674l19.787,4.328c57.881,12.661,102.399,60.576,110.778,119.23l10.782,75.475 c1.274,8.925,3.367,17.789,6.219,26.345l31.89,95.668c0.559,1.676,2.119,2.736,3.794,2.736c0.42,0,0.847-0.066,1.266-0.206 c2.096-0.699,3.229-2.964,2.53-5.06l-31.89-95.668c-2.701-8.102-4.682-16.495-5.889-24.947l-10.782-75.476 c-4.365-30.555-17.777-58.657-38.786-81.269c-21.009-22.611-48.051-38.05-78.203-44.646l-24.6-5.381 c-3.92-9.069-9.783-17.103-17.063-23.585V4c0-2.209-1.791-4-4-4s-4,1.791-4,4v20.415c-10.532-6.874-23.094-10.888-36.582-10.888 c-13.488,0-26.05,4.013-36.582,10.888V4c0-2.209-1.791-4-4-4s-4,1.791-4,4v26.528c-7.28,6.482-13.144,14.516-17.063,23.585 l-24.6,5.381c-30.152,6.596-57.194,22.034-78.203,44.646c-21.009,22.612-34.421,50.714-38.786,81.269l-10.782,75.476 c-1.207,8.451-3.188,16.844-5.889,24.946l-31.89,95.668C-0.492,383.595,0.641,385.86,2.736,386.559z M252.001,21.527 c32.603,0,59.127,26.524,59.127,59.127c0,32.603-26.524,59.127-59.127,59.127s-59.127-26.524-59.127-59.127 C192.874,48.052,219.399,21.527,252.001,21.527z M45.384,498.5l72.465-179.168l-9.62-134.683c-0.157-2.204,1.502-4.118,3.705-4.275 c2.204-0.148,4.117,1.501,4.275,3.705l22.546,315.636c0.157,2.204-1.502,4.118-3.705,4.275c-0.097,0.007-0.193,0.01-0.289,0.01 c-2.08,0-3.836-1.608-3.986-3.715l-11.63-162.82L52.8,501.5c-0.629,1.556-2.128,2.501-3.709,2.501c-0.5,0-1.008-0.094-1.499-0.293 C45.544,502.88,44.556,500.548,45.384,498.5z M168.009,11.338c-1.563-1.562-1.563-4.095,0-5.657c1.561-1.563,4.094-1.562,5.656,0 l18.037,18.036c1.563,1.562,1.563,4.095,0,5.657c-0.78,0.781-1.805,1.172-2.828,1.172s-2.047-0.391-2.828-1.171L168.009,11.338z M149.272,30.697c1.038-1.949,3.463-2.688,5.411-1.647l22.507,12.003c1.949,1.04,2.688,3.462,1.647,5.412 c-0.72,1.35-2.103,2.119-3.533,2.119c-0.635,0-1.279-0.152-1.878-0.472l-22.507-12.003 C148.97,35.069,148.232,32.646,149.272,30.697z M262.632,100.441c7.144-7.501,7.915-16.336,7.915-19.787 c0-10.356-5.535-17.288-7.915-19.788c-1.523-1.6-1.462-4.132,0.139-5.655c1.6-1.524,4.132-1.46,5.654,0.139 c3.044,3.196,10.122,12.061,10.122,25.304c0,4.413-0.986,15.711-10.122,25.304c-0.786,0.825-1.841,1.241-2.897,1.241 c-0.991,0-1.983-0.366-2.758-1.104C261.17,104.573,261.109,102.042,262.632,100.441z M235.577,105.958 c-3.044-3.196-10.122-12.061-10.122-25.304c0-4.413,0.986-15.712,10.122-25.305c1.524-1.599,4.056-1.662,5.655-0.138 c1.6,1.523,1.661,4.055,0.138,5.655c-7.144,7.501-7.915,16.336-7.915,19.787c0,10.355,5.535,17.288,7.915,19.787 c1.523,1.6,1.462,4.132-0.139,5.655c-0.773,0.737-1.767,1.103-2.757,1.103C237.418,107.2,236.363,106.784,235.577,105.958z M184.874,423.345c0,37.014,30.113,67.127,67.127,67.127s67.127-30.113,67.127-67.127s-30.113-67.127-67.127-67.127 S184.874,386.331,184.874,423.345z M252.001,364.218c32.603,0,59.127,26.524,59.127,59.127c0,32.603-26.524,59.127-59.127,59.127 s-59.127-26.524-59.127-59.127C192.874,390.743,219.399,364.218,252.001,364.218z M262.632,443.132 c7.144-7.501,7.915-16.336,7.915-19.787c0-10.355-5.535-17.288-7.915-19.787c-1.523-1.6-1.462-4.132,0.139-5.655 c1.6-1.524,4.132-1.46,5.654,0.139c3.044,3.196,10.122,12.061,10.122,25.304c0,4.413-0.986,15.712-10.122,25.305 c-0.786,0.825-1.841,1.241-2.897,1.241c-0.991,0-1.983-0.366-2.758-1.104C261.17,447.264,261.109,444.732,262.632,443.132z M235.577,448.649c-3.044-3.196-10.122-12.061-10.122-25.304c0-4.413,0.986-15.711,10.122-25.304 c1.524-1.599,4.056-1.662,5.655-0.138c1.6,1.523,1.661,4.055,0.138,5.655c-7.144,7.501-7.915,16.336-7.915,19.787 c0,10.356,5.535,17.288,7.915,19.788c1.523,1.6,1.462,4.132-0.139,5.655c-0.773,0.737-1.767,1.103-2.757,1.103 C237.418,449.891,236.363,449.475,235.577,448.649z M174.837,423.345c0,2.209-1.791,4-4,4h-24.443c-2.209,0-4-1.791-4-4 s1.791-4,4-4h24.443C173.046,419.345,174.837,421.136,174.837,423.345z M173.026,450.1c1.425,1.689,1.21,4.212-0.479,5.637 l-18.687,15.758c-0.751,0.633-1.667,0.942-2.577,0.942c-1.139,0-2.269-0.483-3.06-1.421c-1.425-1.689-1.21-4.212,0.479-5.637 l18.687-15.758C169.079,448.196,171.603,448.411,173.026,450.1z M167.39,397.07l-18.687-15.758 c-1.688-1.424-1.903-3.948-0.479-5.637c1.425-1.688,3.948-1.903,5.637-0.479l18.687,15.758c1.688,1.424,1.903,3.948,0.479,5.637 c-0.791,0.938-1.922,1.421-3.06,1.421C169.057,398.012,168.141,397.703,167.39,397.07z M451.202,501.5l-66.344-164.035 l-11.63,162.82c-0.15,2.106-1.907,3.715-3.986,3.715c-0.096,0-0.191-0.003-0.289-0.01c-2.203-0.157-3.862-2.071-3.705-4.275 l22.546-315.636c0.158-2.203,2.065-3.855,4.275-3.705c2.203,0.157,3.862,2.071,3.705,4.275l-9.62,134.683L458.618,498.5 c0.828,2.048-0.16,4.38-2.208,5.208c-0.491,0.199-0.999,0.293-1.499,0.293C453.33,504.001,451.832,503.057,451.202,501.5z M312.3,29.374c-1.563-1.562-1.563-4.095,0-5.657l18.037-18.036c1.561-1.562,4.096-1.562,5.656,0c1.563,1.562,1.563,4.095,0,5.657 l-18.037,18.036c-0.78,0.781-1.805,1.171-2.828,1.171S313.08,30.155,312.3,29.374z M326.813,41.053l22.507-12.003 c1.947-1.041,4.372-0.302,5.411,1.647c1.04,1.949,0.302,4.372-1.647,5.412l-22.507,12.003c-0.599,0.32-1.243,0.472-1.878,0.472 c-1.431,0-2.813-0.769-3.533-2.119C324.125,44.515,324.863,42.092,326.813,41.053z M357.609,427.345h-24.443c-2.209,0-4-1.791-4-4 s1.791-4,4-4h24.443c2.209,0,4,1.791,4,4S359.818,427.345,357.609,427.345z M336.612,449.621l18.687,15.758 c1.688,1.424,1.903,3.948,0.479,5.637c-0.791,0.938-1.922,1.421-3.06,1.421c-0.91,0-1.826-0.309-2.577-0.942l-18.687-15.758 c-1.688-1.424-1.903-3.948-0.479-5.637C332.401,448.412,334.924,448.197,336.612,449.621z M330.976,396.591 c-1.425-1.689-1.21-4.212,0.479-5.637l18.687-15.758c1.689-1.425,4.213-1.209,5.637,0.479c1.425,1.689,1.21,4.212-0.479,5.637 l-18.687,15.758c-0.751,0.633-1.667,0.942-2.577,0.942C332.897,398.012,331.767,397.529,330.976,396.591z M224.946,157.818 c-2.209,0-4,1.791-4,4v180.363c0,2.209,1.791,4,4,4s4-1.791,4-4v-32.073h46.109v32.073c0,2.209,1.791,4,4,4s4-1.791,4-4V161.818 c0-2.209-1.791-4-4-4s-4,1.791-4,4v32.073h-46.109v-32.073C228.946,159.609,227.155,157.818,224.946,157.818z M228.946,302.109V256 h46.109v46.109H228.946z M275.056,201.891V248h-46.109v-46.109H275.056z"></path></symbol></defs><use data-v-6ca697d7="" xlink:href="#httpsc0piktochartcomv2externalassetsiconscout107404d6a47876e19888b090e383915dc0b9c492svg-original" href="#httpsc0piktochartcomv2externalassetsiconscout107404d6a47876e19888b090e383915dc0b9c492svg-original"></use></svg>