<svg xmlns:xlink="http://www.w3.org/1999/xlink" xmlns="http://www.w3.org/2000/svg" data-v-6ca697d7="" width="47" height="47" style="display: block; color: rgb(0, 0, 0);"><defs><symbol id="httpsc0piktochartcomv2externalassetsiconscout64dbd57d292a9f79e4becd7689df6a859e4db591svg-custom" viewBox="0.009999999776482582 0 24 24" preserveAspectRatio="none"><path xmlns="http://www.w3.org/2000/svg" fill="none" d="M.01 0h24v24h-24V0z"></path><path xmlns="http://www.w3.org/2000/svg" d="M5.5 21v-6.5H5c-.55 0-1-.45-1-1V9c0-1.1.9-2 2-2h3c1.1 0 2 .9 2 2v4.5c0 .55-.45 1-1 1h-.5V21c0 .55-.45 1-1 1h-2c-.55 0-1-.45-1-1zM18 21v-5h1.61c.68 0 1.16-.67.95-1.32l-2.1-6.31C18.18 7.55 17.42 7 16.56 7h-.12c-.86 0-1.63.55-1.9 1.37l-2.1 6.31c-.22.65.26 1.32.95 1.32H15v5c0 .55.45 1 1 1h1c.55 0 1-.45 1-1zM7.5 6c1.11 0 2-.89 2-2s-.89-2-2-2-2 .89-2 2 .89 2 2 2zm9 0c1.11 0 2-.89 2-2s-.89-2-2-2-2 .89-2 2 .89 2 2 2z" fill="#212529"></path></symbol></defs><use data-v-6ca697d7="" xlink:href="#httpsc0piktochartcomv2externalassetsiconscout64dbd57d292a9f79e4becd7689df6a859e4db591svg-custom" href="#httpsc0piktochartcomv2externalassetsiconscout64dbd57d292a9f79e4becd7689df6a859e4db591svg-custom"></use></svg>