<svg xmlns:xlink="http://www.w3.org/1999/xlink" xmlns="http://www.w3.org/2000/svg" data-v-6ca697d7="" width="128" height="128" style="display: block; color: rgb(0, 0, 0);"><defs><symbol id="httpsc0piktochartcomv2externalassetsiconscout8852175f41baf6f1c13950224d72d46595833eafsvg-original" viewBox="0 0 128 128" preserveAspectRatio="none"><path xmlns="http://www.w3.org/2000/svg" fill="#FFFFFF" d="M99 123H39c-8.3 0-15-6.7-15-15V23L14 3h95c2.8 0 5 2.2 5 5v100c0 8.3-6.7 15-15 15z"></path><path xmlns="http://www.w3.org/2000/svg" fill="#D8D8D8" d="M109 59.9V108c0 5.5-4.5 10-10 10H39c-5.5 0-10-4.5-10-10V73c11.4-.4 22.8-3.2 33-8.2 9.7-4.7 20.5-7.2 31.2-7.2 5.3 0 10.7.6 15.9 1.8"></path><path xmlns="http://www.w3.org/2000/svg" d="M34 108V3H14l10 20v85c0 8.3 6.7 15 15 15h10c-8.3 0-15-6.7-15-15z" opacity=".1"></path><circle xmlns="http://www.w3.org/2000/svg" cx="55" cy="103" r="5" fill="#FFFFFF" opacity=".5"></circle><circle xmlns="http://www.w3.org/2000/svg" cx="65" cy="83" r="2.5" fill="#FFFFFF" opacity=".5"></circle><circle xmlns="http://www.w3.org/2000/svg" cx="75" cy="93" r="3.5" fill="#FFFFFF" opacity=".5"></circle><path xmlns="http://www.w3.org/2000/svg" fill="#4A374F" d="M27.5 73c0 .8.7 1.5 1.5 1.5 11.6-.4 23.2-3.3 33.6-8.3 9.5-4.6 20-7.1 30.6-7.1 5.2 0 10.4.6 15.5 1.8.8.2 1.6-.3 1.8-1.1s-.3-1.6-1.1-1.8c-5.3-1.2-10.8-1.8-16.2-1.8-11 0-22 2.5-31.9 7.4-10 4.9-21.2 7.7-32.4 8-.8-.1-1.4.6-1.4 1.4z"></path><path xmlns="http://www.w3.org/2000/svg" fill="#4A374F" d="M39 124.5h60c9.1 0 16.5-7.4 16.5-16.5V8c0-3.6-2.9-6.5-6.5-6.5H14c-.5 0-1 .3-1.3.7s-.3 1-.1 1.5l9.8 19.7V108c.1 9.1 7.5 16.5 16.6 16.5zM16.4 4.5H109c1.9 0 3.5 1.6 3.5 3.5v100c0 7.4-6.1 13.5-13.5 13.5H39c-7.4 0-13.5-6.1-13.5-13.5V64.5H29c.8 0 1.5-.7 1.5-1.5s-.7-1.5-1.5-1.5h-3.5v-7H29c.8 0 1.5-.7 1.5-1.5s-.7-1.5-1.5-1.5h-3.5v-7H29c.8 0 1.5-.7 1.5-1.5s-.7-1.5-1.5-1.5h-3.5v-7H29c.8 0 1.5-.7 1.5-1.5s-.7-1.5-1.5-1.5h-3.5v-7H29c.8 0 1.5-.7 1.5-1.5s-.7-1.5-1.5-1.5h-4.1l-8.5-17z"></path><path xmlns="http://www.w3.org/2000/svg" fill="none" stroke="#FFFFFF" stroke-linecap="round" stroke-linejoin="round" stroke-miterlimit="10" stroke-width="5px" opacity=".8" d="M99 18v70M89 18v50"></path></symbol></defs><use data-v-6ca697d7="" xlink:href="#httpsc0piktochartcomv2externalassetsiconscout8852175f41baf6f1c13950224d72d46595833eafsvg-original" href="#httpsc0piktochartcomv2externalassetsiconscout8852175f41baf6f1c13950224d72d46595833eafsvg-original"></use></svg>