<svg xmlns:xlink="http://www.w3.org/1999/xlink" xmlns="http://www.w3.org/2000/svg" data-v-6ca697d7="" width="340" height="340" style="display: block; color: rgb(0, 0, 0);"><defs><symbol id="httpsc0piktochartcomv2externalassetsiconscoutd086b102b72cc4c35a7f0db40705f9daa6148d79svg-original" viewBox="0 0 340 340" preserveAspectRatio="none" xmlns:xlink="http://www.w3.org/1999/xlink"><defs xmlns="http://www.w3.org/2000/svg"><linearGradient id="rBnkid-a" x1="197.624" x2="231.341" y1="134.155" y2="425.504" gradientUnits="userSpaceOnUse"><stop offset="0" stop-color="#fcd0be"></stop><stop offset="1" stop-color="#efa69a"></stop></linearGradient><linearGradient id="rBnkid-c" x1="70.071" x2="70.071" y1="96.975" y2="313.93" xlink:href="#rBnkid-a" xmlns:xlink="http://www.w3.org/1999/xlink"></linearGradient><radialGradient id="rBnkid-b" cx="209.541" cy="241.292" r="79.387" gradientUnits="userSpaceOnUse"><stop offset="0" stop-color="#f97d7d"></stop><stop offset="1" stop-color="#fcd0be"></stop></radialGradient></defs><path xmlns="http://www.w3.org/2000/svg" fill="url(&quot;#rBnkid-a&quot;)" d="m208.285 163.2-7.211 50.473c13.013 27.355 22.126 48.318 22.126 48.318l10.268-3.938a9.949 9.949 0 0 0 6.309-10.288 88.306 88.306 0 0 0-5.238-22.569 16.961 16.961 0 0 1-.635-10.153c7.567-30.376 15.393-61.006 18.6-73.512a15.436 15.436 0 0 0-1.387-11.2l-1.171-2.16a15.5 15.5 0 0 0-12.641-8.063c-56.094-3.569-95.563 6.9-95.563 6.9l27.484 46.365c15.505-7.253 39.059-10.173 39.059-10.173Z"></path><path xmlns="http://www.w3.org/2000/svg" fill="url(&quot;#rBnkid-b&quot;)" d="M201.074 213.669a209.638 209.638 0 0 0-31.849-40.3l-27.484-46.365-38 22.943-11.233-24.133L48.182 143.2l9.672 21.333-11.815 12.645a28.55 28.55 0 0 0-6.978 13.167c-4.691 20.632-16.491 79.167-11.877 128.138a14.971 14.971 0 0 0 14.94 13.493h193.063s.8-30.886-11.987-69.989c.467-.542-8.248-21.968-22.126-48.318ZM74.5 289.992c.485-33 9.221-52.9 9.221-52.9 10.85 14.631 17.69 33.715 20.974 44.506l3.827 8.4Z"></path><path xmlns="http://www.w3.org/2000/svg" fill="#464965" d="M92.508 125.814 48.182 143.2l9.672 21.333c15.692-11.188 33.1-21.476 40.653-25.825Z"></path><path xmlns="http://www.w3.org/2000/svg" fill="url(&quot;#rBnkid-c&quot;)" d="M37.363 42.369C58.211 37.1 95.677 25.647 113.3 8.025c0 0 7.186 18.413-6.287 33.232l8.2 2.246s3.475 9.879-6.854 18.412c0 0 4.953 29.19 7.417 59.727L48.182 143.2s-16.24-32.112-23.624-81.612a17.2 17.2 0 0 1 12.805-19.219Z"></path><path xmlns="http://www.w3.org/2000/svg" fill="#FC6B98" d="m95.565 113.766-30.624 8.784s-4.654-12.155.334-20.865c0 0 4.659-5.034 11.112-5.763 17.53-1.98 19.178 17.844 19.178 17.844Z"></path><path xmlns="http://www.w3.org/2000/svg" fill="#464965" d="M77.4 93.756c19.585-4.072 20.753 19.382 20.753 19.382l-8.228 2.332c-.47-3.111-2.585-12.638-11.035-14.64a23.5 23.5 0 0 0-13.6.862c2.057-3.599 5.75-6.613 12.11-7.936zm91.825 79.618a166.468 166.468 0 0 0-20.039 10.726s32.428 11.753 51.888 29.571a209.638 209.638 0 0 0-31.849-40.297z"></path><circle xmlns="http://www.w3.org/2000/svg" cx="315.635" cy="202.995" r="3.5" fill="#8B9AC9"></circle><path xmlns="http://www.w3.org/2000/svg" fill="#CC6262" d="m163.109 302.235 23.718-1.224v7l-23.718-1.224a2.092 2.092 0 0 1-1.985-2.09v-.372a2.092 2.092 0 0 1 1.985-2.09zm-.016 14.109 23.734-1.411v7l-23.734-1.411a2.092 2.092 0 0 1-1.969-2.089 2.093 2.093 0 0 1 1.969-2.089z"></path><path xmlns="http://www.w3.org/2000/svg" fill="#8B9AC9" d="M261.263 223.759a3.5 3.5 0 0 1-.237-6.992l12.56-.864a9.275 9.275 0 0 0 6.884-3.81l1.95-2.682a16.271 16.271 0 0 1 8.556-6.049 69.908 69.908 0 0 1 7.566-1.729 3.5 3.5 0 1 1 1.192 6.9 63.12 63.12 0 0 0-6.806 1.554 9.234 9.234 0 0 0-4.846 3.444l-1.95 2.681a16.259 16.259 0 0 1-12.065 6.678l-12.56.863a6.732 6.732 0 0 1-.244.006zM275.119 252a16.356 16.356 0 0 1-2.816-.244l-12.4-2.163a3.5 3.5 0 1 1 1.2-6.9l12.4 2.163a9.283 9.283 0 0 0 7.595-2.054l2.535-2.138a16.26 16.26 0 0 1 9.754-3.829 80.578 80.578 0 0 1 23.223 2.709 3.5 3.5 0 0 1-1.956 6.721 74.441 74.441 0 0 0-20.979-2.436 9.225 9.225 0 0 0-5.528 2.185l-2.535 2.138A16.256 16.256 0 0 1 275.119 252zm32.431 37.9a3.482 3.482 0 0 1-1.987-.621 74.582 74.582 0 0 0-19.135-8.932 9.237 9.237 0 0 0-5.936.328l-3.08 1.229a16.262 16.262 0 0 1-13.767-.787l-11.085-5.967a3.5 3.5 0 1 1 3.318-6.163l11.085 5.968a9.281 9.281 0 0 0 7.856.448l3.08-1.229a16.256 16.256 0 0 1 10.463-.553 80.487 80.487 0 0 1 21.181 9.9 3.5 3.5 0 0 1-1.993 6.38z"></path><path xmlns="http://www.w3.org/2000/svg" fill="#464965" d="M64.941 126.051a3.5 3.5 0 0 0 .965-.136l24.27-6.962a3.453 3.453 0 0 0 .7-.116l8.228-2.332a3.5 3.5 0 0 0 2.541-3.541c-.027-.537-.749-13.218-9.028-19.617-4.282-3.31-9.643-4.325-15.932-3.017-6.603 1.37-11.395 4.531-14.27 9.37-.058.083-.125.157-.177.247-5.747 10.034-.779 23.3-.565 23.856a3.5 3.5 0 0 0 3.268 2.248Zm23.378-27.18c3.814 2.934 5.355 8.321 5.961 11.622l-1.79.514c-1.449-4.823-4.873-11.707-12.79-13.583q-.68-.162-1.36-.286c4.132-.818 7.402-.25 9.979 1.733Zm-10.237 5.364c4.567 1.082 6.705 5.444 7.685 8.7l-18.449 5.292c-.812-3.42-1.593-9.064.427-13.658a19.77 19.77 0 0 1 10.337-.334Z"></path><path xmlns="http://www.w3.org/2000/svg" fill="#464965" d="M253.022 126.5a18.891 18.891 0 0 0-15.5-9.887c-56.015-3.564-95.049 6.58-96.683 7.014a3.478 3.478 0 0 0-.912.387l-34.662 20.928-6.595-14.172 18.164-5.792a3.5 3.5 0 0 0 2.425-3.616c-2.088-25.882-6-51.08-7.138-58.108 10.185-9.655 6.556-20.437 6.389-20.912a3.5 3.5 0 0 0-2.377-2.215l-3.133-.86c10.108-15.223 3.86-31.753 3.563-32.514a3.5 3.5 0 0 0-5.736-1.2C93.79 22.584 56.949 33.8 36.5 38.976A20.643 20.643 0 0 0 21.1 62.1c7.3 48.941 22.928 80.615 23.925 82.6l8.675 19.149-10.221 10.94a32.1 32.1 0 0 0-7.833 14.78C30.52 212.127 19.089 269.876 23.7 318.811a18.376 18.376 0 0 0 18.424 16.665h135.684c4.644 0 11.553-2.9 11.553-10.893v-25.391a12.714 12.714 0 0 0-12.7-12.7h-25.189v-3.964A11.682 11.682 0 0 0 139.8 270.86a12.736 12.736 0 0 0-9.765 4.544l-9.334 11.088h-10.958c-2.172-8.2-9.529-33.036-23.211-51.486a3.5 3.5 0 0 0-6.016.679c-.368.838-9.026 20.929-9.516 54.256a3.5 3.5 0 0 0 3.5 3.551h47.834a3.5 3.5 0 0 0 2.677-1.246l10.389-12.334a5.749 5.749 0 0 1 4.409-2.052 4.673 4.673 0 0 1 4.668 4.668v7.464a3.5 3.5 0 0 0 3.5 3.5h28.689a5.706 5.706 0 0 1 5.7 5.7v1.819H162.09a3.5 3.5 0 1 0 0 7h20.271v6.922H162.09a3.5 3.5 0 0 0 0 7h20.271v2.65c0 3.44-3.2 3.868-4.553 3.893H42.124a11.406 11.406 0 0 1-11.455-10.322c-4.516-47.927 6.751-104.8 11.8-127.033a25.1 25.1 0 0 1 6.131-11.554l11.569-12.387c13.593-9.669 28.567-18.712 36.782-23.522l3.617 7.771a3.5 3.5 0 0 0 4.982 1.519l37.55-22.674c4.59-1.134 42.4-9.962 93.978-6.676a11.923 11.923 0 0 1 9.786 6.238l1.175 2.164a11.919 11.919 0 0 1 1.074 8.662c-3.049 11.894-10.966 42.87-18.6 73.536a20.37 20.37 0 0 0 .762 12.248 84.531 84.531 0 0 1 5.023 21.662 6.47 6.47 0 0 1-4.078 6.678l-6.986 2.679a405.674 405.674 0 0 0-20.534-44.454l7.046-49.32a3.5 3.5 0 0 0-3.9-3.968c-.984.122-24.254 3.074-40.079 10.465l-.021.01h-.01a168.455 168.455 0 0 0-20.47 10.965 3.5 3.5 0 0 0 .722 6.22c.315.114 31.552 11.571 50.306 28.5a392.5 392.5 0 0 1 21.594 47.252c12.411 37.978 11.8 68.446 11.795 68.749 0 .031.006.059.006.09h6.994c.045-2.014.467-30.749-11.147-67.9l7.18-2.755a13.488 13.488 0 0 0 8.539-13.9 91.63 91.63 0 0 0-5.451-23.475 13.407 13.407 0 0 1-.509-8.058c7.634-30.645 15.546-61.6 18.594-73.49a18.893 18.893 0 0 0-1.7-13.737ZM78.085 286.492a160.711 160.711 0 0 1 6.633-41.74c9.646 15.275 15.46 33.577 17.756 41.74ZM59.3 159.238l-6.3-13.9 38.956-12.424 2.034 4.37c-7.578 4.422-21.466 12.769-34.69 21.954Zm-9.255-20.307c-3.929-8.651-16.011-37.56-22.022-77.861a13.664 13.664 0 0 1 10.2-15.308c19.542-4.944 53.65-15.309 73.089-31.238.915 5.921.86 15.856-6.888 24.379a3.5 3.5 0 0 0 1.665 5.73l6.132 1.678c.271 2.646-.112 7.968-6.089 12.905a3.5 3.5 0 0 0-1.222 3.284c.048.281 4.658 27.623 7.147 56.654Zm107.044 44.531a181.92 181.92 0 0 1 11.375-5.874 205.082 205.082 0 0 1 18.078 20.918 211.671 211.671 0 0 0-29.456-15.044Zm41.857 20.383a213.562 213.562 0 0 0-23.596-29.255c10.162-3.868 22.339-6.188 28.806-7.242Z"></path></symbol></defs><use data-v-6ca697d7="" xlink:href="#httpsc0piktochartcomv2externalassetsiconscoutd086b102b72cc4c35a7f0db40705f9daa6148d79svg-original" href="#httpsc0piktochartcomv2externalassetsiconscoutd086b102b72cc4c35a7f0db40705f9daa6148d79svg-original"></use></svg>