<svg xmlns:xlink="http://www.w3.org/1999/xlink" xmlns="http://www.w3.org/2000/svg" data-v-6ca697d7="" width="104" height="99" style="display: block; color: rgb(0, 0, 0);"><defs><symbol id="httpsc0piktochartcomv2externalassetsiconscout5929adcaa7887e2b52500200ab41347aac1a67bdsvg-original" viewBox="0 0 64 64" preserveAspectRatio="none"><path xmlns="http://www.w3.org/2000/svg" fill="#F4B19D" d="M2,59h28l2,2h27c1.10457,0,2-0.89543,2-2V59c0-1.10457-0.89543-2-2-2H44h15c1.10457,0,2-0.89543,2-2 V55c0-1.10457-0.89543-2-2-2H44h15c1.10457,0,2-0.89543,2-2V51c0-1.10457-0.89543-2-2-2H44h15c1.10457,0,2-0.89543,2-2V47 c0-1.10457-0.89543-2-2-2H38l4.17157-4.17157c0.53043-0.53043,0.82843-1.24986,0.82843-2v-0.00001 C43,37.26633,41.73367,36,40.17158,36h-0.00001c-0.75014,0-1.46956,0.29799-2,0.82843L31,44h-4H15H2V59z"></path><path xmlns="http://www.w3.org/2000/svg" fill="#5DC4DD" d="M30,2v18l2,2v10l-5,5v-6v15c0,1.10457-0.89543,2-2,2h0c-1.10457,0-2-0.89543-2-2V31v15 c0,1.10457-0.89543,2-2,2h0c-1.10457,0-2-0.89543-2-2V31v15c0,1.10457-0.89543,2-2,2h0c-1.10457,0-2-0.89543-2-2V31v5 c0,1.10457-0.89543,2-2,2h0c-1.10457,0-2-0.89543-2-2V21l2-2V2H30z"></path><path xmlns="http://www.w3.org/2000/svg" fill="#EA5B58" d="M47,32c0,0-4.89157-4.21115-5.68987-6c-0.89253-2,0.16735-5,2.84494-5C45.94012,21,47,23,47,23 s1.05988-2,2.84494-2c2.67759,0,3.73746,3,2.84494,5C51.89157,27.78885,47,32,47,32z"></path><path xmlns="http://www.w3.org/2000/svg" fill="#1E191A" d="M59,44H40.41406l2.46436-2.46436C43.60156,40.8125,44,39.85107,44,38.82861 C44,36.71729,42.28271,35,40.17139,35c-1.02246,0-1.98389,0.39844-2.70703,1.12158L30.58594,43H28v-5.58594l4.70703-4.70703 C32.89453,32.51953,33,32.26514,33,32V22c0-0.26514-0.10547-0.51953-0.29297-0.70703L31,19.58594V2h-2v18 c0,0.26514,0.10547,0.51953,0.29297,0.70703L31,22.41406v9.17188l-3,3V31h-2v15c0,0.55127-0.44873,1-1,1s-1-0.44873-1-1V31h-2v15 c0,0.55127-0.44873,1-1,1s-1-0.44873-1-1V31h-2v15c0,0.55127-0.44873,1-1,1s-1-0.44873-1-1V36v-5h-2v5c0,0.55127-0.44873,1-1,1 s-1-0.44873-1-1V21.41406l1.70703-1.70703C13.89453,19.51953,14,19.26514,14,19V2h-2v16.58594l-1.70703,1.70703 C10.10547,20.48047,10,20.73486,10,21v15c0,1.6543,1.3457,3,3,3c0.35236,0,0.68567-0.0722,1-0.18427V43H2v2h12v1 c0,1.6543,1.3457,3,3,3c0.77112,0,1.46802-0.30054,2-0.78027C19.53198,48.69946,20.22888,49,21,49s1.46802-0.30054,2-0.78027 C23.53198,48.69946,24.22888,49,25,49c1.6543,0,3-1.3457,3-3v-1h3c0.26514,0,0.51953-0.10547,0.70703-0.29297l7.17139-7.17139 C39.22412,37.19043,39.68311,37,40.17139,37C41.17969,37,42,37.82031,42,38.82861c0,0.48828-0.19043,0.94727-0.53564,1.29297 l-4.17139,4.17139c-0.28613,0.28613-0.37158,0.71582-0.2168,1.08984C37.23096,45.75635,37.5957,46,38,46h21c0.55127,0,1,0.44873,1,1 s-0.44873,1-1,1H44v2h15c0.55127,0,1,0.44873,1,1s-0.44873,1-1,1H44v2h15c0.55127,0,1,0.44873,1,1s-0.44873,1-1,1H44v2h15 c0.55127,0,1,0.44873,1,1s-0.44873,1-1,1H32.41406l-1.70703-1.70703C30.51953,58.10547,30.26514,58,30,58H2v2h27.58594 l1.70703,1.70703C31.48047,61.89453,31.73486,62,32,62h27c1.6543,0,3-1.3457,3-3c0-0.77112-0.30054-1.46802-0.78027-2 C61.69946,56.46802,62,55.77112,62,55s-0.30054-1.46802-0.78027-2C61.69946,52.46802,62,51.77112,62,51s-0.30054-1.46802-0.78027-2 C61.69946,48.46802,62,47.77112,62,47C62,45.3457,60.6543,44,59,44z"></path><path xmlns="http://www.w3.org/2000/svg" fill="#1E191A" d="M22.66504 50.70752c-1.0918.38867-2.23828.38867-3.33008 0l-.66992 1.88477C19.42676 52.86279 20.21191 53 21 53s1.57324-.13721 2.33496-.40771L22.66504 50.70752zM16 51c-2.20557 0-4-1.79443-4-4h-2c0 3.30859 2.69141 6 6 6V51zM32 47h-2c0 2.20557-1.79443 4-4 4v2C29.30859 53 32 50.30859 32 47zM40.39697 26.40771c.86426 1.9375 5.43262 5.9043 5.95068 6.3501C46.53516 32.91943 46.76758 33 47 33s.46484-.08057.65234-.24219c.51807-.4458 5.08643-4.4126 5.95068-6.3501.64355-1.44189.49951-3.23682-.36768-4.57324C52.46777 20.65137 51.26367 20 49.84473 20 48.59033 20 47.63135 20.68652 47 21.34521 46.36865 20.68652 45.40967 20 44.15527 20c-1.41895 0-2.62305.65137-3.39062 1.83447C39.89746 23.1709 39.75342 24.96582 40.39697 26.40771zM42.44238 22.92334C42.71533 22.50195 43.23438 22 44.15527 22c1.13281 0 1.95557 1.45801 1.96094 1.46826.17285.32568.51172.52783.87988.5293.00195 0 .00342 0 .00488 0 .3667 0 .70557-.20264.88037-.5249C47.88916 23.45801 48.71191 22 49.84473 22c.9209 0 1.43994.50195 1.71289.92334.49219.7583.58203 1.85596.21924 2.66895-.45752 1.0249-2.94678 3.44775-4.77686 5.07812-1.83008-1.62988-4.31885-4.05225-4.77686-5.07812C41.86035 24.7793 41.9502 23.68164 42.44238 22.92334zM43.46436 17.02393l1.41406 1.41406c1.16992-1.16992 3.07324-1.16992 4.24316 0l1.41406-1.41406C48.58643 15.07373 45.41357 15.07373 43.46436 17.02393z"></path><path xmlns="http://www.w3.org/2000/svg" fill="#1E191A" d="M53.68018,14.02393C51.89502,12.23828,49.52246,11.25439,47,11.25439 s-4.89502,0.98389-6.68018,2.76953l1.41406,1.41406C43.1416,14.03027,45.01172,13.25439,47,13.25439s3.8584,0.77588,5.26611,2.18359 L53.68018,14.02393z"></path><path xmlns="http://www.w3.org/2000/svg" fill="#1E191A" d="M55.29297,12.43799l1.41406-1.41406c-5.35254-5.35254-14.06152-5.35254-19.41406,0l1.41406,1.41406 C43.28027,7.86572,50.71973,7.86572,55.29297,12.43799z"></path></symbol></defs><use data-v-6ca697d7="" xlink:href="#httpsc0piktochartcomv2externalassetsiconscout5929adcaa7887e2b52500200ab41347aac1a67bdsvg-original" href="#httpsc0piktochartcomv2externalassetsiconscout5929adcaa7887e2b52500200ab41347aac1a67bdsvg-original"></use></svg>