<svg xmlns:xlink="http://www.w3.org/1999/xlink" xmlns="http://www.w3.org/2000/svg" data-v-6ca697d7="" width="128" height="128" style="display: block; color: rgb(0, 0, 0);"><defs><symbol id="httpsc0piktochartcomv2externalassetsiconscout7391217308dd7bd39547cfdb8518e7daca365eabsvg-original" viewBox="0 0 128 128" preserveAspectRatio="none"><path xmlns="http://www.w3.org/2000/svg" fill="#E1EBF4" d="M77,56.73V68a13,13,0,0,1-26,0V56.73a13.69911,13.69911,0,0,0,3.09-7.6c.08-.44.96-4.81,4.06-7.1a6.02652,6.02652,0,0,0,2.17-6.47,12.37143,12.37143,0,0,1,7.36,0,6.04328,6.04328,0,0,0,2.17,6.47c3.12,2.3,3.98,6.66,4.06,7.1A13.77154,13.77154,0,0,0,77,56.73Z"></path><path xmlns="http://www.w3.org/2000/svg" fill="#E1EBF4" d="M76,80.03v2.92L64,99.06,52,82.95V80.03a16.97184,16.97184,0,0,0,24,0Z"></path><path xmlns="http://www.w3.org/2000/svg" fill="#FC785E" d="M123.86,87.68c-.73,4.01-3.15,6.1-8.3,9.25l-19.35,11.8a5.65576,5.65576,0,0,0-3.1,5.04V126a2.00591,2.00591,0,0,0,2,2H32.89a2.00591,2.00591,0,0,0,2-2V113.77a5.65576,5.65576,0,0,0-3.1-5.04L12.44,96.93c-4.6-2.78-7.58-5.3-8.3-9.25A8.83673,8.83673,0,0,1,6.7,79.71c3.36-3.11,27.7-23.44,32.16-26.85a4.40316,4.40316,0,0,0,1.52-2.17l3.1-9.75a1.59748,1.59748,0,0,0,.05-.21c.64-3.13,3.93-5.8,4.00995-5.86,1.15-.99,1.88-.89,2.12-.85a3.92819,3.92819,0,0,1,2.22,1.64,1.992,1.992,0,0,0,2.34.83,2.51232,2.51232,0,0,1,2.28.2,2.07083,2.07083,0,0,1-.73,2.12c-4.61,3.41-5.6,9.48-5.64,9.74a.33971.33971,0,0,0-.01.1c-.65,6.33-5.15,7.87-6.51,8.19a1.96329,1.96329,0,0,0-1.29.98c-.93,1.38-12.34,16.85-19.89,27.06a1.99731,1.99731,0,0,0,1.84,3.17l24.38-2.9L61.5,102.4a3.125,3.125,0,0,0,5,0L79.35,85.15l24.38,2.9a1.99731,1.99731,0,0,0,1.84-3.17c-7.53-10.18-18.9-25.6-19.88-27.05a1.96547,1.96547,0,0,0-1.3-.99c-1.36-.32-5.86-1.86-6.51-8.19a.33971.33971,0,0,0-.01-.1c-.04-.26-1.03-6.33-5.64-9.74a2.07083,2.07083,0,0,1-.73-2.12,2.51232,2.51232,0,0,1,2.28-.2,2.004,2.004,0,0,0,2.33-.82,3.94994,3.94994,0,0,1,2.24-1.65c.23-.04.96-.14,2.17.89.03.02,3.31,2.71,3.95,5.82a1.59748,1.59748,0,0,0,.05.21l3.1,9.75a4.40316,4.40316,0,0,0,1.52,2.17c4.46,3.41,28.8,23.74,32.16,26.85A8.81,8.81,0,0,1,123.86,87.68Z"></path><path xmlns="http://www.w3.org/2000/svg" fill="#2D4356" d="M16.8945 49.79l8-4a2.00021 2.00021 0 10-1.789-3.5781l-8 4a2.00021 2.00021 0 101.789 3.5781zM22.5054 37.32911a1.99975 1.99975 0 002.9892-2.6572l-8-9a1.99975 1.99975 0 10-2.9892 2.6572zM58.12739 22.70311a2.02373 2.02373 0 002.5747 1.16989 1.999 1.999 0 001.1705-2.57419l-3-8a1.99991 1.99991 0 10-3.7452 1.4043S58.125 22.69631 58.12739 22.70311zM67.29789 23.873a2.017 2.017 0 002.5747-1.16989l3-8a1.99991 1.99991 0 10-3.7452-1.4043l-3 8A1.999 1.999 0 0067.29789 23.873zM59.71879 58.3838a1.99751 1.99751 0 00-2.7413-.6963l-2 1.1895a1.99933 1.99933 0 00-.6962 2.7412 2.02142 2.02142 0 002.7412.6963l2-1.1895A1.99968 1.99968 0 0059.71879 58.3838zM68.28129 58.3838a1.99957 1.99957 0 00.6962 2.7412l2 1.1895a1.9999 1.9999 0 102.045-3.4375l-2-1.1895A1.99921 1.99921 0 0068.28129 58.3838z"></path><path xmlns="http://www.w3.org/2000/svg" fill="#2D4356" d="M124.02,76.78c-3.4-3.15-27.96-23.66-32.44-27.09a.48265.48265,0,0,1-.15-.22l-3.07-9.65c-.98-4.52-5.17-7.9-5.3-8a6.52868,6.52868,0,0,0-5.34-1.75,7.20282,7.20282,0,0,0-4.08,2.31,6.69653,6.69653,0,0,0-2.57.18,16.80086,16.80086,0,0,0-14.14,0,6.69653,6.69653,0,0,0-2.57-.18,7.20282,7.20282,0,0,0-4.08-2.31A6.44458,6.44458,0,0,0,45,31.78c-.18.14-4.38,3.52-5.36,8.04l-3.07,9.66a.51084.51084,0,0,1-.15.21C31.94,53.12,7.38,73.63,3.99,76.78A12.78272,12.78272,0,0,0,.21,88.39C1.29,94.4,6.02,97.72,10.36,100.35L29.79,112.2a1.5122,1.5122,0,0,0,.18.09,1.64548,1.64548,0,0,1,.92,1.48V126a2,2,0,0,0,4,0V113.77a5.65576,5.65576,0,0,0-3.1-5.04L12.44,96.93c-4.6-2.78-7.58-5.3-8.3-9.25A8.83673,8.83673,0,0,1,6.7,79.71c3.36-3.11,27.7-23.44,32.16-26.85a4.40316,4.40316,0,0,0,1.52-2.17l3.1-9.75a1.59748,1.59748,0,0,0,.05-.21c.64-3.13,3.93-5.8,4.00995-5.86,1.15-.99,1.88-.89,2.12-.85a3.92819,3.92819,0,0,1,2.22,1.64,1.992,1.992,0,0,0,2.34.83,2.51232,2.51232,0,0,1,2.28.2,2.07083,2.07083,0,0,1-.73,2.12c-4.61,3.41-5.6,9.48-5.64,9.74a.33971.33971,0,0,0-.01.1c-.65,6.33-5.15,7.87-6.51,8.19a1.96329,1.96329,0,0,0-1.29.98c-.93,1.38-12.34,16.85-19.89,27.06a1.99731,1.99731,0,0,0,1.84,3.17l24.38-2.9L61.5,102.4a3.125,3.125,0,0,0,5,0L79.35,85.15l24.38,2.9a1.99731,1.99731,0,0,0,1.84-3.17c-7.53-10.18-18.9-25.6-19.88-27.05a1.96547,1.96547,0,0,0-1.3-.99c-1.36-.32-5.86-1.86-6.51-8.19a.33971.33971,0,0,0-.01-.1c-.04-.26-1.03-6.33-5.64-9.74a2.07083,2.07083,0,0,1-.73-2.12,2.51232,2.51232,0,0,1,2.28-.2,2.004,2.004,0,0,0,2.33-.82,3.94994,3.94994,0,0,1,2.24-1.65c.23-.04.96-.14,2.17.89.03.02,3.31,2.71,3.95,5.82a1.59748,1.59748,0,0,0,.05.21l3.1,9.75a4.40316,4.40316,0,0,0,1.52,2.17c4.46,3.41,28.8,23.74,32.16,26.85a8.81,8.81,0,0,1,2.56,7.97c-.73,4.01-3.15,6.1-8.3,9.25l-19.35,11.8a5.65576,5.65576,0,0,0-3.1,5.04V126a2,2,0,0,0,4,0V113.77a1.64548,1.64548,0,0,1,.92-1.48c.06995-.03.12994-.06.18994-.09l19.42-11.85c4.92-3.01,9.07-5.99,10.15-11.96A12.80276,12.80276,0,0,0,124.02,76.78ZM48,81.2,28.4,83.54c1.91-2.6,4.59-6.23,7.27-9.86,5.79-7.86,8.39-11.39,9.54-13.13A12.54954,12.54954,0,0,0,47,59.84V68a17.01345,17.01345,0,0,0,1,5.69Zm32-7.51A16.76629,16.76629,0,0,0,81,68V59.84a11.68329,11.68329,0,0,0,1.79.71c1.14,1.73,3.74005,5.26,9.54,13.13,2.68,3.63,5.36,7.26,7.27,9.86L80,81.2Zm-4,9.26L64,99.06,52,82.95V80.03a16.97184,16.97184,0,0,0,24,0ZM73.91,49.13A13.77154,13.77154,0,0,0,77,56.73V68a13,13,0,0,1-26,0V56.73a13.69911,13.69911,0,0,0,3.09-7.6c.08-.44.96-4.81,4.06-7.1a6.02652,6.02652,0,0,0,2.17-6.47,12.37143,12.37143,0,0,1,7.36,0,6.04328,6.04328,0,0,0,2.17,6.47C72.97,44.33,73.83,48.69,73.91,49.13Z"></path><circle xmlns="http://www.w3.org/2000/svg" cx="64" cy="112.001" r="2" fill="#2D4356"></circle><circle xmlns="http://www.w3.org/2000/svg" cx="64" cy="120.001" r="2" fill="#2D4356"></circle><path xmlns="http://www.w3.org/2000/svg" fill="#2D4356" d="M63.999 69.1582a7.68093 7.68093 0 00-5.40231 2.2598 1.99975 1.99975 0 00-.0215 2.8281 2.02239 2.02239 0 002.8286.0215 3.6782 3.6782 0 015.1924 0 2.00018 2.00018 0 102.8066-2.8506A7.68567 7.68567 0 0063.999 69.1582zM35.0894 20.80031a2.02345 2.02345 0 002.6328 1.0342 2.00036 2.00036 0 001.0341-2.6328l-2.7026-6.2002H39a1.99983 1.99983 0 001.8159-2.8379l-4.1538-9a1.99989 1.99989 0 10-3.6318 1.67579l2.8437 6.1621H33a2.00022 2.00022 0 00-1.8335 2.79885zM89 13.002h2.94629l-2.7031 6.20011a2.00017 2.00017 0 103.667 1.5987l3.9233-9A2.00023 2.00023 0 0095 9.002H92.126l2.84369-6.16211a1.99989 1.99989 0 10-3.6318-1.67578l-4.1538 9A1.99983 1.99983 0 0089 13.002zM103.17379 45.79l8 4a2.00023 2.00023 0 101.7891-3.5781l-8-4a2.00023 2.00023 0 10-1.7891 3.5781zM105.563 37.32911l8-9a1.99979 1.99979 0 00-2.98931-2.6572l-8 9a1.99979 1.99979 0 002.98931 2.6572z"></path><path xmlns="http://www.w3.org/2000/svg" fill="#F9DBD7" d="M105.69,89.07a1.982,1.982,0,0,1-1.96.98l-24.38-2.9L66.5,104.4a3.125,3.125,0,0,1-5,0L48.65,87.15l-24.38,2.9a1.982,1.982,0,0,1-1.96-.98,1.94055,1.94055,0,0,1,0-2,1.982,1.982,0,0,0,1.96.98l24.38-2.9L61.5,102.4a3.125,3.125,0,0,0,5,0L79.35,85.15l24.38,2.9a1.982,1.982,0,0,0,1.96-.98A1.94055,1.94055,0,0,1,105.69,89.07Z" opacity=".3"></path><path xmlns="http://www.w3.org/2000/svg" fill="#FFFFFF" d="M67.68,35.56a6.06336,6.06336,0,0,0-.22,1.94,12.22175,12.22175,0,0,0-6.92,0,5.5746,5.5746,0,0,0-.22-1.94,12.37143,12.37143,0,0,1,7.36,0Z" opacity=".5"></path><path xmlns="http://www.w3.org/2000/svg" fill="#F9DBD7" d="M123.94 87.06a8.42819 8.42819 0 00-2.64-5.35c-3.36-3.11-27.7-23.44-32.16-26.85a4.40316 4.40316 0 01-1.52-2.17l-3.1-9.75a1.59748 1.59748 0 01-.05-.21c-.64-3.11-3.92-5.8-3.95-5.82-1.21-1.03-1.94-.93-2.17-.89a3.94988 3.94988 0 00-2.24 1.65 2.004 2.004 0 01-2.33.82 2.883 2.883 0 00-1.89-.02 2.07878 2.07878 0 01-.39-1.78 2.51251 2.51251 0 012.28-.2 2.004 2.004 0 002.33-.82 3.94988 3.94988 0 012.24-1.65c.23-.04.96-.14 2.17.89.03.02 3.31 2.71 3.95 5.82a1.59748 1.59748 0 00.05.21l3.1 9.75a4.40316 4.40316 0 001.52 2.17c4.46 3.41 28.8 23.74 32.16 26.85A8.71921 8.71921 0 01123.94 87.06zM56.11 38.47a2.883 2.883 0 00-1.89.02 1.992 1.992 0 01-2.34-.83 3.92813 3.92813 0 00-2.22-1.64c-.24-.04-.97-.14-2.12.85-.08.06-3.37 2.73-4.00995 5.86a1.59748 1.59748 0 01-.05.21l-3.1 9.75a4.40316 4.40316 0 01-1.52 2.17C34.4 58.27 10.06 78.6 6.7 81.71a8.50094 8.50094 0 00-2.64 5.36A8.73831 8.73831 0 016.7 79.71c3.36-3.11 27.7-23.44 32.16-26.85a4.40316 4.40316 0 001.52-2.17l3.1-9.75a1.59748 1.59748 0 00.05-.21c.64-3.13 3.93-5.8 4.00995-5.86 1.15-.99 1.88-.89 2.12-.85a3.92813 3.92813 0 012.22 1.64 1.992 1.992 0 002.34.83 2.51251 2.51251 0 012.28.2A2.07878 2.07878 0 0156.11 38.47z" opacity=".3"></path><path xmlns="http://www.w3.org/2000/svg" fill="#9FA5AA" d="M77,66v2a13,13,0,0,1-26,0V66a13,13,0,0,0,26,0Z" opacity=".5"></path></symbol></defs><use data-v-6ca697d7="" xlink:href="#httpsc0piktochartcomv2externalassetsiconscout7391217308dd7bd39547cfdb8518e7daca365eabsvg-original" href="#httpsc0piktochartcomv2externalassetsiconscout7391217308dd7bd39547cfdb8518e7daca365eabsvg-original"></use></svg>