<svg xmlns:xlink="http://www.w3.org/1999/xlink" xmlns="http://www.w3.org/2000/svg" data-v-6ca697d7="" width="158" height="158" style="display: block; color: rgb(0, 0, 0);"><defs><symbol id="httpsc0piktochartcomv2externalassetsiconscoutc43c9f9cfaeafb2cfe8b4ff0b715eb0199da6875svg-original" viewBox="0 0 120 120" preserveAspectRatio="none"><path xmlns="http://www.w3.org/2000/svg" fill="#F6BE2F" d="M85.84 92h-8.19c-.63-2.23-1.49-4.85-2.39-5.93V92H47.11v-5s-.62-.53-1.18 0c0 0 .11 3.07-1.03 4.82-.04.06-.07.12-.11.18h-8.3c.42-1.63.79-3.52.79-5 0 0-.09-3.81.32-6.57.27-1.79.34-3.59.15-5.37-.53-4.82-.63-13.63 5.29-15.1l10-4.49s4.32-2.88 1.03-3.81h-3.28c-.72 0-1.3-.59-1.3-1.3v-1.42c.01-.76.15-.88.15-.88 1.52-1.09-.45-1.3-.45-1.3-2.1-.29-.36-1.24-.36-1.24v-.8h-.94c-1.23-.21-.73-1.09-.73-1.09l1.81-2.15c.17-.21.27-.47.27-.74v-1.8c0-.54.04-1.07.12-1.59.23-1.62.82-3.12 1.69-4.43 1.14-1.75 2.79-3.15 4.72-3.99 1.29-.58 2.72-.9 4.22-.93.74-.01 1.49.05 2.25.19 3.81.71 7.8 4.56 8.6 8.35.79 3.7-.3 7.17-2.47 9.64-.81.9-1.19 2.09-1.19 3.3v1.68c0 .73.25 1.44.73 1.99 1.01 1.15 3.4 3.04 8.96 5.12 0 0 6.44 1.52 6.53 9.07 0 0-.62 7.94 1.03 13.89.21.75.39 1.5.49 2.27.15 1.21.35 3.11.38 4.93.02 1.2.21 2.41.54 3.57z"></path><path xmlns="http://www.w3.org/2000/svg" d="M85.84 92h-3.11c-.33-1.16-.52-2.37-.54-3.57-.03-1.82-.23-3.72-.38-4.93-.1-.77-.28-1.52-.49-2.27-1.65-5.95-1.03-13.89-1.03-13.89-.09-7.55-6.53-9.07-6.53-9.07-5.56-2.08-7.95-3.97-8.96-5.12-.48-.55-.73-1.26-.73-1.99v-1.68c0-1.21.38-2.4 1.19-3.3 2.17-2.47 3.26-5.94 2.47-9.64-.8-3.79-4.79-7.64-8.6-8.35-.17-.03-.34-.06-.51-.08.45-.06.9-.1 1.37-.11.74-.01 1.49.05 2.25.19 3.81.71 7.8 4.56 8.6 8.35.79 3.7-.3 7.17-2.47 9.64-.81.9-1.19 2.09-1.19 3.3v1.68c0 .73.25 1.44.73 1.99 1.01 1.15 3.4 3.04 8.96 5.12 0 0 6.44 1.52 6.53 9.07 0 0-.62 7.94 1.03 13.89.21.75.39 1.5.49 2.27.15 1.21.35 3.11.38 4.93.02 1.2.21 2.41.54 3.57z" opacity=".2"></path><path xmlns="http://www.w3.org/2000/svg" fill="#FFFFFF" d="M58.77 28.69c.14.51-.38 1.24-1.25 1.74-.66.36-1.33.48-1.78.36a31.29 31.29 0 0 0-3.09 2.67c-1.2 1.2-2.3 2.5-3.29 3.89.23-1.62.82-3.12 1.69-4.43 1.41-1.5 3-2.84 4.72-3.99 1.29-.58 2.72-.9 4.22-.93-.41.22-.82.45-1.22.69z" opacity=".5"></path><path xmlns="http://www.w3.org/2000/svg" fill="#65271C" d="M85.84 92.5h-8.19c-.22 0-.42-.15-.48-.37-.54-1.94-1.01-3.26-1.41-4.17V92c0 .28-.22.5-.5.5H47.11c-.28 0-.5-.22-.5-.5v-4.72a.279.279 0 0 0-.18-.01c0 .84-.1 3.26-1.11 4.82l-.12.19c-.09.14-.25.22-.42.22h-8.3c-.15 0-.3-.07-.4-.19a.617.617 0 0 1-.08-.44c.35-1.36.78-3.31.78-4.87 0-.15-.09-3.88.32-6.65.28-1.79.32-3.56.15-5.24-.57-5.17-.58-14.08 5.67-15.63l9.92-4.46c.81-.55 2.06-1.7 1.97-2.3-.04-.28-.5-.46-.81-.56h-3.21c-.99 0-1.8-.81-1.8-1.8v-1.42c.01-.69.11-1.08.32-1.26.18-.13.28-.23.34-.29-.13-.06-.34-.11-.51-.13-.38-.05-1.35-.19-1.47-.89-.09-.5.33-.9.67-1.13v-.02h-.44c-.67-.11-1.05-.35-1.23-.74-.25-.53.04-1.05.07-1.1l1.86-2.23c.1-.11.15-.26.15-.41v-1.81c0-3.4 1.5-6.61 4.12-8.79 2.62-2.18 6.07-3.08 9.48-2.45 4.04.75 8.16 4.75 9 8.74.78 3.65-.16 7.32-2.59 10.07-.68.77-1.06 1.82-1.06 2.97v1.69c0 .62.22 1.21.61 1.66 1.02 1.16 3.37 2.97 8.75 4.98.02 0 6.77 1.69 6.86 9.53-.01.12-.59 7.97 1.02 13.76.26.92.41 1.65.5 2.34.23 1.88.36 3.56.38 4.98.02 1.13.2 2.29.52 3.45.04.15.01.31-.08.44s-.26.2-.42.2zm-7.81-1h7.17c-.24-1.03-.38-2.05-.39-3.06-.02-1.39-.15-3.03-.38-4.87-.08-.65-.23-1.32-.47-2.2-1.65-5.97-1.08-13.74-1.05-14.06-.08-7.03-6.09-8.53-6.15-8.54-5.64-2.11-8.12-4.03-9.21-5.28-.55-.63-.86-1.45-.86-2.32v-1.69c0-1.4.47-2.69 1.31-3.63 2.21-2.51 3.07-5.87 2.36-9.2-.75-3.57-4.59-7.29-8.21-7.96-3.11-.56-6.27.25-8.65 2.24a10.403 10.403 0 0 0-3.76 8.02v1.81c0 .38-.14.76-.38 1.05l-1.81 2.16c.02-.03 0 .07.02.11.02.04.13.12.41.17l.86-.01c.28 0 .5.22.5.5v.8c0 .18-.1.35-.26.44-.1.06-.21.13-.29.2.1.03.26.07.49.1.28.03 1.25.18 1.43.87.15.58-.36 1.04-.65 1.25-.02.08-.05.25-.05.56v1.41c0 .44.36.8.8.8h3.28c.05 0 .09.01.14.02.95.27 1.49.73 1.59 1.38.23 1.45-2.02 3.03-2.47 3.33l-10.07 4.53c-5.6 1.4-5.54 9.74-5 14.58.19 1.77.14 3.62-.15 5.5-.4 2.68-.31 6.45-.31 6.49 0 1.44-.33 3.16-.65 4.51h7.38c1.01-1.61.92-4.45.91-4.48-.01-.14.05-.28.16-.38.7-.66 1.52-.3 1.85-.02.11.1.18.24.18.38v4.5H74.8v-5.43a.496.496 0 0 1 .88-.32c.71.88 1.51 2.81 2.35 5.74zM49.72 47.3z"></path><path xmlns="http://www.w3.org/2000/svg" fill="#E64D3C" d="M75.28 80.14c-.73.41-2.58 1.04-5.12-1 0 0-3.12.54-5.12-1.92-.05-.06-.1-.12-.15-.19 0 0-3.2-4.05-2.13-11.74v-2.67s.84-1.58 1.97-2.68c.99-.97 2.2-1.56 3.24-.37 0 0 5.97 3.18 6.34 10.02.02.37.08.75.21 1.1.5 1.42 1.78 5.51 1.18 8.87a.84.84 0 0 1-.42.58z"></path><path xmlns="http://www.w3.org/2000/svg" d="M75.28 80.14c-.73.41-2.58 1.04-5.12-1 0 0-2.97.52-4.97-1.74.03-.13.04-.18.06-.31.72-.38 1.6-.23 2.39 0 1.15.33 2.25.79 3.28 1.37.55.31 1.09.66 1.69.82.61.16 1.32.1 1.77-.33.71-.67.51-1.83.25-2.77-.53-1.92-1.06-3.84-1.58-5.77-.79-2.87-1.62-5.84-3.56-8.1-.72-.85-1.64-1.61-2.75-1.88-.68-.17-1.54.03-2.03-.48.99-.97 2.2-1.56 3.24-.37 0 0 5.97 3.18 6.34 10.02.02.37.08.75.21 1.1.5 1.42 1.78 5.51 1.18 8.87-.03.24-.18.45-.4.57z" opacity=".2"></path><path xmlns="http://www.w3.org/2000/svg" fill="#65271C" d="M73.6 81.06c-.96 0-2.18-.32-3.58-1.4-.83.08-3.67.17-5.52-2.33-.13-.16-3.31-4.29-2.22-12.11v-2.6c0-.08.02-.16.06-.24.2-.38 2.04-3.72 4.12-3.96.48-.06 1.18.04 1.85.76.76.43 6.16 3.7 6.52 10.38.02.36.08.68.18.96.57 1.6 1.81 5.69 1.2 9.12-.07.39-.31.73-.67.93-.38.21-1.05.49-1.94.49zm-3.44-2.42c.11 0 .22.04.31.11 2.24 1.8 3.82 1.37 4.56.96.09-.05.15-.14.17-.23.59-3.29-.74-7.42-1.16-8.61-.13-.38-.21-.79-.23-1.24-.35-6.48-6.02-9.57-6.08-9.6a.755.755 0 0 1-.14-.11c-.43-.5-.8-.52-1.04-.49-1.27.14-2.75 2.35-3.29 3.33v2.54c-1.03 7.43 1.99 11.39 2.02 11.43 1.78 2.39 4.66 1.94 4.79 1.92.04-.01.06-.01.09-.01z"></path><path xmlns="http://www.w3.org/2000/svg" fill="#E64D3C" d="M57.67 77.03c-1.98 2.68-5.26 2.11-5.26 2.11-2.54 2.04-4.39 1.41-5.12 1a.84.84 0 0 1-.42-.58c-.19-1.04-.19-2.15-.09-3.22v-.08c.3-3.18 1.46-6.07 1.46-6.07 0-.54.04-1.06.11-1.55.83-6.18 6.24-9.06 6.24-9.06.53-.6 1.1-.75 1.66-.63h.01c.2.05.4.13.6.24 1.57.86 2.94 3.43 2.94 3.43v2.67c1.07 7.69-2.13 11.74-2.13 11.74z"></path><path xmlns="http://www.w3.org/2000/svg" fill="#FFFFFF" d="M54.22 61c-.06.05-.11.11-.17.16.05.26-.08.65-.37 1-.33.4-.75.62-1.02.54-.66.84-1.25 1.75-1.77 2.71-.9 1.64-1.58 3.41-2.15 5.24-.57 1.83-1.54 3.72-1.96 5.69v-.08c.03-1.63.82-4.6.82-4.6.19-1.04.44-2.06.75-3.02.8-2.56 1.99-4.79 3.49-6.51 1.26-1.45 2.72-2.54 4.29-3.16.04-.01.08-.01.12-.02h.01c.2.05.4.13.6.24-.98.46-1.86 1.08-2.64 1.81z" opacity=".5"></path><path xmlns="http://www.w3.org/2000/svg" fill="#65271C" d="M48.97 81.06c-.89 0-1.56-.28-1.92-.48-.35-.2-.59-.54-.67-.93-.62-3.43.63-7.52 1.2-9.12.1-.28.16-.6.18-.96.36-6.68 5.76-9.96 6.52-10.38.67-.72 1.36-.81 1.85-.76 2.08.24 3.92 3.58 4.12 3.96.04.07.06.15.06.24v2.67c1.08 7.75-2.1 11.88-2.24 12.05-1.84 2.49-4.68 2.4-5.51 2.32-1.41 1.07-2.63 1.39-3.59 1.39zm6.91-21.65c-.23 0-.55.08-.91.5-.04.04-.09.08-.14.11-.06.03-5.73 3.14-6.08 9.6-.02.46-.1.87-.23 1.24-.42 1.19-1.75 5.33-1.16 8.61.02.1.08.18.17.23.6.33 2.24.91 4.56-.96.11-.09.26-.12.4-.1.12.02 3.01.47 4.78-1.91.04-.05 3.06-4.01 2.04-11.38v-2.61c-.54-.97-2.02-3.18-3.29-3.33h-.14zm-7.62 10.18z"></path><path xmlns="http://www.w3.org/2000/svg" fill="#65271C" d="M57.35 67.57c-.15 0-.3-.07-.4-.2a.507.507 0 0 1 .1-.7c.29-.22 1.37-1.94 2.25-3.45V55.5c0-.17-.02-.37-.05-.58-.08-.58.09-1.17.48-1.62.79-.91 2.34-.91 3.13 0 .39.45.57 1.05.48 1.65-.04.26-.06.5-.06.68v7.59c.87 1.51 1.96 3.23 2.24 3.45.22.17.27.48.1.7s-.47.27-.69.11c-.59-.43-2.13-3.07-2.59-3.88a.553.553 0 0 1-.07-.25v-7.73c0-.22.03-.52.08-.83.04-.31-.05-.62-.25-.85-.41-.47-1.21-.47-1.61 0-.2.23-.29.52-.24.82.04.26.06.52.06.72v7.86c0 .09-.02.17-.07.25-.46.8-2.01 3.45-2.59 3.88-.1.07-.2.1-.3.1z"></path><path xmlns="http://www.w3.org/2000/svg" fill="#65271C" d="M61.29 53.58c-.02 0-.05 0-.08-.01a.505.505 0 0 1-.42-.57c.26-1.7-.09-3.02-1.04-3.92-2.71-2.58-9.39-1.26-9.45-1.25a.5.5 0 1 1-.2-.98c.29-.06 7.26-1.43 10.34 1.51 1.2 1.14 1.65 2.75 1.33 4.79-.02.25-.24.43-.48.43zM44.38 44.8c-.27 0-.53-.01-.79-.03l.08-1c.23.02.47.03.71.03v1zm-2.46-.28c-.55-.13-1.09-.3-1.61-.52l.38-.93c.47.2.97.35 1.46.47l-.23.98zm-3.13-1.29c-.48-.29-.94-.63-1.37-.99l.65-.76c.39.33.81.64 1.24.9l-.52.85zm-2.56-2.19c-.37-.43-.7-.89-.99-1.37l.85-.52c.27.43.57.85.9 1.24l-.76.65zm-1.77-2.88c-.21-.52-.39-1.06-.52-1.61l.97-.23c.12.5.27.99.47 1.46l-.92.38zm-.77-3.29c-.02-.26-.03-.52-.03-.79h1c0 .24.01.48.03.71l-1 .08z"></path><path xmlns="http://www.w3.org/2000/svg" fill="#65271C" d="m42.45 46.14-.52-.86 1.77-1.06-1.06-1.77.85-.51 1.58 2.62zM43.67 50.81l-.07-1c.26-.02.52-.03.79-.03v1l-.72.03zm-8.75 7.46-.97-.23c.13-.55.3-1.09.52-1.61l.92.38c-.2.47-.35.96-.47 1.46zm1.16-2.83-.85-.52c.29-.48.63-.94.99-1.37l.76.65c-.33.39-.63.81-.9 1.24zm1.99-2.33-.65-.76c.43-.37.89-.7 1.37-.99l.52.85c-.43.26-.85.57-1.24.9zm2.62-1.6-.38-.93c.52-.21 1.06-.39 1.61-.52l.23.97c-.5.13-.99.29-1.46.48zm-6.03 9h-1c0-.26.01-.53.03-.79l1 .07c-.02.24-.03.48-.03.72z"></path><path xmlns="http://www.w3.org/2000/svg" fill="#65271C" d="m43.49 52.65-.85-.51 1.06-1.77-1.77-1.06.52-.86 2.62 1.58z"></path></symbol></defs><use data-v-6ca697d7="" xlink:href="#httpsc0piktochartcomv2externalassetsiconscoutc43c9f9cfaeafb2cfe8b4ff0b715eb0199da6875svg-original" href="#httpsc0piktochartcomv2externalassetsiconscoutc43c9f9cfaeafb2cfe8b4ff0b715eb0199da6875svg-original"></use></svg>