<svg xmlns:xlink="http://www.w3.org/1999/xlink" xmlns="http://www.w3.org/2000/svg" data-v-6ca697d7="" width="64" height="64" style="display: block; color: rgb(0, 0, 0);"><defs><symbol id="httpsc0piktochartcomv2externalassetsiconscouta12f8dd8e19ce7642c3e538efcdf8efd07e6d93csvg-original" viewBox="0 0 64 64" preserveAspectRatio="none" xmlns:xlink="http://www.w3.org/1999/xlink"><defs xmlns="http://www.w3.org/2000/svg"><linearGradient id="rxVISa-a" x1="1.692" x2="36.192" y1="14.307" y2="48.807" gradientUnits="userSpaceOnUse"><stop offset="0" stop-color="#ffded6"></stop><stop offset="1" stop-color="#ed9f93"></stop></linearGradient><linearGradient id="rxVISa-d" x1="33.935" x2="53.935" y1="37.065" y2="57.065" xlink:href="#rxVISa-a" xmlns:xlink="http://www.w3.org/1999/xlink"></linearGradient><linearGradient id="rxVISa-b" x1="42.11" x2="46.5" y1="40.11" y2="44.5" gradientUnits="userSpaceOnUse"><stop offset="0" stop-color="#e8a693"></stop><stop offset="1" stop-color="#a65c5b"></stop></linearGradient><linearGradient id="rxVISa-e" x1="4.374" x2="24.238" y1="7.564" y2="27.429" gradientUnits="userSpaceOnUse"><stop offset="0" stop-color="#7f7f99"></stop><stop offset="1" stop-color="#515072"></stop></linearGradient><linearGradient id="rxVISa-f" x1="16.982" x2="22.19" y1="24.602" y2="29.81" xlink:href="#rxVISa-b" xmlns:xlink="http://www.w3.org/1999/xlink"></linearGradient><linearGradient id="rxVISa-g" x1="9.237" x2="29.801" y1="50.635" y2="71.199" gradientUnits="userSpaceOnUse"><stop offset="0" stop-color="#ffd270"></stop><stop offset="1" stop-color="#e68d50"></stop></linearGradient><linearGradient id="rxVISa-c" x1="50.586" x2="53.414" y1="52.586" y2="55.414" gradientUnits="userSpaceOnUse"><stop offset="0" stop-color="#f2756b"></stop><stop offset="1" stop-color="#c44747"></stop></linearGradient><linearGradient id="rxVISa-h" x1="47.586" x2="50.414" y1="21.601" y2="24.429" xlink:href="#rxVISa-c" xmlns:xlink="http://www.w3.org/1999/xlink"></linearGradient><linearGradient id="rxVISa-a" x1="1.692" x2="36.192" y1="14.307" y2="48.807" gradientUnits="userSpaceOnUse"><stop offset="0" stop-color="#ffded6"></stop><stop offset="1" stop-color="#ed9f93"></stop></linearGradient><linearGradient id="rxVISa-d" x1="33.935" x2="53.935" y1="37.065" y2="57.065" xlink:href="#rxVISa-a" xmlns:xlink="http://www.w3.org/1999/xlink"></linearGradient><linearGradient id="rxVISa-b" x1="42.11" x2="46.5" y1="40.11" y2="44.5" gradientUnits="userSpaceOnUse"><stop offset="0" stop-color="#e8a693"></stop><stop offset="1" stop-color="#a65c5b"></stop></linearGradient><linearGradient id="rxVISa-e" x1="4.374" x2="24.238" y1="7.564" y2="27.429" gradientUnits="userSpaceOnUse"><stop offset="0" stop-color="#7f7f99"></stop><stop offset="1" stop-color="#515072"></stop></linearGradient><linearGradient id="rxVISa-f" x1="16.982" x2="22.19" y1="24.602" y2="29.81" xlink:href="#rxVISa-b" xmlns:xlink="http://www.w3.org/1999/xlink"></linearGradient><linearGradient id="rxVISa-g" x1="9.237" x2="29.801" y1="50.635" y2="71.199" gradientUnits="userSpaceOnUse"><stop offset="0" stop-color="#ffd270"></stop><stop offset="1" stop-color="#e68d50"></stop></linearGradient><linearGradient id="rxVISa-c" x1="50.586" x2="53.414" y1="52.586" y2="55.414" gradientUnits="userSpaceOnUse"><stop offset="0" stop-color="#f2756b"></stop><stop offset="1" stop-color="#c44747"></stop></linearGradient><linearGradient id="rxVISa-h" x1="47.586" x2="50.414" y1="21.601" y2="24.429" xlink:href="#rxVISa-c" xmlns:xlink="http://www.w3.org/1999/xlink"></linearGradient><linearGradient id="rBnkid-a" x1="197.624" x2="231.341" y1="134.155" y2="425.504" gradientUnits="userSpaceOnUse"><stop offset="0" stop-color="#fcd0be"></stop><stop offset="1" stop-color="#efa69a"></stop></linearGradient><radialGradient id="rBnkid-b" cx="209.541" cy="241.292" r="79.387" gradientUnits="userSpaceOnUse"><stop offset="0" stop-color="#f97d7d"></stop><stop offset="1" stop-color="#fcd0be"></stop></radialGradient><linearGradient id="rBnkid-c" x1="70.071" x2="70.071" y1="96.975" y2="313.93" xlink:href="#rBnkid-a" xmlns:xlink="http://www.w3.org/1999/xlink"></linearGradient></defs><path xmlns="http://www.w3.org/2000/svg" fill="url(&quot;#rxVISa-a&quot;)" d="M40.83 30.22c-.94-1.73-1.89-3.46-2.83-5.2a33.641 33.641 0 0 0-.814-5.4A34.373 34.373 0 0 0 32 8H8v25h1.762A21.911 21.911 0 0 1 11 44.49C9.97 50.254 8.22 54.189 6.77 56c8.333-.333 14.9-.667 23.23-1a15.369 15.369 0 0 1-2.472-10.677 13.975 13.975 0 0 1 .435-1.881 5.1 5.1 0 0 0 2.137.578h5.72a2.161 2.161 0 0 0 1.54-.64 2.121 2.121 0 0 0 .64-1.53 1.833 1.833 0 0 0-1.84-1.83H35.1A2.076 2.076 0 0 1 33 37.2a2.01 2.01 0 0 1 1.99-2.18H38v-2h1a2 2 0 0 0 1.83-2.8Z"></path><path xmlns="http://www.w3.org/2000/svg" fill="url(&quot;#rxVISa-d&quot;)" d="M46.79 51.82 52 44l-3.77-14.13a1.975 1.975 0 0 0-1.04-1.27L44 27l2 11-3-2-5 11 1.87 5.61a2.108 2.108 0 0 1 .1.83L39 64h8l-.86-9.56a4.043 4.043 0 0 1 .65-2.62Z"></path><path xmlns="http://www.w3.org/2000/svg" fill="url(&quot;#rxVISa-b&quot;)" d="m46 38-2 9h-1c.19-.58 1.55-8.07 1.93-9.71Z"></path><path xmlns="http://www.w3.org/2000/svg" fill="url(&quot;#rxVISa-e&quot;)" d="M15.192 33.988a8.038 8.038 0 0 1-1.93 3.51l-.08.08a4.662 4.662 0 0 1-2.73 1.379 5.048 5.048 0 0 1-5.22-3c-.8-1.77-1.61-3.53-2.42-5.3-.95-2.09-3.22-10.869-.57-18.5a16.736 16.736 0 0 1 3.68-6.139A17.148 17.148 0 0 1 18.362 1h.06c6.21.12 13.93 3.8 15.361 10.148a9.426 9.426 0 0 1 .21 1.85 10.373 10.373 0 0 1-1.181 5.329c-2.28 4.19-7.25 5.29-8.14 5.49A16.376 16.376 0 0 1 21 24Z"></path><path xmlns="http://www.w3.org/2000/svg" fill="url(&quot;#rxVISa-f&quot;)" d="M21 24v7h-1a3 3 0 0 1-3-3v-3a1 1 0 0 1 1-1Z"></path><path xmlns="http://www.w3.org/2000/svg" fill="url(&quot;#rxVISa-g&quot;)" d="M3 64c-.021-5.737 1.679-8.435 2.656-9.673 5.6-7.1 19.626-7.05 26.7-.176A17.068 17.068 0 0 1 37 63v1Z"></path><circle xmlns="http://www.w3.org/2000/svg" cx="52" cy="54" r="2" fill="url(&quot;#rxVISa-c&quot;)"></circle><circle xmlns="http://www.w3.org/2000/svg" cx="49" cy="23.015" r="2" fill="url(&quot;#rxVISa-h&quot;)"></circle><path xmlns="http://www.w3.org/2000/svg" fill="#493A3A" d="M33.05 53.436a17.894 17.894 0 0 0-4.262-3.036 10.2 10.2 0 0 1-.434-5.205 1 1 0 0 0-1.961-.392 11.507 11.507 0 0 0 .056 4.576 23.021 23.021 0 0 0-9.441-1.327 20.064 20.064 0 0 0-6.215 1.4 22.978 22.978 0 0 0 1.033-9.828c.088-.032.174-.062.265-.1a5.745 5.745 0 0 0 1.89-1.341 9.028 9.028 0 0 0 2.173-3.947 1 1 0 0 0-1.936-.5 7.092 7.092 0 0 1-1.759 3.142 3.642 3.642 0 0 1-2.15 1.086 4.07 4.07 0 0 1-4.174-2.42q-.894-1.974-1.8-3.941l-.623-1.36C3.088 28.868.48 20.252 3.177 12.49a15.778 15.778 0 0 1 3.46-5.777A16.112 16.112 0 0 1 18.4 2c6.071.118 13.121 3.653 14.421 9.418a9.048 9.048 0 0 1 .173 1.615 9.384 9.384 0 0 1-1.059 4.816c-1.789 3.286-5.45 4.536-7.477 4.989a9.476 9.476 0 0 1-2.493.166c-.34-.004-.656-.016-.965-.004h-3a2 2 0 0 0-2 2v3a4 4 0 0 0 4 4h1a1 1 0 0 0 1-1v-5.992a11.076 11.076 0 0 0 2.9-.216c2.354-.526 6.628-2 8.792-5.981a10.418 10.418 0 0 0 1.083-3.034 27.421 27.421 0 0 1 1.512 4.552 1.146 1.146 0 0 0-.1.1 8.949 8.949 0 0 1-5.4 3.6A1 1 0 0 0 31 26a1.067 1.067 0 0 0 .217-.023 10.993 10.993 0 0 0 2.8-1.04c0 .022-.013.041-.013.063a1 1 0 1 0 1.368-.926 10.959 10.959 0 0 0 1.4-1.234c.1.732.183 1.474.23 2.24a1 1 0 0 0 .12.417l1.144 2.103 1.648 3.019A1 1 0 0 1 39 32.02h-1.014a1 1 0 0 0-1 1v1h-2a3.01 3.01 0 0 0-2.989 3.247 3.064 3.064 0 0 0 3.1 2.753h1.061a.822.822 0 0 1 .832.83 1.17 1.17 0 0 1-.338.823 1.159 1.159 0 0 1-.834.347h-5.731a4.378 4.378 0 0 1-2.536-1.047l-2.663-2.66A3.03 3.03 0 0 1 24 36.19v-3.17a1 1 0 0 0-2 0v3.17a5.034 5.034 0 0 0 1.475 3.537l2.667 2.665a6.371 6.371 0 0 0 3.945 1.628h5.727a3.168 3.168 0 0 0 3.172-3.17 2.834 2.834 0 0 0-2.832-2.83h-1.061a1.077 1.077 0 0 1-1.107-.926.937.937 0 0 1 .3-.786.96.96 0 0 1 .7-.288h3a1 1 0 0 0 1-1v-1H39a3 3 0 0 0 2.711-4.276q-.84-1.554-1.687-3.1l-1.044-1.91a29.589 29.589 0 0 0-.576-4.16 30.4 30.4 0 0 0-3.536-9.059 5.28 5.28 0 0 0-.11-.584C33.255 4.26 25.279.136 18.379 0A18.127 18.127 0 0 0 5.191 5.331a17.768 17.768 0 0 0-3.9 6.5c-2.691 7.746-.5 16.812.606 19.24l.624 1.363q.9 1.965 1.8 3.935A6.049 6.049 0 0 0 9.787 40c.023 0 .047 0 .07-.005a22.117 22.117 0 0 1-1.649 10.771 13.181 13.181 0 0 0-3.337 2.943A14.7 14.7 0 0 0 2 63a1 1 0 0 0 1 1 1 1 0 0 0 1-1 12.741 12.741 0 0 1 2.441-8.049c2.218-2.811 6.117-4.6 10.7-4.9 5.515-.367 11.081 1.483 14.516 4.821a15.822 15.822 0 0 1 4.364 8.328A1 1 0 0 0 37 64a1.1 1.1 0 0 0 .2-.02 1 1 0 0 0 .776-1.183 17.772 17.772 0 0 0-4.926-9.361ZM20 30a2 2 0 0 1-2-2v-3h2Z"></path><path xmlns="http://www.w3.org/2000/svg" fill="#493A3A" d="M9 58a1 1 0 0 0-1 1v4a1 1 0 0 0 2 0v-4a1 1 0 0 0-1-1zm18 0a1 1 0 0 0-1 1v4a1 1 0 0 0 2 0v-4a1 1 0 0 0-1-1zm25.618-13.123.215-.323a1 1 0 0 0 .133-.812L49.2 29.613a3.005 3.005 0 0 0-1.558-1.913l-3.195-1.6a1 1 0 0 0-1.431 1.073l1.584 8.688-1.04-.693a1 1 0 0 0-1.465.418l-5 11a1 1 0 0 0-.039.73l1.873 5.607a1 1 0 0 1 .046.417l-.97 9.56A1 1 0 0 0 38.9 64c.035 0 .069.005.1.005a1 1 0 0 0 .994-.9l.965-9.561a2.978 2.978 0 0 0-.139-1.251l-1.748-5.233 4.351-9.571 1.386.923-2.759 8.276a1 1 0 0 0 1.9.632l3-9v-.008a1 1 0 0 0 .029-.49l-1.64-9.027 1.4.7a1.009 1.009 0 0 1 .52.638l3.626 13.6-2.337-1.558a1 1 0 0 0-1.11 1.664l2.4 1.6-3.878 5.829a5.018 5.018 0 0 0-.813 3.268l.858 8.564a1.011 1.011 0 0 0 1.095.9 1 1 0 0 0 .9-1.1l-.857-8.563a3.014 3.014 0 0 1 .487-1.962l3.884-5.834 4.936 3.291a1 1 0 1 0 1.11-1.664zM63 36h-9a1 1 0 0 0 0 2h9a1 1 0 0 0 0-2z"></path><path xmlns="http://www.w3.org/2000/svg" fill="#493A3A" d="M52 51a3 3 0 1 0 3 3 3 3 0 0 0-3-3zm0 4a1 1 0 1 1 1-1 1 1 0 0 1-1 1zm-6-32a3 3 0 1 0 3-3 3 3 0 0 0-3 3zm4 0a1 1 0 1 1-1-1 1 1 0 0 1 1 1zm10.552 1.105-8 4a1 1 0 0 0 .9 1.79l8-4a1 1 0 0 0-.9-1.789z"></path><circle xmlns="http://www.w3.org/2000/svg" cx="60" cy="51" r="1" fill="#493A3A"></circle></symbol></defs><use data-v-6ca697d7="" xlink:href="#httpsc0piktochartcomv2externalassetsiconscouta12f8dd8e19ce7642c3e538efcdf8efd07e6d93csvg-original" href="#httpsc0piktochartcomv2externalassetsiconscouta12f8dd8e19ce7642c3e538efcdf8efd07e6d93csvg-original"></use></svg>