<svg xmlns:xlink="http://www.w3.org/1999/xlink" xmlns="http://www.w3.org/2000/svg" data-v-6ca697d7="" width="128" height="128" style="display: block; color: rgb(0, 0, 0);"><defs><symbol id="httpsc0piktochartcomv2externalassetsiconscoutfaca129a861718df352d054d4701c40dd7446c86svg-original" viewBox="0 0 128 128" preserveAspectRatio="none"><path xmlns="http://www.w3.org/2000/svg" fill="#F2F2F2" d="M37.5 96.9c-2.1 12.1 6 23.7 18.1 25.8s23.7-6 25.8-18.1l1.9-10.9c1-5.5 4.2-10.3 8.9-13.3 10.3-6.6 17.6-17.7 19-31.1 2.1-20.6-11.4-40-31.5-45.1-24-6-47.6 9.6-51.8 33.5 5.9 13 9.1 27 9.4 41.2l.2 18z"></path><path xmlns="http://www.w3.org/2000/svg" d="M37.5 96.9c-2.1 12.1 6 23.7 18.1 25.8 1.2.2 2.3.3 3.5.3-8.4-2.9-14.2-10.5-15-19.2-.3-3.4-3.1-6.2-6.6-6.9zM80 4.5c-.6-.2-1.2-.3-1.8-.4C54.7-1 32 14.5 27.8 37.9c3.7.7 7.2-1.6 8.4-5.1C42.5 14.5 60.6 2.7 80 4.5z" opacity=".1"></path><path xmlns="http://www.w3.org/2000/svg" d="M103.3 49.2c3.1-17.5-8.6-34.2-26.1-37.3-6.7-1.2-13.6 0-19.8 3 4.7-1.4 9.6-1.8 14.4-.9 15 2.6 25.7 15.3 26.5 29.8.2 2.7 2.3 5 5 5.4zM48.8 96.3c-2.6.3 3.9 3.8 6.7 4.3 5.6 1 11.1-2.8 12-8.4l.7-4c1.5-8.6 8.8-5.9 16.3-10.8l-10.8 3.2-2.8 2.1c-15.5 3.7-8.4 11.8-22.1 13.6zm29-39.5c.6-3.1.7-6.3.3-9.4C76.6 33 64.8 22.1 50.5 21 62 24.2 71 34 72.3 46.4c.3 3.1.2 6.2-.3 9.4-.8 4.8-3.3 8.6-7.1 10l.5 1.5c6.8 1 11.2-3.8 12.4-10.5zm-26.3-2.6c3.6 1 5.8 4.6 5.2 8.4-.6 3.2-3.2 5.7-6.4 6.1-1.6.2-2.9 1.2-3.6 2.5l.1 6.3c.1-1.1.6-2.9 2.6-3.5 2.2-.6 7.2 1.9 10-3.8 3-6.4-.7-14.2-7.9-16zM46.8 78.5v-1.1z" opacity=".1"></path><path xmlns="http://www.w3.org/2000/svg" d="M46.7 71.1c-.4.9-.7 1.8-.5 2.9l.7 4.5s-.1-.5 0-1.1l-.2-6.3z" opacity=".1"></path><path xmlns="http://www.w3.org/2000/svg" fill="#4A374F" d="M103 50.7h.3c.7 0 1.3-.5 1.5-1.2 1.6-8.9-.4-17.8-5.6-25.2S86.3 12 77.4 10.4c-8.7-1.5-18.3.8-26.3 6.4-8 5.6-13.5 13.8-15 22.6-.1.8.4 1.6 1.2 1.7.8.1 1.6-.4 1.7-1.2 1.1-6.5 4.7-12.6 9.9-17.5 14.4.4 26.2 11.1 27.7 25.1.3 3 .2 6-.3 8.9v.1c-.5 3.1-1.8 5.6-3.6 7.3-1.9 1.7-4.3 2.3-7 1.9-.8-.1-1.6.4-1.7 1.2s.4 1.6 1.2 1.7c.8.1 1.5.2 2.3.2 2.8 0 5.2-.9 7.3-2.8 2.3-2.1 3.9-5.2 4.6-9v-.1c.6-3.2.7-6.5.3-9.7-1.5-14.5-13-25.7-27.4-27.6.2-.1.4-.3.6-.4 7.3-5.1 16.1-7.3 24.1-5.9 8 1.5 15 6 19.7 12.7 4.7 6.7 6.5 14.9 5.1 22.9-.1.8.4 1.6 1.2 1.8zm-47.8 51.4c.7.1 1.4.2 2.1.2 5.7 0 10.7-4.1 11.7-9.8l.7-4c.8-4.5 3.3-5.2 7.3-6.4 2.5-.7 5.3-1.5 8.3-3.4.7-.5.9-1.4.4-2.1-.5-.7-1.4-.9-2.1-.4-2.5 1.6-5 2.3-7.4 3-4.3 1.2-8.4 2.3-9.5 8.7l-.7 4c-.4 2.3-1.7 4.4-3.7 5.7-2 1.4-4.3 1.9-6.6 1.5-2.3-.4-4.4-1.7-5.7-3.7-1.4-2-1.9-4.3-1.5-6.6.1-.8-.4-1.6-1.2-1.7-.8-.1-1.6.4-1.7 1.2-.6 3.1.1 6.3 2 8.9 1.8 2.6 4.5 4.3 7.6 4.9z"></path><path xmlns="http://www.w3.org/2000/svg" fill="#4A374F" d="M55.4 124.2c1.4.2 2.8.4 4.2.4 4.8 0 9.5-1.5 13.6-4.3 5.2-3.6 8.7-9.1 9.8-15.4L84.8 94c.9-5 3.9-9.5 8.2-12.3 10.6-6.9 17.7-18 19.5-30.6 3.1-22.5-11.8-43.8-33.9-48.6C66.8.1 54.9 2.3 45 9c-9.9 6.7-16.5 16.8-18.6 28.6-.1.8.4 1.6 1.2 1.7.8.1 1.6-.4 1.7-1.2 1.9-11 8.1-20.4 17.3-26.6 9.2-6.2 20.3-8.3 31.3-6 20.7 4.5 34.5 24.3 31.6 45.3-1.6 11.7-8.2 22-18.1 28.5-5 3.3-8.5 8.5-9.5 14.3L80 104.4c-1 5.5-4 10.2-8.5 13.4-4.5 3.2-10.1 4.4-15.5 3.4-11.3-2-18.9-12.8-16.9-24.1.1-.8-.4-1.6-1.2-1.7-.8-.1-1.6.4-1.7 1.2-2.4 13 6.2 25.4 19.2 27.6z"></path><path xmlns="http://www.w3.org/2000/svg" fill="#4A374F" d="M50.1 67.1c-1.7.2-3.2 1-4.2 2.4-1 1.3-1.5 3-1.2 4.7l.7 4.5c.1.7.8 1.3 1.5 1.3h.2c.8-.1 1.4-.9 1.3-1.7l-.7-4.5c-.1-.9.1-1.7.6-2.4s1.3-1.1 2.2-1.2c3.9-.5 7-3.4 7.7-7.3.4-2.3-.1-4.7-1.5-6.6-1.4-1.9-3.4-3.2-5.7-3.7l-4.4-.8c-.8-.1-1.6.4-1.7 1.2-.1.8.4 1.6 1.2 1.7l4.4.8c1.5.3 2.9 1.1 3.8 2.4.9 1.3 1.2 2.8 1 4.4-.5 2.6-2.6 4.5-5.2 4.8z"></path></symbol></defs><use data-v-6ca697d7="" xlink:href="#httpsc0piktochartcomv2externalassetsiconscoutfaca129a861718df352d054d4701c40dd7446c86svg-original" href="#httpsc0piktochartcomv2externalassetsiconscoutfaca129a861718df352d054d4701c40dd7446c86svg-original"></use></svg>