<svg xmlns:xlink="http://www.w3.org/1999/xlink" xmlns="http://www.w3.org/2000/svg" data-v-6ca697d7="" width="88" height="72" style="display: block; color: rgb(0, 0, 0);"><defs><symbol id="httpsc0piktochartcomv2externalassetsiconscout8bd33bfb069abede58c26ea37764f739aa3c482asvg-custom" viewBox="0.00554734468460083 -3.831574162357141e-33 68 68" preserveAspectRatio="none"><g xmlns="http://www.w3.org/2000/svg" fill-rule="evenodd" fill="#212529"><circle cx="34" cy="66" r="2" fill="#212529"></circle><path d="M64.743 10.413c-3.856-1.12-8.17-1.12-12.53.749C47.516 13.174 46 11.795 46 7V2a2 2 0 1 0-4 0v5c0 7.387 4.114 11.127 11.788 7.838 3.418-1.464 6.807-1.464 9.84-.584.436.127.82.26 1.148.393.181.073.293.124.33.142a2 2 0 0 0 1.788-3.578c-.436-.218-1.167-.513-2.151-.798zM3.224 14.647c.328-.132.712-.266 1.148-.393 3.033-.88 6.422-.88 9.84.584C21.886 18.127 26 14.387 26 7V2a2 2 0 1 0-4 0v5c0 4.795-1.517 6.174-6.212 4.162-4.36-1.869-8.675-1.869-12.53-.75-.985.286-1.716.581-2.152.8a2 2 0 0 0 1.788 3.577c.037-.018.149-.07.33-.142zM17 65.11V60c0-.861-.072-1.669-.22-2.483-.339-1.864.095-.716-2.923-8.26-.379-.946-1.433-3.339-1.582-3.71C11.32 43.157 11 40.68 11 34a2 2 0 0 0-2-2c-1.909 0-3.413-.317-4.563-.828a5.268 5.268 0 0 1-.893-.493c-.104-.074-.146-.11-.13-.093a2 2 0 0 0-2.828 2.828c.418.418 1.15.935 2.227 1.414 1.663.739 4.197 1.084 4.197 1.084.068 5.785.48 8.441 1.551 11.12.183.458 1.238 2.85 1.582 3.71 2.795 6.988 2.439 6.044 2.702 7.49.105.577.155 1.145.155 1.768v6a2 2 0 1 0 4 0v-.889zM51 65.111V60c0-.861.072-1.669.22-2.483.339-1.864-.095-.716 2.923-8.26.379-.946 1.433-3.339 1.582-3.71C56.68 43.157 57 40.68 57 34a2 2 0 0 1 2-2c1.909 0 3.413-.317 4.563-.828.37-.164.667-.334.893-.493.104-.074.146-.11.13-.093a2 2 0 0 1 2.828 2.828c-.418.418-1.15.935-2.227 1.414-1.663.739-4.197 1.084-4.197 1.084-.068 5.785-.48 8.441-1.551 11.12-.183.458-1.238 2.85-1.582 3.71-2.795 6.988-2.439 6.044-2.702 7.49A9.691 9.691 0 0 0 55 60v6a2 2 0 1 1-4 0v-.889Z" fill="#212529"></path><circle cx="46" cy="41" r="2" fill="#212529"></circle><circle cx="22" cy="41" r="2" fill="#212529"></circle></g></symbol></defs><use data-v-6ca697d7="" xlink:href="#httpsc0piktochartcomv2externalassetsiconscout8bd33bfb069abede58c26ea37764f739aa3c482asvg-custom" href="#httpsc0piktochartcomv2externalassetsiconscout8bd33bfb069abede58c26ea37764f739aa3c482asvg-custom"></use></svg>