<svg xmlns:xlink="http://www.w3.org/1999/xlink" xmlns="http://www.w3.org/2000/svg" data-v-6ca697d7="" width="32" height="32" style="display: block; color: rgb(255, 255, 255);"><defs><symbol id="httpsc0piktochartcomv2themesbasesvgs261017nchecklistsvg-custom" viewBox="0.0 0.0 32.0 32.0" preserveAspectRatio="none" version="1.1" xmlns:xlink="http://www.w3.org/1999/xlink" x="0px" y="0px" enable-background="new 0 0 32 32" xml:space="preserve">
<path xmlns="http://www.w3.org/2000/svg" d="M16,0C7.164,0,0,7.163,0,16c0,8.836,7.164,16,16,16c8.837,0,16-7.164,16-16C32,7.163,24.837,0,16,0z M25.007,12.545  l-9.515,9.516c-0.346,0.346-0.815,0.54-1.303,0.54s-0.958-0.194-1.303-0.54l-5.893-5.894c-0.72-0.72-0.72-1.887,0-2.607  c0.72-0.72,1.887-0.72,2.607,0l4.589,4.59l8.212-8.213c0.72-0.72,1.887-0.72,2.607,0S25.727,11.825,25.007,12.545z" fill="#212529"></path>
</symbol></defs><use data-v-6ca697d7="" xlink:href="#httpsc0piktochartcomv2themesbasesvgs261017nchecklistsvg-custom" href="#httpsc0piktochartcomv2themesbasesvgs261017nchecklistsvg-custom"></use></svg>