<svg xmlns:xlink="http://www.w3.org/1999/xlink" xmlns="http://www.w3.org/2000/svg" data-v-6ca697d7="" width="128" height="128" style="display: block; color: rgb(0, 0, 0);"><defs><symbol id="httpsc0piktochartcomv2externalassetsiconscoutbdb89ec3b8a27c464f37455d7e73668ed12ab8acsvg-original" viewBox="0 0 128 128" preserveAspectRatio="none"><path xmlns="http://www.w3.org/2000/svg" fill="#FFFFFF" d="M124 34.2c0-3.8-3-6.8-6.8-6.8H40.6c-3.8 0-5.2 3.2-6.8 6.7L21.7 60.9c-.6 1.6-1.8 2.8-3.3 3.5l-10.5 5C5.5 70.6 4 73 4 75.6v19.5h7.9c1.7-4.9 6.3-8.5 11.8-8.5 6.9 0 12.5 5.6 12.5 12.5v.1H86v-.1c0-6.9 5.6-12.5 12.5-12.5 6.1 0 11.2 4.4 12.3 10.3h6.4c3.8 0 6.8-3 6.8-6.8V34.2zM46.9 60.3c0 .8-.7 1.5-1.5 1.5H30.1c-1 0-1.6-1-1.3-1.9C31.2 54 37.2 40.7 39 36.4c.2-.6.8-.9 1.4-.9h5c.8 0 1.5.7 1.5 1.5v23.3z"></path><path xmlns="http://www.w3.org/2000/svg" fill="#F2F2F2" d="M46.9 61.8h28.9V40.5c0-2.8-2.2-5-5-5H46.9"></path><circle xmlns="http://www.w3.org/2000/svg" cx="23.7" cy="99.1" r="12.5" fill="#D8D8D8"></circle><circle xmlns="http://www.w3.org/2000/svg" cx="23.7" cy="99.1" r="7.5" fill="#D8D8D8"></circle><circle xmlns="http://www.w3.org/2000/svg" cx="98.6" cy="99.1" r="12.5" fill="#D8D8D8"></circle><circle xmlns="http://www.w3.org/2000/svg" cx="98.6" cy="99.1" r="7.5" fill="#D8D8D8"></circle><path xmlns="http://www.w3.org/2000/svg" fill="#D8D8D8" d="M124 74.7v-5H7.5c-1.9 1-3.2 2.9-3.4 5H124z"></path><path xmlns="http://www.w3.org/2000/svg" fill="#F2F2F2" d="M60.1 17.4h-2.7c-1 0-1.8.7-2 1.6l-1.2 6c-.2 1.2.7 2.4 2 2.4h5.1c1.3 0 2.2-1.2 2-2.4L62 19c-.2-.9-1-1.6-1.9-1.6z"></path><circle xmlns="http://www.w3.org/2000/svg" cx="98.6" cy="48" r="12.5" fill="#FFFFFF"></circle><path xmlns="http://www.w3.org/2000/svg" fill="#FFFFFF" d="M11.2 99.1H4v-4h7.2"></path><path xmlns="http://www.w3.org/2000/svg" fill="#F37C87" d="M102.5 46.8h-2.7V44c0-.7-.6-1.2-1.2-1.2s-1.2.6-1.2 1.2v2.7h-2.7c-.7 0-1.2.6-1.2 1.2s.6 1.2 1.2 1.2h2.7V52c0 .7.6 1.2 1.2 1.2s1.2-.6 1.2-1.2v-2.7h2.7c.7 0 1.2-.6 1.2-1.2s-.5-1.3-1.2-1.3z"></path><path xmlns="http://www.w3.org/2000/svg" fill="#4A374F" d="M70.7 33.9h-28c-2.6 0-5 1.5-6 3.9-.9 2.1-2.1 4.9-3.5 7.9-2.1 4.8-4.5 10.3-5.8 13.6-.4.9-.3 1.9.3 2.7.5.8 1.4 1.3 2.4 1.3h45.7c.8 0 1.5-.7 1.5-1.5V40.5c-.1-3.6-3-6.6-6.6-6.6zm-25.3 3v23.4H30.3C31.6 57.1 34 51.7 36 47c1.3-3 2.6-5.8 3.5-7.9.6-1.3 1.8-2.1 3.2-2.1l2.7-.1zm28.8 23.4H48.4V36.9h22.4c1.9 0 3.5 1.6 3.5 3.6v19.8zM23.7 90.1c-5 0-9 4-9 9s4 9 9 9 9-4 9-9-4-9-9-9zm0 15c-3.3 0-6-2.7-6-6s2.7-6 6-6 6 2.7 6 6-2.6 6-6 6zm74.9-15c-5 0-9 4-9 9s4 9 9 9 9-4 9-9-4.1-9-9-9zm0 15c-3.3 0-6-2.7-6-6s2.7-6 6-6 6 2.7 6 6-2.7 6-6 6zm-51.7-12c.8 0 1.5-.7 1.5-1.5V81.3c0-.8-.7-1.5-1.5-1.5s-1.5.7-1.5 1.5v10.3c0 .9.6 1.5 1.5 1.5zM98.6 34c-7.7 0-14 6.3-14 14s6.3 14 14 14 14-6.3 14-14-6.3-14-14-14zm0 25c-6.1 0-11-4.9-11-11s4.9-11 11-11 11 4.9 11 11-5 11-11 11z"></path><path xmlns="http://www.w3.org/2000/svg" fill="#4A374F" d="M2.5 99.1c0 .8.7 1.5 1.5 1.5h5.8c.8 7 6.7 12.5 13.9 12.5s13.1-5.4 13.9-12.4h47c.8 7 6.7 12.4 13.9 12.4 7.7 0 14-6.3 14-14v-.7h4.7c2.2 0 4.3-.9 5.9-2.4s2.4-3.7 2.4-5.9V34.2c0-4.6-3.7-8.3-8.3-8.3H64.7c.1-.4.1-.8 0-1.2l-1.2-6c-.3-1.6-1.8-2.8-3.4-2.8h-2.7c-1.7 0-3.1 1.2-3.4 2.8l-1.2 6c-.1.4-.1.8 0 1.2H40.7c-4.7 0-6.5 4-8.2 7.6L20.3 60.3c-.5 1.2-1.4 2.2-2.6 2.8l-10.5 5c-.2.1-.3.2-.5.3-2.2 1.3-3.7 3.4-4.1 5.9v.3c0 .3-.1.6-.1.9v23.6zm7.2-1.5H5.5v-1h4.2v1zm25 1.6c-.1 6-5 10.9-11 10.9-6.1 0-11-4.9-11-11s4.9-11 11-11 11 4.9 11 11v.1zm63.9 10.9c-6 0-10.9-4.9-11-10.9v-.1c0-6.1 4.9-11 11-11s11 4.9 11 11-5 11-11 11zM56.9 19.3c0-.2.3-.4.5-.4h2.7c.2 0 .4.2.5.4l1.2 6c0 .2 0 .3-.1.4-.1.1-.2.2-.4.2h-5.1c-.2 0-.3-.1-.4-.2-.1-.1-.1-.2-.1-.4l1.2-6zM19 65.8c1.9-.9 3.3-2.4 4.1-4.3l12.2-26.8c1.7-3.7 2.8-5.8 5.4-5.8h76.6c2.9 0 5.3 2.4 5.3 5.3v33.9H14.1l4.9-2.3zM7.9 71.2h114.6v2H6.1c.4-.9 1-1.5 1.8-2zm114.6 5v13.9c0 1.4-.6 2.7-1.6 3.7s-2.3 1.6-3.7 1.6H112c-1.6-5.9-7.1-10.3-13.5-10.3-7.3 0-13.2 5.5-13.9 12.6H37.7c-.7-7-6.7-12.6-14-12.6-5.8 0-10.7 3.5-12.9 8.5H5.5V76.2h117z"></path></symbol></defs><use data-v-6ca697d7="" xlink:href="#httpsc0piktochartcomv2externalassetsiconscoutbdb89ec3b8a27c464f37455d7e73668ed12ab8acsvg-original" href="#httpsc0piktochartcomv2externalassetsiconscoutbdb89ec3b8a27c464f37455d7e73668ed12ab8acsvg-original"></use></svg>