<svg xmlns:xlink="http://www.w3.org/1999/xlink" xmlns="http://www.w3.org/2000/svg" data-v-78fc1f3f="" fill="currentColor" aria-label="Piktochart Logo" class="header-full-logo bi bi-full-logo-white" width="423"  height="57" ><defs><symbol viewBox="0 0 423 57" fill="currentColor" class="bi bi-full-logo-white" id="full-logo-white" xmlns="http://www.w3.org/2000/svg"><path fill="#0FB4BB" d="M34.199 0H9.975C4.475 0 0 4.475 0 9.976v17.598a12.814 12.814 0 0 1 8.55-4.694V9.976c0-.788.638-1.426 1.425-1.426h24.224c4.715 0 8.55 3.836 8.55 8.55s-3.835 8.55-8.55 8.55H9.975c-.485 0-.961.034-1.425.103C3.722 26.445 0 30.609 0 35.625v11.4C0 52.525 4.475 57 9.975 57h11.399c5.5 0 9.976-4.475 9.976-9.975V37.05H22.8v9.975c0 .787-.64 1.425-1.426 1.425h-11.4a1.425 1.425 0 0 1-1.424-1.425v-11.4c0-.787.638-1.425 1.425-1.425h24.224c9.43 0 17.1-7.671 17.1-17.1C51.3 7.671 43.63 0 34.2 0"></path><path fill="#FFF" d="M79.799 28.5h8.143a4.077 4.077 0 0 0 4.072-4.072 4.077 4.077 0 0 0-4.072-4.07h-8.143V28.5zm0 16.286h-8.142V12.214h16.285c6.735 0 12.215 5.48 12.215 12.214 0 6.736-5.48 12.216-12.215 12.216h-8.143v8.142zm29.48 0h8.143V12.215h-8.143zm49.973 0h-10.253l-10.244-13.42-2.817 2.81v10.61h-8.143V12.215h8.143v10.463l10.496-10.463h11.54L144.57 25.569zm33.382-32.571h-27.686v8.143h9.772v24.428h8.143V20.358h9.771zm230.321 0H395.27v8.143h9.771v24.428h8.143V20.358h9.771zM215.27 20.357c-4.489 0-8.143 3.653-8.143 8.143s3.654 8.143 8.143 8.143c4.489 0 8.144-3.653 8.144-8.143s-3.655-8.143-8.144-8.143m0 24.43c-8.979 0-16.285-7.307-16.285-16.287 0-8.98 7.306-16.286 16.285-16.286 8.981 0 16.286 7.306 16.286 16.286s-7.305 16.286-16.286 16.286m40.937 0c-8.98 0-16.286-7.306-16.286-16.286s7.305-16.285 16.286-16.285c5.127 0 10.019 2.471 13.082 6.61l-6.544 4.846c-1.56-2.106-3.942-3.314-6.538-3.314-4.49 0-8.144 3.654-8.144 8.143 0 4.49 3.654 8.143 8.144 8.143a8.157 8.157 0 0 0 6.68-3.5l6.68 4.657a16.304 16.304 0 0 1-13.36 6.986m41.824-32.571v12.406H286.63V12.215h-8.143v32.571h8.143V32.764h11.401v12.022h8.143V12.215zm68.811 8.142h8.143a4.074 4.074 0 0 1 4.072 4.071 4.074 4.074 0 0 1-4.072 4.072h-8.143v-8.143zm13.6 15c4.004-2.012 6.756-6.157 6.756-10.929 0-6.733-5.479-12.214-12.213-12.214H358.7v32.572h8.143v-8.143h4.445l5.962 8.143h10.088l-6.896-9.43zm-52.166-3.6 4.16-10.724 4.16 10.724h-8.32zm9.479-19.542H327.12l-12.63 32.571h8.737l1.897-4.886h14.625l1.897 4.886h8.737l-12.628-32.57z"></path></symbol></defs><use xlink="/assets/952eb392c89e6a6869f4b9df6657928e.svg#full-logo-white" xlink:href="#full-logo-white"></use></svg>