<svg xmlns:xlink="http://www.w3.org/1999/xlink" xmlns="http://www.w3.org/2000/svg" data-v-6ca697d7="" width="117" height="117" style="display: block; color: rgb(0, 0, 0);"><defs><symbol id="httpsc0piktochartcomv2externalassetsiconscout57b7cd515891686b597d166156e8b4f8cfff9e10svg-original" viewBox="0 0 64 64" preserveAspectRatio="none" version="1.1" x="0" y="0" xml:space="preserve"><path xmlns="http://www.w3.org/2000/svg" class="shrine20241204-37-i6sw3i_svg__st1" d="M36.3 24.9c0 1.4-1.1 2.5-2.5 2.5-1.3 0-2.5-1.2-2.5-2.5 0-1.4 1.2-2.5 2.5-2.5C35.3 22.4 36.4 23.5 36.3 24.9zM20.8 19.9c0 1.3-1 2.3-2.3 2.3-1.3 0-2.4-1.1-2.4-2.4 0-1.3 1.1-2.3 2.4-2.3C19.8 17.6 20.8 18.6 20.8 19.9zM45.7 40.8c0 1.2-1 2.2-2.1 2.2-1.2 0-2.2-1-2.2-2.2 0-1.2 1.1-2.2 2.2-2.1C44.8 38.6 45.7 39.6 45.7 40.8zM20.3 39.4c0 1.2-1 2.3-2.2 2.3-1.2 0-2.3-1.1-2.3-2.3 0-1.2 1.1-2.2 2.3-2.2C19.4 37.2 20.3 38.2 20.3 39.4z" fill="#1D75B9"></path><path xmlns="http://www.w3.org/2000/svg" class="shrine20241204-37-i6sw3i_svg__st0" d="M55.9,26.2c0.1-0.4,0.1-0.8,0.2-1.2c0.7-5.4-0.3-9.8-3-13.4C48.2,5.1,41.3,1.7,32.1,1.1h-0.2 c-9.2,0.6-16.1,4-20.9,10.5c-2.7,3.6-3.7,8-3,13.4c0.1,0.4,0.1,0.8,0.2,1.2c-2.5,0.6-3.7,2.3-3.7,4.9c0,3.3,0.7,6.3,2.1,8.9 c0.9,1.8,2.5,2.8,4.6,3.2c0.1,0.3,0.1,0.6,0.2,0.8c1.3,4.3,4,8.8,7.1,12.2c1.6,1.8,3.3,3.2,5.1,4.3c-0.3-0.5-0.5-1-0.6-1.6 c-0.2-1,0-2,0.5-2.9c-4.2-3.4-7.4-8.9-8.7-13.1c-0.1-0.3-0.2-0.7-0.3-1.2c0-0.2-0.1-0.4-0.1-0.7L14,39.8l-1.4,0 c-1.9,0-2.5-0.7-2.9-1.4C8.6,36.2,8,33.8,8,31.1c0-1.1,0.2-1.3,1.5-1.5c0.3,0,0.5-0.1,0.8-0.1c0.1,0,0.2,0,0.3,0l1.7-0.3l-0.3-1.7 c-0.1-0.4-0.1-0.7-0.2-1c-0.1-0.6-0.2-1.2-0.3-1.7c-0.6-4.4,0.2-7.9,2.3-10.8C18,8.2,23.9,5.2,32,4.7c8.1,0.5,14,3.5,18.2,9.1 c2.1,2.9,2.9,6.4,2.3,10.8c-0.1,0.6-0.2,1.1-0.3,1.7c-0.1,0.3-0.1,0.7-0.2,1L51.8,29l1.7,0.3c0.1,0,0.2,0,0.3,0 c0.2,0,0.5,0.1,0.8,0.1c1.4,0.2,1.5,0.5,1.5,1.5c0,2.7-0.6,5.1-1.7,7.2c-0.4,0.7-1,1.4-2.9,1.4l-1.4,0l-0.3,1.3 c-0.1,0.2-0.1,0.4-0.1,0.7c-0.1,0.4-0.2,0.8-0.3,1.2c-2,6.5-8.6,16.1-16.5,16.3h-0.7l-0.1,0l-0.1,0h-0.5c-0.4,1.6-1.7,2.8-3.3,3.1 c1,0.3,2,0.4,3,0.4c0.3,0,0.6,0,0.9,0h0.9c4.4-0.1,8.8-2.4,12.7-6.7c3.1-3.4,5.8-8,7.1-12.2c0.1-0.3,0.2-0.6,0.2-0.8 c2.1-0.4,3.6-1.4,4.6-3.2c1.4-2.6,2.1-5.6,2.1-8.9C59.6,28.4,58.3,26.8,55.9,26.2z" fill="#2D3E50"></path><path xmlns="http://www.w3.org/2000/svg" class="shrine20241204-37-i6sw3i_svg__st0" d="M35.6 41.3C35 41 34.4 41.1 34 41.6c-1 1.3-2.4 1.3-3.4.1-.2-.3-.6-.6-1-.6-.2 0-.4.1-.6.2-.6.4-.7 1.1-.2 1.7.8 1.3 2 1.9 3.5 1.9h0 0c1.7 0 2.9-.7 3.7-2.1C36.2 42.3 36.1 41.7 35.6 41.3zM16.7 30.7c1.9-.6 4-.8 5.9-.5.6.1 1.2.3 1.7.5.8.3 1.8.6 2.7.6.3 0 .6 0 .8-.1.6-.1 1-.4 1.2-.9.1-.3.1-.7-.4-1.2-.4-.4-1.1-.6-1.7-.7-.5-.1-1.1-.2-1.6-.3-1.6-.3-3.3-.7-5.1-.7-.4 0-.8 0-1.2.1-.9.1-1.6.4-2.5.9-.6.4-1.2.9-1.2 1.5 0 .3.1.6.4.7C16 30.7 16.4 30.8 16.7 30.7zM27.8 33.8c-.7-.2-1.6-.2-2.5-.2-.8 0-1.6.1-2.4.1l-.1 0c-.3 0-.6 0-.9.1-1.9.1-3.6-.2-5.1-1.1l-.1 0-.2 0c-.2 0-.4.1-.5.3-.2.3-.1.6.1.8.1.1.3.3.4.4l0 0c.3.3.5.5.9.7.1 0 .1.1.2.1.4.3.9.5 1.4.7.9.3 1.9.5 2.9.6.4 0 .7 0 1.1 0 .8 0 1.4-.1 2-.3.3-.1.6-.2.8-.4.3-.1.6-.3.9-.4.3-.1.5-.1.9-.1.3 0 .6-.3.6-.7C28.4 34.2 28.1 33.8 27.8 33.8zM48.2 28.3c-.9-.6-1.6-.9-2.5-.9-.4 0-.8-.1-1.2-.1-1.7 0-3.4.3-5.1.7-.5.1-1.1.2-1.6.3-.6.1-1.3.3-1.7.7-.5.5-.4 1-.4 1.2.1.4.6.8 1.2.9.3.1.6.1.8.1 1 0 1.9-.3 2.7-.6.6-.2 1.2-.4 1.7-.5 2-.3 4-.1 5.9.5.3.1.6.1.9-.1.2-.2.4-.5.4-.7C49.4 29.2 48.8 28.7 48.2 28.3zM48.3 32.5C48.3 32.5 48.3 32.5 48.3 32.5l-.1 0L48 32.6c-1.5.8-3.2 1.2-5.1 1.1-.3 0-.6 0-.9-.1l-.1 0c-.8-.1-1.6-.1-2.4-.1-1 0-1.8.1-2.5.2-.3.1-.6.4-.5.7 0 .4.3.6.6.6.3 0 .6.1.9.1.3.1.6.2.9.4.3.1.5.2.8.3.6.2 1.2.3 2 .3.4 0 .7 0 1.1 0 1.1-.1 2-.3 2.9-.6.5-.2 1-.4 1.4-.7.1 0 .1-.1.2-.1.3-.2.6-.5.9-.8.1-.1.3-.3.4-.4.2-.2.3-.5.1-.8C48.7 32.6 48.5 32.5 48.3 32.5z" fill="#2D3E50"></path><path xmlns="http://www.w3.org/2000/svg" class="shrine20241204-37-i6sw3i_svg__st1" d="M37.9 50.2c-.3-.5-.7-1.1-1.1-1.6-.5-.7-1.2-1.3-1.4-2.2 0 0-.1-.1-.1-.1 0 0-.1.1-.1.1-.1.5-.4.9-.7 1.3-.5.7-1.1 1.4-1.6 2.1-.4.6-.6 1.3-.4 2.1.3 1.5 1.6 2.5 3.1 2.4 1.4-.1 2.6-1.4 2.6-2.9C38.3 51 38.2 50.6 37.9 50.2zM29.8 56.9c-.3-.5-.7-1.1-1.1-1.6-.5-.7-1.2-1.3-1.4-2.2 0 0-.1-.1-.1-.1 0 0-.1.1-.1.1-.1.5-.4.9-.7 1.3-.5.7-1.1 1.4-1.6 2.1-.4.6-.6 1.3-.4 2.1.3 1.5 1.6 2.5 3.1 2.4 1.4-.1 2.6-1.4 2.6-2.9C30.1 57.7 30 57.3 29.8 56.9z" fill="#1D75B9"></path></symbol></defs><use data-v-6ca697d7="" xlink:href="#httpsc0piktochartcomv2externalassetsiconscout57b7cd515891686b597d166156e8b4f8cfff9e10svg-original" href="#httpsc0piktochartcomv2externalassetsiconscout57b7cd515891686b597d166156e8b4f8cfff9e10svg-original"></use></svg>