<svg xmlns:xlink="http://www.w3.org/1999/xlink" xmlns="http://www.w3.org/2000/svg" fill="currentColor" class="icon-light bi bi-presentation-preview" width="13"  height="12" ><defs><symbol viewBox="0 0 13 12" fill="currentColor" class="bi bi-presentation-preview" id="presentation-preview" xmlns="http://www.w3.org/2000/svg"><path d="M.855 3.203v7.644c0 .344.328.653.75.653H9.95c.422 0 .75-.309.75-.653V3.203c0-.344-.328-.652-.75-.652H1.605c-.422 0-.75.308-.75.652zM9.2 10.475H2.355c-.223 0-.375-.14-.375-.28V5.534c0-.14.152-.28.375-.28H9.2c.223 0 .375.14.375.28v4.66c0 .14-.152.28-.375.28zm3.188-.56c-.303 0-.535-.22-.563-.466V1.9c.028-.233-.137-.397-.375-.374H3.48c-.246-.023-.468-.261-.468-.559C3.012.72 3.234.5 3.48.5h8.625c.42 0 .75.328.75.746v8.203a.484.484 0 0 1-.468.466z"></path></symbol></defs><use xlink="/assets/952eb392c89e6a6869f4b9df6657928e.svg#presentation-preview" xlink:href="#presentation-preview"></use></svg>