<svg xmlns:xlink="http://www.w3.org/1999/xlink" xmlns="http://www.w3.org/2000/svg" data-v-6ca697d7="" width="128" height="128" style="display: block; color: rgb(0, 0, 0);"><defs><symbol id="httpsc0piktochartcomv2externalassetsiconscoutc762fe919a36d4198355baf1c4de4cf3085bbea2svg-original" viewBox="0 0 128 128" preserveAspectRatio="none"><path xmlns="http://www.w3.org/2000/svg" fill="#4A374F" d="M31.6 92c-4.3 2.1-7.1 6.5-7.1 11.3V124c0 1.4 1.1 2.5 2.5 2.5h74c1.4 0 2.5-1.1 2.5-2.5v-20.7c0-4.8-2.8-9.2-7.1-11.3l-19.9-9.6v-.7c5.7-3.8 12.1-11.2 17.4-25.2 2.6-.2 4.8-1.5 6.3-3.6 2-2.7 2.3-6.6.9-9.5-.9-2-2.5-3.4-4.5-4.1-.6-23.2-12.5-37-32.1-37S33 16.1 32.3 39.4c-2 .7-3.6 2.1-4.5 4.1-1.4 3-1 6.8.9 9.5 1.5 2.1 3.7 3.3 6.3 3.6 5 13.2 11 20.5 16.4 24.5v1.4L31.6 92zm64.9-46.7c0 .1.1.1.2.2.6 1.3.4 3.2-.5 4.5-.2.2-.3.4-.5.6.3-1.7.6-3.6.8-5.3zm-63.7 4.8c-.9-1.3-1.1-3.2-.5-4.5 0-.1.1-.1.1-.2.2 1.9.5 3.7.9 5.3-.1-.2-.3-.4-.5-.6zM64.5 7.3c16.8 0 26.6 11.7 27.2 32.1-11.5 2.6-21.1-2.4-29.6-7-7.2-3.8-13.4-7.1-19.3-4.9-1.7.6-3.2 1.6-4.6 3C41.1 15.7 50.3 7.3 64.5 7.3zm-25.3 46c-.9-3.4-1.9-7-1.9-11.4 2.2-5.4 4.5-8.6 7.2-9.6 3.9-1.4 9.1 1.4 15.2 4.6 7.1 3.8 15.6 8.3 25.5 8.3 2 0 4.1-.2 6.2-.6-.3 2.9-.9 6.3-1.7 8.6C80.9 78 69.1 80.7 64.5 80.7c-4.6 0-16.4-2.7-25.3-27.4zm32.3 31c0 .3-.1.6-.1.9-.1.4-.2.9-.3 1.3v.1c-.1.2-.1.3-.2.5 0 .1-.1.2-.1.2-.1.1-.1.2-.2.3-.1.1-.2.3-.3.4l-.1.1c-.8 1.2-1.9 2.1-3.2 2.7h-.1c-.2.1-.4.1-.6.2h-.1c-.2.1-.4.1-.5.1h-.2c-.2 0-.4.1-.5.1H64.1c-.5 0-1-.1-1.5-.2-3.4-.7-6-3.7-6-7.3v-.1c3.3 1.4 6.1 1.8 8 1.8 1.6.3 4 0 6.9-1.1zm-19.4 3.4s0 .1 0 0c.1.4.3.7.4 1.1 0 .1.1.2.2.3.1.2.2.5.3.7.1.1.1.2.2.4s.2.4.4.6c.1.1.1.2.2.3.2.2.3.5.5.7 0 .1.1.1.1.2.2.3.5.6.7.8.1.1.2.1.2.2.2.2.4.4.6.5l.3.3c.2.2.4.3.6.4.1.1.2.2.3.2.2.1.5.3.7.4.1.1.2.1.3.2.3.2.7.3 1 .5.1 0 .1.1.2.1.3.1.6.2.8.3.1 0 .2.1.4.1.2.1.5.1.7.2.1 0 .3.1.4.1.3 0 .5.1.8.1h.4c.4 0 .8.1 1.2.1h1.1c.2 0 .3 0 .5-.1.2 0 .4 0 .6-.1.2 0 .4-.1.6-.1.1 0 .3-.1.4-.1.2-.1.5-.1.7-.2.1 0 .2 0 .2-.1.3-.1.5-.2.8-.3h.1c2.4-1 4.4-2.8 5.7-5 0 0 0-.1.1-.1l.3-.6c.1-.1.2-.3.2-.4.1-.1.1-.2.2-.4s.2-.5.3-.7c0-.1 0-.1.1-.2 0-.1.1-.3.2-.4l18.3 8.8c2.6 1.2 4.2 3.9 4.2 6.8v18.2h-8V114c0-1.4-1.1-2.5-2.5-2.5s-2.5 1.1-2.5 2.5v7.5h-43V114c0-1.4-1.1-2.5-2.5-2.5s-2.5 1.1-2.5 2.5v7.5h-8v-18.2c0-2.9 1.7-5.5 4.2-6.8l18.3-8.8z"></path><path xmlns="http://www.w3.org/2000/svg" fill="#4A374F" d="M74 111.5h10c1.4 0 2.5-1.1 2.5-2.5s-1.1-2.5-2.5-2.5H74c-1.4 0-2.5 1.1-2.5 2.5s1.1 2.5 2.5 2.5z"></path></symbol></defs><use data-v-6ca697d7="" xlink:href="#httpsc0piktochartcomv2externalassetsiconscoutc762fe919a36d4198355baf1c4de4cf3085bbea2svg-original" href="#httpsc0piktochartcomv2externalassetsiconscoutc762fe919a36d4198355baf1c4de4cf3085bbea2svg-original"></use></svg>