<svg xmlns:xlink="http://www.w3.org/1999/xlink" xmlns="http://www.w3.org/2000/svg" fill="currentColor" class="icon-white bi bi-presentation" width="24"  height="24" ><defs><symbol viewBox="0 0 12 16" fill="currentColor" class="bi bi-presentation" id="presentation" xmlns="http://www.w3.org/2000/svg"><path d="m10.94 2.986.142 7.453c.008.4-.32.73-.727.73H.809a.722.722 0 0 1-.727-.73L.21 2.988a.725.725 0 0 1 .73-.707h9.272c.397 0 .722.314.729.706zM6.288 1.724h-1.41c-.253 0-.395-.232-.395-.426 0-.194.074-.397.33-.474.254-.076.35-.13.35-.369 0-.238.206-.398.42-.398.215 0 .42.16.42.398 0 .24.096.293.35.37.256.076.33.28.33.473 0 .194-.142.426-.395.426zm-5.786 10h10.162c.231 0 .419.233.419.522 0 .288-.188.522-.419.522h-.557c-.22 0-.382.26-.325.526l.235 1.105c.058.28-.077.564-.3.636a.347.347 0 0 1-.106.016c-.186 0-.356-.156-.405-.392l-.291-1.373c-.065-.306-.287-.518-.54-.518H2.77c-.256 0-.479.215-.542.524l-.28 1.373c-.049.236-.22.392-.406.392a.347.347 0 0 1-.105-.016c-.223-.072-.358-.357-.3-.635l.227-1.116c.053-.265-.108-.522-.327-.522H.501c-.231 0-.419-.234-.419-.522 0-.289.188-.522.419-.522zm3.98-3.534c0 .17.22.262.366.155l2.258-1.66a.288.288 0 0 0 0-.476L4.848 4.548c-.146-.108-.366-.015-.366.155V8.19z"></path></symbol></defs><use xlink="/assets/952eb392c89e6a6869f4b9df6657928e.svg#presentation" xlink:href="#presentation"></use></svg>