<svg xmlns:xlink="http://www.w3.org/1999/xlink" xmlns="http://www.w3.org/2000/svg" data-v-6ca697d7="" width="15" height="66" style="display: block; color: rgb(84, 110, 79);"><defs><symbol id="httpsc0piktochartcomv2themesbasesvgstheme160notesvg-custom" viewBox="12.414999961853027 0 7.1700029373168945 32" preserveAspectRatio="none" version="1.1" xmlns:xlink="http://www.w3.org/1999/xlink" x="0px" y="0px" enable-background="new 0 0 32 32" xml:space="preserve">
<path xmlns="http://www.w3.org/2000/svg" d="M18.69,0h-5.378v21.782h5.378V0z M18.511,26.084c-0.718-0.656-1.555-0.985-2.51-0.985c-0.985,0-1.83,0.345-2.532,1.029  c-0.702,0.688-1.054,1.511-1.054,2.467c0,0.477,0.098,0.926,0.291,1.343c0.195,0.42,0.456,0.777,0.785,1.075  c0.328,0.301,0.709,0.539,1.142,0.719C15.065,31.909,15.522,32,16,32c0.985,0,1.83-0.343,2.531-1.031  c0.702-0.685,1.054-1.507,1.054-2.464C19.586,27.551,19.229,26.742,18.511,26.084z" fill="#212529"></path>
</symbol></defs><use data-v-6ca697d7="" xlink:href="#httpsc0piktochartcomv2themesbasesvgstheme160notesvg-custom" href="#httpsc0piktochartcomv2themesbasesvgstheme160notesvg-custom"></use></svg>