<svg xmlns:xlink="http://www.w3.org/1999/xlink" xmlns="http://www.w3.org/2000/svg" data-v-6ca697d7="" width="84" height="76" style="display: block; color: rgb(0, 0, 0);"><defs><symbol id="httpsc0piktochartcomv2externalassetsiconscout1288802d1101af7b50abc47012fc582c61a81e49svg-custom" viewBox="0 0 64 64" preserveAspectRatio="none"><path xmlns="http://www.w3.org/2000/svg" d="M14.365 46.458c7.38 2.147 12.82-5.663 9.442-12.469a9.082 9.082 0 0 0-2.204-2.932 6.314 6.314 0 0 0 2.018-3.914 5.377 5.377 0 0 1 4.464 5.287v25.252a1 1 0 0 0 2 0V32.43a7.386 7.386 0 0 0-6.437-7.312 6.436 6.436 0 0 0-2.033-4.12c4.348-3.771 4.554-12.228-1.228-14.811C13.752 3.356 7.834 7.777 5.91 14.7a34.431 34.431 0 0 0 1.237 25.725 10.94 10.94 0 0 0 7.218 6.032zM7.813 15.315c1.485-4.775 4.09-7.755 8.631-7.996 2.744.128 5.65 1.172 6.206 4.955a7.753 7.753 0 0 1-2.551 7.387 1.654 1.654 0 0 0 .02 2.701c2.07 1.365 2.11 5.96-.024 7.342a1.78 1.78 0 0 0 0 2.703 6.904 6.904 0 0 1 1.918 2.467c2.63 5.184-1.36 11.366-7.14 9.649a9.024 9.024 0 0 1-5.897-4.906 32.478 32.478 0 0 1-1.163-24.302zm50.29-.575c-1.167-3.883-3.016-6.497-5.582-7.947-4.513-3.315-12.732-.812-13.156 5.235a9.816 9.816 0 0 0 3.02 8.966 6.42 6.42 0 0 0-2.033 4.124 7.386 7.386 0 0 0-6.437 7.312v25.252a1 1 0 0 0 2 0V32.43a5.377 5.377 0 0 1 4.464-5.287 6.317 6.317 0 0 0 2.017 3.914c-4.15 3.426-4.27 11.12-.056 14.098a8.226 8.226 0 0 0 7.295 1.302 10.92 10.92 0 0 0 7.198-5.986 34.437 34.437 0 0 0 1.27-25.73zm-8.976 29.783c-5.766 1.707-9.78-4.44-7.14-9.65a6.894 6.894 0 0 1 1.907-2.458 1.68 1.68 0 0 0 .64-1.375 1.658 1.658 0 0 0-.629-1.336c-2.127-1.364-2.088-5.975-.051-7.323a1.67 1.67 0 0 0 .09-2.69 7.76 7.76 0 0 1-2.593-7.417c.731-5.168 6.697-6.035 10.113-3.785 2.167 1.228 3.712 3.46 4.735 6.865a32.483 32.483 0 0 1-1.194 24.308 9.007 9.007 0 0 1-5.878 4.861z" fill="#212529"></path></symbol></defs><use data-v-6ca697d7="" xlink:href="#httpsc0piktochartcomv2externalassetsiconscout1288802d1101af7b50abc47012fc582c61a81e49svg-custom" href="#httpsc0piktochartcomv2externalassetsiconscout1288802d1101af7b50abc47012fc582c61a81e49svg-custom"></use></svg>