<svg xmlns:xlink="http://www.w3.org/1999/xlink" xmlns="http://www.w3.org/2000/svg" data-v-6ca697d7="" width="378" height="428" style="display: block; color: rgb(255, 255, 255);"><defs><symbol id="httpsc0piktochartcomv2themesbasesvgs040620mlinesvg-custom" viewBox="2 0.0928337499499321 28.10000228881836 31.90716552734375" preserveAspectRatio="none" version="1.1" xmlns:xlink="http://www.w3.org/1999/xlink" x="0px" y="0px" xml:space="preserve">
<path xmlns="http://www.w3.org/2000/svg" d="M28,27.4c-0.9,0.5-1.5-0.3-1.5-1.2c0-2.2-1.5-5.2-4.6-4c-3,1.1-3.4,5-5.1,6c0.3-6.1,10-7.3,10.3-12.9  c0.1-1.8-0.8-3.5-2.4-4.5c-6.1-3.7-11,3.7-13.2,8.3c-0.7,1.5-3.2,5.9-4.6,6.1c-0.7,0.2-1.3-0.5-1.2-1.3c1-5.3,6.9-9.1,9.8-13.7  c2.5-3,4.5-8.2-0.7-10c-5.5-1-9.4,5.2-10.3,10.2L8.3,11c0.8-6.8,9.3-10.3,4.5-3.7C9.4,12.9,2.7,16.7,2,23.8c0,1.9,0.9,3.6,2.4,4.4  c5.5,2.8,8.7-3.8,11.1-8.4c1.4-2.3,4.1-7.6,7.2-5.9c0.5,0.3,0.7,0.7,0.6,1.1c0,0.7-0.7,1.4-1.9,2.1c-3.3,1.7-8.6,6.7-8.4,11  c-0.1,2.2,1.4,3.9,3.6,3.9c3.9-0.1,4.7-3.6,6.2-5.7c-0.1,3.8,4.1,6.4,7.3,4.3L28,27.4z" fill="#212529"></path>
</symbol></defs><use data-v-6ca697d7="" xlink:href="#httpsc0piktochartcomv2themesbasesvgs040620mlinesvg-custom" href="#httpsc0piktochartcomv2themesbasesvgs040620mlinesvg-custom"></use></svg>