<svg xmlns:xlink="http://www.w3.org/1999/xlink" xmlns="http://www.w3.org/2000/svg" data-v-6ca697d7="" width="104" height="104" style="display: block; color: rgb(84, 110, 79);"><defs><symbol id="httpsc0piktochartcomv2themesbasesvgs12feb2016Callv1svg-custom" viewBox="0.09975004196166992 0.09949994087219238 31.800748825073242 31.800750732421875" preserveAspectRatio="none" version="1.1" xmlns:xlink="http://www.w3.org/1999/xlink" x="0px" y="0px" enable-background="new 0 0 32 32" xml:space="preserve">
<path xmlns="http://www.w3.org/2000/svg" d="M28.964,29.627l2.092-2.092c1.126-1.126,1.126-2.951,0-4.077l-4.165-4.165c-1.126-1.126-2.951-1.126-4.077,0l-0.973,0.973  c-0.988,0.988-2.59,0.988-3.578,0l-6.528-6.528c-0.988-0.988-0.988-2.59,0-3.578l0.973-0.973c1.126-1.126,1.126-2.951,0-4.077  L8.541,0.944c-1.126-1.126-2.951-1.126-4.077,0L2.373,3.036c-3.031,3.031-3.031,7.945,0,10.976l15.615,15.615  C21.019,32.658,25.933,32.658,28.964,29.627z" fill="#212529"></path>
</symbol></defs><use data-v-6ca697d7="" xlink:href="#httpsc0piktochartcomv2themesbasesvgs12feb2016Callv1svg-custom" href="#httpsc0piktochartcomv2themesbasesvgs12feb2016Callv1svg-custom"></use></svg>