<svg xmlns:xlink="http://www.w3.org/1999/xlink" xmlns="http://www.w3.org/2000/svg" fill="currentColor" class="icon-light mr-0 bi bi-presentation-transition" width="15"  height="12" ><defs><symbol viewBox="0 0 15 12" fill="currentColor" class="bi bi-presentation-transition" id="presentation-transition" xmlns="http://www.w3.org/2000/svg"><path d="M0 1.079C0 .737.235.5.469.5c.349 0 .586.237.586.579v9.842c0 .338-.23.571-.47.579H.47c-.24-.007-.469-.241-.469-.579V1.08zm1.875 1.274c0-.344.236-.58.586-.58.233 0 .469.236.469.58v7.294c0 .34-.229.572-.47.58h-.116c-.24-.008-.469-.24-.469-.58V2.353zm2.344-.116h6.562c.235 0 .469.238.469.579V9.3c0 .342-.234.579-.469.579H4.22c-.236 0-.469-.237-.469-.579V2.816c0-.34.233-.58.469-.58zm7.851.116c0-.344.237-.58.586-.58.229 0 .462.229.469.464v7.526a.512.512 0 0 1-.469.463h-.117c-.24-.007-.469-.239-.469-.579V2.353zm1.875-1.274c0-.342.237-.579.586-.579.233 0 .469.237.469.579v9.842c0 .338-.229.571-.469.579h-.117c-.24-.007-.469-.241-.469-.579V1.08z"></path></symbol></defs><use xlink="/assets/952eb392c89e6a6869f4b9df6657928e.svg#presentation-transition" xlink:href="#presentation-transition"></use></svg>