<svg xmlns:xlink="http://www.w3.org/1999/xlink" xmlns="http://www.w3.org/2000/svg" data-v-6ca697d7="" width="128" height="128" style="display: block; color: rgb(0, 0, 0);"><defs><symbol id="httpsc0piktochartcomv2externalassetsiconscoutce37846b92e1b1a18644c642d964f2c2165c7127svg-original" viewBox="0 0 128 128" preserveAspectRatio="none"><path xmlns="http://www.w3.org/2000/svg" fill="#D8D8D8" d="M96.4 124H31.6c-5.3 0-9-5.3-7.1-10.2L34 87.9c1.1-3 3.9-5 7.1-5h45.7c3.2 0 6 2 7.1 5l9.6 25.9c1.9 4.9-1.8 10.2-7.1 10.2z"></path><ellipse xmlns="http://www.w3.org/2000/svg" cx="64" cy="98.9" opacity=".1" rx="19.1" ry="10"></ellipse><path xmlns="http://www.w3.org/2000/svg" fill="#F2F2F2" d="M102.8 42.8C102.8 21.4 85.4 4 64 4S25.2 21.4 25.2 42.8c0 .7 0 1.4.1 2 1.1 21.8 18.8 47.7 36.2 58.5.8.5 1.7.7 2.6.7.9 0 1.7-.2 2.5-.7 17.4-10.7 35.1-36.7 36.2-58.5v-2z"></path><path xmlns="http://www.w3.org/2000/svg" d="M33.3 44.8c0-.7-.1-1.3-.1-2C33.2 22.7 48.5 6.2 68 4.2c-1.3-.1-2.6-.2-4-.2-21.4 0-38.8 17.4-38.8 38.8 0 .7 0 1.4.1 2 1.1 21.8 18.8 47.7 36.2 58.5.8.5 1.7.7 2.6.7h.4c-.7-.1.6-.3 0-.7-17.4-10.8-30.2-36.7-31.2-58.5z" opacity=".1"></path><circle xmlns="http://www.w3.org/2000/svg" cx="64" cy="42.8" r="30.6" fill="#FFFFFF"></circle><path xmlns="http://www.w3.org/2000/svg" fill="#D8D8D8" d="M81.5 37H69.8V25.3H58.2V37H46.5v11.6h11.7v11.7h11.6V48.6h11.7z"></path><path xmlns="http://www.w3.org/2000/svg" fill="#4A374F" d="M24.1 121.6c1.7 2.4 4.5 3.9 7.5 3.9h64.8c3 0 5.8-1.5 7.5-3.9s2.1-5.6 1.1-8.4l-9.6-25.9c-.3-.8-1.2-1.2-1.9-.9-.8.3-1.2 1.2-.9 1.9l9.6 25.9c.7 1.9.4 3.9-.7 5.6-1.2 1.7-3 2.6-5 2.6H31.6c-2 0-3.9-1-5-2.6-1.2-1.7-1.4-3.7-.7-5.6l9.6-25.9c.3-.8-.1-1.6-.9-1.9-.8-.3-1.6.1-1.9.9L23 113.2c-1 2.8-.6 6 1.1 8.4z"></path><path xmlns="http://www.w3.org/2000/svg" fill="#4A374F" d="M60.7 104.6c1 .6 2.1.9 3.3.9h.1c1.2 0 2.3-.3 3.3-.9 16.9-10.4 35.8-36.2 36.9-59.7 0-.7.1-1.4.1-2.1 0-22.2-18.1-40.3-40.3-40.3S23.7 20.6 23.7 42.8c0 .7 0 1.4.1 2.1 1.1 23.5 20 49.3 36.9 59.7zm-34-61.8C26.7 22.2 43.4 5.5 64 5.5s37.3 16.7 37.3 37.3v1.9C100.2 66.5 82 92 65.8 102c-.5.3-1.1.5-1.7.5v1.5-1.5c-.6 0-1.2-.2-1.7-.5C46 92 27.8 66.5 26.8 44.7c-.1-.6-.1-1.3-.1-1.9z"></path><path xmlns="http://www.w3.org/2000/svg" fill="#4A374F" d="M71.3 60.3V50.1h10.2c.8 0 1.5-.7 1.5-1.5V37c0-.8-.7-1.5-1.5-1.5H71.3V25.3c0-.8-.7-1.5-1.5-1.5H58.2c-.8 0-1.5.7-1.5 1.5v10.2H46.5c-.8 0-1.5.7-1.5 1.5v11.7c0 .8.7 1.5 1.5 1.5h10.2v10.2c0 .8.7 1.5 1.5 1.5h11.7c.8-.1 1.4-.8 1.4-1.6zm-3-11.7v10.2h-8.7V48.6c0-.8-.7-1.5-1.5-1.5H48v-8.7h10.2c.8 0 1.5-.7 1.5-1.5V26.8h8.7V37c0 .8.7 1.5 1.5 1.5H80v8.7H69.8c-.8-.1-1.5.6-1.5 1.4z"></path><path xmlns="http://www.w3.org/2000/svg" fill="#4A374F" d="M96.1 42.8c0-17.7-14.4-32.1-32.1-32.1S31.9 25.1 31.9 42.8 46.3 74.9 64 74.9s32.1-14.4 32.1-32.1zm-61.2 0C34.9 26.7 48 13.7 64 13.7s29.1 13.1 29.1 29.1-13 29.1-29.1 29.1-29.1-13.1-29.1-29.1z"></path></symbol></defs><use data-v-6ca697d7="" xlink:href="#httpsc0piktochartcomv2externalassetsiconscoutce37846b92e1b1a18644c642d964f2c2165c7127svg-original" href="#httpsc0piktochartcomv2externalassetsiconscoutce37846b92e1b1a18644c642d964f2c2165c7127svg-original"></use></svg>